<?xml version="1.0" encoding="UTF-8" standalone="no"?>
<!DOCTYPE svg PUBLIC "-//W3C//DTD SVG 1.1//EN"
 "http://www.w3.org/Graphics/SVG/1.1/DTD/svg11.dtd">
<!-- Generated by graphviz version 2.43.0 (0)
 -->
<!-- Title: /home/jenkins/agent/workspace/ild&#45;documentation_release_v3.5.x/sdk/c/ifxBase/Cube.h Pages: 1 -->
<svg width="1692pt" height="317pt"
 viewBox="0.00 0.00 1692.00 317.00" xmlns="http://www.w3.org/2000/svg" xmlns:xlink="http://www.w3.org/1999/xlink">
<g id="graph0" class="graph" transform="scale(1 1) rotate(0) translate(4 313)">
<title>/home/jenkins/agent/workspace/ild&#45;documentation_release_v3.5.x/sdk/c/ifxBase/Cube.h</title>
<polygon fill="white" stroke="transparent" points="-4,4 -4,-313 1688,-313 1688,4 -4,4"/>
<!-- Node1 -->
<g id="node1" class="node">
<title>Node1</title>
<g id="a_node1"><a xlink:title="API for operations on Cube data structures.">
<polygon fill="#bfbfbf" stroke="black" points="867,-267.5 867,-308.5 1065,-308.5 1065,-267.5 867,-267.5"/>
<text text-anchor="start" x="875" y="-296.5" font-family="Helvetica,sans-Serif" font-size="10.00">/home/jenkins/agent</text>
<text text-anchor="start" x="875" y="-285.5" font-family="Helvetica,sans-Serif" font-size="10.00">/workspace/ild&#45;documentation</text>
<text text-anchor="middle" x="966" y="-274.5" font-family="Helvetica,sans-Serif" font-size="10.00">_release_v3.5.x/sdk/c/ifxBase/Cube.h</text>
</a>
</g>
</g>
<!-- Node2 -->
<g id="node2" class="node">
<title>Node2</title>
<g id="a_node2"><a xlink:href="_device_control_8h.html" target="_top" xlink:title="Header for ifxAvian.">
<polygon fill="white" stroke="black" points="146,-178.5 146,-230.5 310,-230.5 310,-178.5 146,-178.5"/>
<text text-anchor="start" x="154" y="-218.5" font-family="Helvetica,sans-Serif" font-size="10.00">/home/jenkins/agent</text>
<text text-anchor="start" x="154" y="-207.5" font-family="Helvetica,sans-Serif" font-size="10.00">/workspace/ild&#45;documentation</text>
<text text-anchor="start" x="154" y="-196.5" font-family="Helvetica,sans-Serif" font-size="10.00">_release_v3.5.x/sdk/c/ifxAvian</text>
<text text-anchor="middle" x="228" y="-185.5" font-family="Helvetica,sans-Serif" font-size="10.00">/DeviceControl.h</text>
</a>
</g>
</g>
<!-- Node1&#45;&gt;Node2 -->
<g id="edge1" class="edge">
<title>Node1&#45;&gt;Node2</title>
<path fill="none" stroke="midnightblue" d="M856.56,-283.76C727.23,-278.49 505.98,-264.98 319,-231 316.09,-230.47 313.15,-229.89 310.18,-229.27"/>
<polygon fill="midnightblue" stroke="midnightblue" points="856.73,-287.27 866.86,-284.17 857.01,-280.27 856.73,-287.27"/>
</g>
<!-- Node7 -->
<g id="node7" class="node">
<title>Node7</title>
<g id="a_node7"><a xlink:href="_base_8h.html" target="_top" xlink:title="Header for ifxBase.">
<polygon fill="white" stroke="black" points="328.5,-184 328.5,-225 525.5,-225 525.5,-184 328.5,-184"/>
<text text-anchor="start" x="336.5" y="-213" font-family="Helvetica,sans-Serif" font-size="10.00">/home/jenkins/agent</text>
<text text-anchor="start" x="336.5" y="-202" font-family="Helvetica,sans-Serif" font-size="10.00">/workspace/ild&#45;documentation</text>
<text text-anchor="middle" x="427" y="-191" font-family="Helvetica,sans-Serif" font-size="10.00">_release_v3.5.x/sdk/c/ifxBase/Base.h</text>
</a>
</g>
</g>
<!-- Node1&#45;&gt;Node7 -->
<g id="edge7" class="edge">
<title>Node1&#45;&gt;Node7</title>
<path fill="none" stroke="midnightblue" d="M856.49,-275.91C769.09,-266.31 643.71,-250.84 535,-231 525.43,-229.25 515.43,-227.2 505.55,-225.04"/>
<polygon fill="midnightblue" stroke="midnightblue" points="856.37,-279.42 866.69,-277.03 857.13,-272.46 856.37,-279.42"/>
</g>
<!-- Node8 -->
<g id="node8" class="node">
<title>Node8</title>
<g id="a_node8"><a xlink:href="_device_mimose_8h.html" target="_top" xlink:title="Main header file for ifxMimose.">
<polygon fill="white" stroke="black" points="544,-178.5 544,-230.5 720,-230.5 720,-178.5 544,-178.5"/>
<text text-anchor="start" x="552" y="-218.5" font-family="Helvetica,sans-Serif" font-size="10.00">/home/jenkins/agent</text>
<text text-anchor="start" x="552" y="-207.5" font-family="Helvetica,sans-Serif" font-size="10.00">/workspace/ild&#45;documentation</text>
<text text-anchor="start" x="552" y="-196.5" font-family="Helvetica,sans-Serif" font-size="10.00">_release_v3.5.x/sdk/c/ifxMimose</text>
<text text-anchor="middle" x="632" y="-185.5" font-family="Helvetica,sans-Serif" font-size="10.00">/DeviceMimose.h</text>
</a>
</g>
</g>
<!-- Node1&#45;&gt;Node8 -->
<g id="edge8" class="edge">
<title>Node1&#45;&gt;Node8</title>
<path fill="none" stroke="midnightblue" d="M871.16,-265.16C827.77,-255.02 775.71,-242.66 729,-231 726.04,-230.26 723.04,-229.51 720,-228.74"/>
<polygon fill="midnightblue" stroke="midnightblue" points="870.61,-268.63 881.14,-267.49 872.2,-261.81 870.61,-268.63"/>
</g>
<!-- Node9 -->
<g id="node9" class="node">
<title>Node9</title>
<g id="a_node9"><a xlink:href="_motion_angle_8h.html" target="_top" xlink:title=" ">
<polygon fill="white" stroke="black" points="738.5,-178.5 738.5,-230.5 937.5,-230.5 937.5,-178.5 738.5,-178.5"/>
<text text-anchor="start" x="746.5" y="-218.5" font-family="Helvetica,sans-Serif" font-size="10.00">/home/jenkins/agent</text>
<text text-anchor="start" x="746.5" y="-207.5" font-family="Helvetica,sans-Serif" font-size="10.00">/workspace/ild&#45;documentation</text>
<text text-anchor="start" x="746.5" y="-196.5" font-family="Helvetica,sans-Serif" font-size="10.00">_release_v3.5.x/sdk/c/ifxMotionAngle</text>
<text text-anchor="middle" x="838" y="-185.5" font-family="Helvetica,sans-Serif" font-size="10.00">/MotionAngle.h</text>
</a>
</g>
</g>
<!-- Node1&#45;&gt;Node9 -->
<g id="edge9" class="edge">
<title>Node1&#45;&gt;Node9</title>
<path fill="none" stroke="midnightblue" d="M926.49,-261.84C910.96,-251.96 893.16,-240.62 877.62,-230.73"/>
<polygon fill="midnightblue" stroke="midnightblue" points="925.03,-265.06 935.34,-267.48 928.79,-259.16 925.03,-265.06"/>
</g>
<!-- Node10 -->
<g id="node10" class="node">
<title>Node10</title>
<g id="a_node10"><a xlink:href="_angle_capon_8h.html" target="_top" xlink:title="API for the 1&#45;D Angle Capon algorithm.">
<polygon fill="white" stroke="black" points="883,-89.5 883,-141.5 1049,-141.5 1049,-89.5 883,-89.5"/>
<text text-anchor="start" x="891" y="-129.5" font-family="Helvetica,sans-Serif" font-size="10.00">/home/jenkins/agent</text>
<text text-anchor="start" x="891" y="-118.5" font-family="Helvetica,sans-Serif" font-size="10.00">/workspace/ild&#45;documentation</text>
<text text-anchor="start" x="891" y="-107.5" font-family="Helvetica,sans-Serif" font-size="10.00">_release_v3.5.x/sdk/c/ifxRadar</text>
<text text-anchor="middle" x="966" y="-96.5" font-family="Helvetica,sans-Serif" font-size="10.00">/AngleCapon.h</text>
</a>
</g>
</g>
<!-- Node1&#45;&gt;Node10 -->
<g id="edge10" class="edge">
<title>Node1&#45;&gt;Node10</title>
<path fill="none" stroke="midnightblue" d="M966,-257.13C966,-224.36 966,-172.36 966,-141.61"/>
<polygon fill="midnightblue" stroke="midnightblue" points="962.5,-257.44 966,-267.44 969.5,-257.44 962.5,-257.44"/>
</g>
<!-- Node12 -->
<g id="node12" class="node">
<title>Node12</title>
<g id="a_node12"><a xlink:href="_d_b_f_8h.html" target="_top" xlink:title="API for Digital Beamforming (DBF) algorithm.">
<polygon fill="white" stroke="black" points="994.5,-184 994.5,-225 1191.5,-225 1191.5,-184 994.5,-184"/>
<text text-anchor="start" x="1002.5" y="-213" font-family="Helvetica,sans-Serif" font-size="10.00">/home/jenkins/agent</text>
<text text-anchor="start" x="1002.5" y="-202" font-family="Helvetica,sans-Serif" font-size="10.00">/workspace/ild&#45;documentation</text>
<text text-anchor="middle" x="1093" y="-191" font-family="Helvetica,sans-Serif" font-size="10.00">_release_v3.5.x/sdk/c/ifxRadar/DBF.h</text>
</a>
</g>
</g>
<!-- Node1&#45;&gt;Node12 -->
<g id="edge12" class="edge">
<title>Node1&#45;&gt;Node12</title>
<path fill="none" stroke="midnightblue" d="M1004.91,-262.03C1023.38,-250.18 1045.12,-236.22 1062.39,-225.14"/>
<polygon fill="midnightblue" stroke="midnightblue" points="1002.95,-259.13 996.42,-267.48 1006.73,-265.02 1002.95,-259.13"/>
</g>
<!-- Node13 -->
<g id="node13" class="node">
<title>Node13</title>
<g id="a_node13"><a xlink:href="_range_angle_image_8h.html" target="_top" xlink:title="API for Range Angle Image algorithm.">
<polygon fill="white" stroke="black" points="1105,-89.5 1105,-141.5 1271,-141.5 1271,-89.5 1105,-89.5"/>
<text text-anchor="start" x="1113" y="-129.5" font-family="Helvetica,sans-Serif" font-size="10.00">/home/jenkins/agent</text>
<text text-anchor="start" x="1113" y="-118.5" font-family="Helvetica,sans-Serif" font-size="10.00">/workspace/ild&#45;documentation</text>
<text text-anchor="start" x="1113" y="-107.5" font-family="Helvetica,sans-Serif" font-size="10.00">_release_v3.5.x/sdk/c/ifxRadar</text>
<text text-anchor="middle" x="1188" y="-96.5" font-family="Helvetica,sans-Serif" font-size="10.00">/RangeAngleImage.h</text>
</a>
</g>
</g>
<!-- Node1&#45;&gt;Node13 -->
<g id="edge16" class="edge">
<title>Node1&#45;&gt;Node13</title>
<path fill="none" stroke="midnightblue" d="M1075.21,-274.12C1128.58,-265.35 1184.79,-251.53 1201,-231 1220.96,-205.72 1210.67,-166.95 1200.29,-141.66"/>
<polygon fill="midnightblue" stroke="midnightblue" points="1074.61,-270.67 1065.28,-275.7 1075.71,-277.58 1074.61,-270.67"/>
</g>
<!-- Node14 -->
<g id="node14" class="node">
<title>Node14</title>
<g id="a_node14"><a xlink:href="_segmentation_8h.html" target="_top" xlink:title="API for Segmentation and Seamless Tracking algorithm.">
<polygon fill="white" stroke="black" points="1248,-178.5 1248,-230.5 1482,-230.5 1482,-178.5 1248,-178.5"/>
<text text-anchor="start" x="1256" y="-218.5" font-family="Helvetica,sans-Serif" font-size="10.00">/home/jenkins/agent</text>
<text text-anchor="start" x="1256" y="-207.5" font-family="Helvetica,sans-Serif" font-size="10.00">/workspace/ild&#45;documentation</text>
<text text-anchor="start" x="1256" y="-196.5" font-family="Helvetica,sans-Serif" font-size="10.00">_release_v3.5.x/sdk/c/ifxRadarSegmentation</text>
<text text-anchor="middle" x="1365" y="-185.5" font-family="Helvetica,sans-Serif" font-size="10.00">/Segmentation.h</text>
</a>
</g>
</g>
<!-- Node1&#45;&gt;Node14 -->
<g id="edge17" class="edge">
<title>Node1&#45;&gt;Node14</title>
<path fill="none" stroke="midnightblue" d="M1071.55,-265.44C1125.76,-254.37 1191.97,-240.84 1247.77,-229.45"/>
<polygon fill="midnightblue" stroke="midnightblue" points="1070.67,-262.05 1061.57,-267.48 1072.07,-268.91 1070.67,-262.05"/>
</g>
<!-- Node16 -->
<g id="node16" class="node">
<title>Node16</title>
<g id="a_node16"><a xlink:href="_util_8h.html" target="_top" xlink:title="This file defines some utility functions like printing to, reading from files or printing to console.">
<polygon fill="white" stroke="black" points="1500,-184 1500,-225 1684,-225 1684,-184 1500,-184"/>
<text text-anchor="start" x="1508" y="-213" font-family="Helvetica,sans-Serif" font-size="10.00">/home/jenkins/agent</text>
<text text-anchor="start" x="1508" y="-202" font-family="Helvetica,sans-Serif" font-size="10.00">/workspace/ild&#45;documentation</text>
<text text-anchor="middle" x="1592" y="-191" font-family="Helvetica,sans-Serif" font-size="10.00">_release_v3.5.x/sdk/c/ifxUtil/Util.h</text>
</a>
</g>
</g>
<!-- Node1&#45;&gt;Node16 -->
<g id="edge19" class="edge">
<title>Node1&#45;&gt;Node16</title>
<path fill="none" stroke="midnightblue" d="M1075.42,-279.85C1182.06,-271.81 1348.51,-256.46 1491,-231 1500.35,-229.33 1510.11,-227.27 1519.72,-225.06"/>
<polygon fill="midnightblue" stroke="midnightblue" points="1075,-276.37 1065.28,-280.6 1075.52,-283.35 1075,-276.37"/>
</g>
<!-- Node3 -->
<g id="node3" class="node">
<title>Node3</title>
<g id="a_node3"><a xlink:href="_avian_8h.html" target="_top" xlink:title="Header for ifxAvian.">
<polygon fill="white" stroke="black" points="0,-0.5 0,-52.5 164,-52.5 164,-0.5 0,-0.5"/>
<text text-anchor="start" x="8" y="-40.5" font-family="Helvetica,sans-Serif" font-size="10.00">/home/jenkins/agent</text>
<text text-anchor="start" x="8" y="-29.5" font-family="Helvetica,sans-Serif" font-size="10.00">/workspace/ild&#45;documentation</text>
<text text-anchor="start" x="8" y="-18.5" font-family="Helvetica,sans-Serif" font-size="10.00">_release_v3.5.x/sdk/c/ifxAvian</text>
<text text-anchor="middle" x="82" y="-7.5" font-family="Helvetica,sans-Serif" font-size="10.00">/Avian.h</text>
</a>
</g>
</g>
<!-- Node2&#45;&gt;Node3 -->
<g id="edge2" class="edge">
<title>Node2&#45;&gt;Node3</title>
<path fill="none" stroke="midnightblue" d="M135.9,-194.7C101.98,-186.48 66.8,-170.98 46,-142 26.68,-115.08 45.25,-77.43 62.09,-52.76"/>
<polygon fill="midnightblue" stroke="midnightblue" points="135.37,-198.17 145.89,-196.93 136.89,-191.34 135.37,-198.17"/>
</g>
<!-- Node4 -->
<g id="node4" class="node">
<title>Node4</title>
<g id="a_node4"><a xlink:href="_metrics_8h.html" target="_top" xlink:title="API for Metrics.">
<polygon fill="white" stroke="black" points="55,-89.5 55,-141.5 219,-141.5 219,-89.5 55,-89.5"/>
<text text-anchor="start" x="63" y="-129.5" font-family="Helvetica,sans-Serif" font-size="10.00">/home/jenkins/agent</text>
<text text-anchor="start" x="63" y="-118.5" font-family="Helvetica,sans-Serif" font-size="10.00">/workspace/ild&#45;documentation</text>
<text text-anchor="start" x="63" y="-107.5" font-family="Helvetica,sans-Serif" font-size="10.00">_release_v3.5.x/sdk/c/ifxAvian</text>
<text text-anchor="middle" x="137" y="-96.5" font-family="Helvetica,sans-Serif" font-size="10.00">/Metrics.h</text>
</a>
</g>
</g>
<!-- Node2&#45;&gt;Node4 -->
<g id="edge3" class="edge">
<title>Node2&#45;&gt;Node4</title>
<path fill="none" stroke="midnightblue" d="M194.39,-171.36C184.11,-161.54 172.97,-150.89 163.26,-141.61"/>
<polygon fill="midnightblue" stroke="midnightblue" points="192.03,-173.96 201.68,-178.34 196.87,-168.9 192.03,-173.96"/>
</g>
<!-- Node5 -->
<g id="node5" class="node">
<title>Node5</title>
<g id="a_node5"><a xlink:href="_device_cw_8h.html" target="_top" xlink:title="Header for Continuous Wave Control.">
<polygon fill="white" stroke="black" points="237,-89.5 237,-141.5 401,-141.5 401,-89.5 237,-89.5"/>
<text text-anchor="start" x="245" y="-129.5" font-family="Helvetica,sans-Serif" font-size="10.00">/home/jenkins/agent</text>
<text text-anchor="start" x="245" y="-118.5" font-family="Helvetica,sans-Serif" font-size="10.00">/workspace/ild&#45;documentation</text>
<text text-anchor="start" x="245" y="-107.5" font-family="Helvetica,sans-Serif" font-size="10.00">_release_v3.5.x/sdk/c/ifxCw</text>
<text text-anchor="middle" x="319" y="-96.5" font-family="Helvetica,sans-Serif" font-size="10.00">/DeviceCw.h</text>
</a>
</g>
</g>
<!-- Node2&#45;&gt;Node5 -->
<g id="edge5" class="edge">
<title>Node2&#45;&gt;Node5</title>
<path fill="none" stroke="midnightblue" d="M261.61,-171.36C271.89,-161.54 283.03,-150.89 292.74,-141.61"/>
<polygon fill="midnightblue" stroke="midnightblue" points="259.13,-168.9 254.32,-178.34 263.97,-173.96 259.13,-168.9"/>
</g>
<!-- Node6 -->
<g id="node6" class="node">
<title>Node6</title>
<g id="a_node6"><a xlink:href="_presence_sensing_8h.html" target="_top" xlink:title=" ">
<polygon fill="white" stroke="black" points="419,-89.5 419,-141.5 629,-141.5 629,-89.5 419,-89.5"/>
<text text-anchor="start" x="427" y="-129.5" font-family="Helvetica,sans-Serif" font-size="10.00">/home/jenkins/agent</text>
<text text-anchor="start" x="427" y="-118.5" font-family="Helvetica,sans-Serif" font-size="10.00">/workspace/ild&#45;documentation</text>
<text text-anchor="start" x="427" y="-107.5" font-family="Helvetica,sans-Serif" font-size="10.00">_release_v3.5.x/sdk/c/ifxRadarPresence</text>
<text text-anchor="middle" x="524" y="-96.5" font-family="Helvetica,sans-Serif" font-size="10.00">Sensing/PresenceSensing.h</text>
</a>
</g>
</g>
<!-- Node2&#45;&gt;Node6 -->
<g id="edge6" class="edge">
<title>Node2&#45;&gt;Node6</title>
<path fill="none" stroke="midnightblue" d="M320.07,-176.44C357.94,-165.31 401.54,-152.49 438.68,-141.58"/>
<polygon fill="midnightblue" stroke="midnightblue" points="318.67,-173.2 310.06,-179.38 320.64,-179.92 318.67,-173.2"/>
</g>
<!-- Node4&#45;&gt;Node3 -->
<g id="edge4" class="edge">
<title>Node4&#45;&gt;Node3</title>
<path fill="none" stroke="midnightblue" d="M115.59,-80.64C109.69,-71.31 103.4,-61.35 97.87,-52.61"/>
<polygon fill="midnightblue" stroke="midnightblue" points="112.79,-82.75 121.09,-89.34 118.71,-79.01 112.79,-82.75"/>
</g>
<!-- Node11 -->
<g id="node11" class="node">
<title>Node11</title>
<g id="a_node11"><a xlink:href="_radar_8h.html" target="_top" xlink:title="Header for ifxRadar.">
<polygon fill="white" stroke="black" points="994,-0.5 994,-52.5 1160,-52.5 1160,-0.5 994,-0.5"/>
<text text-anchor="start" x="1002" y="-40.5" font-family="Helvetica,sans-Serif" font-size="10.00">/home/jenkins/agent</text>
<text text-anchor="start" x="1002" y="-29.5" font-family="Helvetica,sans-Serif" font-size="10.00">/workspace/ild&#45;documentation</text>
<text text-anchor="start" x="1002" y="-18.5" font-family="Helvetica,sans-Serif" font-size="10.00">_release_v3.5.x/sdk/c/ifxRadar</text>
<text text-anchor="middle" x="1077" y="-7.5" font-family="Helvetica,sans-Serif" font-size="10.00">/Radar.h</text>
</a>
</g>
</g>
<!-- Node10&#45;&gt;Node11 -->
<g id="edge11" class="edge">
<title>Node10&#45;&gt;Node11</title>
<path fill="none" stroke="midnightblue" d="M1006.27,-82.93C1019,-72.96 1032.89,-62.07 1044.97,-52.61"/>
<polygon fill="midnightblue" stroke="midnightblue" points="1003.82,-80.41 998.11,-89.34 1008.14,-85.92 1003.82,-80.41"/>
</g>
<!-- Node12&#45;&gt;Node11 -->
<g id="edge13" class="edge">
<title>Node12&#45;&gt;Node11</title>
<path fill="none" stroke="midnightblue" d="M1090.3,-173.75C1087.21,-139.77 1082.2,-84.75 1079.3,-52.76"/>
<polygon fill="midnightblue" stroke="midnightblue" points="1086.84,-174.35 1091.23,-183.99 1093.81,-173.72 1086.84,-174.35"/>
</g>
<!-- Node12&#45;&gt;Node13 -->
<g id="edge14" class="edge">
<title>Node12&#45;&gt;Node13</title>
<path fill="none" stroke="midnightblue" d="M1122.23,-176.73C1134.38,-165.6 1148.41,-152.75 1160.39,-141.79"/>
<polygon fill="midnightblue" stroke="midnightblue" points="1119.57,-174.42 1114.56,-183.76 1124.3,-179.59 1119.57,-174.42"/>
</g>
<!-- Node13&#45;&gt;Node11 -->
<g id="edge15" class="edge">
<title>Node13&#45;&gt;Node11</title>
<path fill="none" stroke="midnightblue" d="M1147.73,-82.93C1135,-72.96 1121.11,-62.07 1109.03,-52.61"/>
<polygon fill="midnightblue" stroke="midnightblue" points="1145.86,-85.92 1155.89,-89.34 1150.18,-80.41 1145.86,-85.92"/>
</g>
<!-- Node15 -->
<g id="node15" class="node">
<title>Node15</title>
<g id="a_node15"><a xlink:href="_radar_segmentation_8h.html" target="_top" xlink:title="Header for ifxRadarSegmentation.">
<polygon fill="white" stroke="black" points="1289,-89.5 1289,-141.5 1523,-141.5 1523,-89.5 1289,-89.5"/>
<text text-anchor="start" x="1297" y="-129.5" font-family="Helvetica,sans-Serif" font-size="10.00">/home/jenkins/agent</text>
<text text-anchor="start" x="1297" y="-118.5" font-family="Helvetica,sans-Serif" font-size="10.00">/workspace/ild&#45;documentation</text>
<text text-anchor="start" x="1297" y="-107.5" font-family="Helvetica,sans-Serif" font-size="10.00">_release_v3.5.x/sdk/c/ifxRadarSegmentation</text>
<text text-anchor="middle" x="1406" y="-96.5" font-family="Helvetica,sans-Serif" font-size="10.00">/RadarSegmentation.h</text>
</a>
</g>
</g>
<!-- Node14&#45;&gt;Node15 -->
<g id="edge18" class="edge">
<title>Node14&#45;&gt;Node15</title>
<path fill="none" stroke="midnightblue" d="M1381.23,-169.06C1385.55,-159.9 1390.13,-150.17 1394.17,-141.61"/>
<polygon fill="midnightblue" stroke="midnightblue" points="1377.96,-167.8 1376.86,-178.34 1384.29,-170.78 1377.96,-167.8"/>
</g>
</g>
</svg>
