<?xml version="1.0" encoding="UTF-8" standalone="no"?>
<!DOCTYPE svg PUBLIC "-//W3C//DTD SVG 1.1//EN"
 "http://www.w3.org/Graphics/SVG/1.1/DTD/svg11.dtd">
<!-- Generated by graphviz version 2.43.0 (0)
 -->
<!-- Title: /home/jenkins/agent/workspace/ild&#45;documentation_release_v3.5.x/sdk/c/ifxBase/Defines.h Pages: 1 -->
<svg width="1696pt" height="417pt"
 viewBox="0.00 0.00 1695.73 417.00" xmlns="http://www.w3.org/2000/svg" xmlns:xlink="http://www.w3.org/1999/xlink">
<g id="graph0" class="graph" transform="scale(1 1) rotate(0) translate(4 413)">
<title>/home/jenkins/agent/workspace/ild&#45;documentation_release_v3.5.x/sdk/c/ifxBase/Defines.h</title>
<polygon fill="white" stroke="transparent" points="-4,4 -4,-413 1691.73,-413 1691.73,4 -4,4"/>
<!-- Node1 -->
<g id="node1" class="node">
<title>Node1</title>
<g id="a_node1"><a xlink:title="Internal definitions used by standard math.h functions as Macros, to use float or double precision.">
<polygon fill="#bfbfbf" stroke="black" points="237.73,-356.5 237.73,-408.5 401.73,-408.5 401.73,-356.5 237.73,-356.5"/>
<text text-anchor="start" x="245.73" y="-396.5" font-family="Helvetica,sans-Serif" font-size="10.00">/home/jenkins/agent</text>
<text text-anchor="start" x="245.73" y="-385.5" font-family="Helvetica,sans-Serif" font-size="10.00">/workspace/ild&#45;documentation</text>
<text text-anchor="start" x="245.73" y="-374.5" font-family="Helvetica,sans-Serif" font-size="10.00">_release_v3.5.x/sdk/c/ifxBase</text>
<text text-anchor="middle" x="319.73" y="-363.5" font-family="Helvetica,sans-Serif" font-size="10.00">/Defines.h</text>
</a>
</g>
</g>
<!-- Node2 -->
<g id="node2" class="node">
<title>Node2</title>
<g id="a_node2"><a xlink:href="_base_8h.html" target="_top" xlink:title="Header for ifxBase.">
<polygon fill="white" stroke="black" points="221.23,-184 221.23,-225 418.23,-225 418.23,-184 221.23,-184"/>
<text text-anchor="start" x="229.23" y="-213" font-family="Helvetica,sans-Serif" font-size="10.00">/home/jenkins/agent</text>
<text text-anchor="start" x="229.23" y="-202" font-family="Helvetica,sans-Serif" font-size="10.00">/workspace/ild&#45;documentation</text>
<text text-anchor="middle" x="319.73" y="-191" font-family="Helvetica,sans-Serif" font-size="10.00">_release_v3.5.x/sdk/c/ifxBase/Base.h</text>
</a>
</g>
</g>
<!-- Node1&#45;&gt;Node2 -->
<g id="edge1" class="edge">
<title>Node1&#45;&gt;Node2</title>
<path fill="none" stroke="midnightblue" d="M319.73,-346.11C319.73,-309.76 319.73,-254.46 319.73,-225.22"/>
<polygon fill="midnightblue" stroke="midnightblue" points="316.23,-346.28 319.73,-356.28 323.23,-346.28 316.23,-346.28"/>
</g>
<!-- Node3 -->
<g id="node3" class="node">
<title>Node3</title>
<g id="a_node3"><a xlink:href="_complex_8h.html" target="_top" xlink:title="API for operations on complex numbers.">
<polygon fill="white" stroke="black" points="78.73,-267.5 78.73,-319.5 242.73,-319.5 242.73,-267.5 78.73,-267.5"/>
<text text-anchor="start" x="86.73" y="-307.5" font-family="Helvetica,sans-Serif" font-size="10.00">/home/jenkins/agent</text>
<text text-anchor="start" x="86.73" y="-296.5" font-family="Helvetica,sans-Serif" font-size="10.00">/workspace/ild&#45;documentation</text>
<text text-anchor="start" x="86.73" y="-285.5" font-family="Helvetica,sans-Serif" font-size="10.00">_release_v3.5.x/sdk/c/ifxBase</text>
<text text-anchor="middle" x="160.73" y="-274.5" font-family="Helvetica,sans-Serif" font-size="10.00">/Complex.h</text>
</a>
</g>
</g>
<!-- Node1&#45;&gt;Node3 -->
<g id="edge2" class="edge">
<title>Node1&#45;&gt;Node3</title>
<path fill="none" stroke="midnightblue" d="M264.9,-351.49C245.9,-341.1 224.82,-329.57 206.62,-319.61"/>
<polygon fill="midnightblue" stroke="midnightblue" points="263.29,-354.61 273.74,-356.34 266.65,-348.47 263.29,-354.61"/>
</g>
<!-- Node7 -->
<g id="node7" class="node">
<title>Node7</title>
<g id="a_node7"><a xlink:href="_cube_8h.html" target="_top" xlink:title="API for operations on Cube data structures.">
<polygon fill="white" stroke="black" points="592.73,-273 592.73,-314 790.73,-314 790.73,-273 592.73,-273"/>
<text text-anchor="start" x="600.73" y="-302" font-family="Helvetica,sans-Serif" font-size="10.00">/home/jenkins/agent</text>
<text text-anchor="start" x="600.73" y="-291" font-family="Helvetica,sans-Serif" font-size="10.00">/workspace/ild&#45;documentation</text>
<text text-anchor="middle" x="691.73" y="-280" font-family="Helvetica,sans-Serif" font-size="10.00">_release_v3.5.x/sdk/c/ifxBase/Cube.h</text>
</a>
</g>
</g>
<!-- Node1&#45;&gt;Node7 -->
<g id="edge7" class="edge">
<title>Node1&#45;&gt;Node7</title>
<path fill="none" stroke="midnightblue" d="M411.71,-359.99C471.87,-345.92 549.85,-327.68 608.24,-314.03"/>
<polygon fill="midnightblue" stroke="midnightblue" points="410.77,-356.61 401.83,-362.3 412.37,-363.43 410.77,-356.61"/>
</g>
<!-- Node3&#45;&gt;Node2 -->
<g id="edge3" class="edge">
<title>Node3&#45;&gt;Node2</title>
<path fill="none" stroke="midnightblue" d="M215.56,-262.5C238.19,-250.12 263.79,-236.11 283.95,-225.08"/>
<polygon fill="midnightblue" stroke="midnightblue" points="213.82,-259.47 206.72,-267.34 217.18,-265.61 213.82,-259.47"/>
</g>
<!-- Node4 -->
<g id="node4" class="node">
<title>Node4</title>
<g id="a_node4"><a xlink:href="_angle_monopulse_8h.html" target="_top" xlink:title="API for Phase Monopulse algorithm.">
<polygon fill="white" stroke="black" points="61.73,-89.5 61.73,-141.5 227.73,-141.5 227.73,-89.5 61.73,-89.5"/>
<text text-anchor="start" x="69.73" y="-129.5" font-family="Helvetica,sans-Serif" font-size="10.00">/home/jenkins/agent</text>
<text text-anchor="start" x="69.73" y="-118.5" font-family="Helvetica,sans-Serif" font-size="10.00">/workspace/ild&#45;documentation</text>
<text text-anchor="start" x="69.73" y="-107.5" font-family="Helvetica,sans-Serif" font-size="10.00">_release_v3.5.x/sdk/c/ifxRadar</text>
<text text-anchor="middle" x="144.73" y="-96.5" font-family="Helvetica,sans-Serif" font-size="10.00">/AngleMonopulse.h</text>
</a>
</g>
</g>
<!-- Node3&#45;&gt;Node4 -->
<g id="edge4" class="edge">
<title>Node3&#45;&gt;Node4</title>
<path fill="none" stroke="midnightblue" d="M68.87,-274.48C45.77,-265.36 23.62,-251.64 9.73,-231 -3.41,-211.45 -3.01,-197.81 9.73,-178 21.79,-159.26 41.11,-146.17 61.41,-137.04"/>
<polygon fill="midnightblue" stroke="midnightblue" points="67.86,-277.83 78.45,-277.99 70.27,-271.26 67.86,-277.83"/>
</g>
<!-- Node6 -->
<g id="node6" class="node">
<title>Node6</title>
<g id="a_node6"><a xlink:href="_util_8h.html" target="_top" xlink:title="This file defines some utility functions like printing to, reading from files or printing to console.">
<polygon fill="white" stroke="black" points="18.73,-184 18.73,-225 202.73,-225 202.73,-184 18.73,-184"/>
<text text-anchor="start" x="26.73" y="-213" font-family="Helvetica,sans-Serif" font-size="10.00">/home/jenkins/agent</text>
<text text-anchor="start" x="26.73" y="-202" font-family="Helvetica,sans-Serif" font-size="10.00">/workspace/ild&#45;documentation</text>
<text text-anchor="middle" x="110.73" y="-191" font-family="Helvetica,sans-Serif" font-size="10.00">_release_v3.5.x/sdk/c/ifxUtil/Util.h</text>
</a>
</g>
</g>
<!-- Node3&#45;&gt;Node6 -->
<g id="edge6" class="edge">
<title>Node3&#45;&gt;Node6</title>
<path fill="none" stroke="midnightblue" d="M141.2,-258.51C134.68,-247.17 127.65,-234.94 121.99,-225.08"/>
<polygon fill="midnightblue" stroke="midnightblue" points="138.25,-260.41 146.27,-267.34 144.32,-256.92 138.25,-260.41"/>
</g>
<!-- Node5 -->
<g id="node5" class="node">
<title>Node5</title>
<g id="a_node5"><a xlink:href="_radar_8h.html" target="_top" xlink:title="Header for ifxRadar.">
<polygon fill="white" stroke="black" points="617.73,-0.5 617.73,-52.5 783.73,-52.5 783.73,-0.5 617.73,-0.5"/>
<text text-anchor="start" x="625.73" y="-40.5" font-family="Helvetica,sans-Serif" font-size="10.00">/home/jenkins/agent</text>
<text text-anchor="start" x="625.73" y="-29.5" font-family="Helvetica,sans-Serif" font-size="10.00">/workspace/ild&#45;documentation</text>
<text text-anchor="start" x="625.73" y="-18.5" font-family="Helvetica,sans-Serif" font-size="10.00">_release_v3.5.x/sdk/c/ifxRadar</text>
<text text-anchor="middle" x="700.73" y="-7.5" font-family="Helvetica,sans-Serif" font-size="10.00">/Radar.h</text>
</a>
</g>
</g>
<!-- Node4&#45;&gt;Node5 -->
<g id="edge5" class="edge">
<title>Node4&#45;&gt;Node5</title>
<path fill="none" stroke="midnightblue" d="M238.03,-99.9C344.08,-83.31 515.64,-56.46 617.38,-40.54"/>
<polygon fill="midnightblue" stroke="midnightblue" points="237.31,-96.47 227.97,-101.48 238.39,-103.39 237.31,-96.47"/>
</g>
<!-- Node7&#45;&gt;Node2 -->
<g id="edge14" class="edge">
<title>Node7&#45;&gt;Node2</title>
<path fill="none" stroke="midnightblue" d="M598.4,-270.67C538.43,-256.65 461.2,-238.59 403.26,-225.03"/>
<polygon fill="midnightblue" stroke="midnightblue" points="597.72,-274.11 608.25,-272.98 599.31,-267.29 597.72,-274.11"/>
</g>
<!-- Node7&#45;&gt;Node6 -->
<g id="edge26" class="edge">
<title>Node7&#45;&gt;Node6</title>
<path fill="none" stroke="midnightblue" d="M582.18,-282.24C484.51,-272.2 337.89,-254.92 211.73,-231 202.67,-229.28 193.21,-227.24 183.87,-225.06"/>
<polygon fill="midnightblue" stroke="midnightblue" points="582.06,-285.75 592.36,-283.28 582.77,-278.78 582.06,-285.75"/>
</g>
<!-- Node8 -->
<g id="node8" class="node">
<title>Node8</title>
<g id="a_node8"><a xlink:href="_device_control_8h.html" target="_top" xlink:title="Header for ifxAvian.">
<polygon fill="white" stroke="black" points="1239.73,-178.5 1239.73,-230.5 1403.73,-230.5 1403.73,-178.5 1239.73,-178.5"/>
<text text-anchor="start" x="1247.73" y="-218.5" font-family="Helvetica,sans-Serif" font-size="10.00">/home/jenkins/agent</text>
<text text-anchor="start" x="1247.73" y="-207.5" font-family="Helvetica,sans-Serif" font-size="10.00">/workspace/ild&#45;documentation</text>
<text text-anchor="start" x="1247.73" y="-196.5" font-family="Helvetica,sans-Serif" font-size="10.00">_release_v3.5.x/sdk/c/ifxAvian</text>
<text text-anchor="middle" x="1321.73" y="-185.5" font-family="Helvetica,sans-Serif" font-size="10.00">/DeviceControl.h</text>
</a>
</g>
</g>
<!-- Node7&#45;&gt;Node8 -->
<g id="edge8" class="edge">
<title>Node7&#45;&gt;Node8</title>
<path fill="none" stroke="midnightblue" d="M800.98,-281.17C902.07,-270.17 1056.42,-252.08 1189.73,-231 1205.87,-228.45 1223.05,-225.38 1239.5,-222.28"/>
<polygon fill="midnightblue" stroke="midnightblue" points="800.32,-277.72 790.75,-282.28 801.07,-284.68 800.32,-277.72"/>
</g>
<!-- Node13 -->
<g id="node13" class="node">
<title>Node13</title>
<g id="a_node13"><a xlink:href="_device_mimose_8h.html" target="_top" xlink:title="Main header file for ifxMimose.">
<polygon fill="white" stroke="black" points="1421.73,-178.5 1421.73,-230.5 1597.73,-230.5 1597.73,-178.5 1421.73,-178.5"/>
<text text-anchor="start" x="1429.73" y="-218.5" font-family="Helvetica,sans-Serif" font-size="10.00">/home/jenkins/agent</text>
<text text-anchor="start" x="1429.73" y="-207.5" font-family="Helvetica,sans-Serif" font-size="10.00">/workspace/ild&#45;documentation</text>
<text text-anchor="start" x="1429.73" y="-196.5" font-family="Helvetica,sans-Serif" font-size="10.00">_release_v3.5.x/sdk/c/ifxMimose</text>
<text text-anchor="middle" x="1509.73" y="-185.5" font-family="Helvetica,sans-Serif" font-size="10.00">/DeviceMimose.h</text>
</a>
</g>
</g>
<!-- Node7&#45;&gt;Node13 -->
<g id="edge15" class="edge">
<title>Node7&#45;&gt;Node13</title>
<path fill="none" stroke="midnightblue" d="M800.98,-289.03C942.88,-283.18 1197.85,-268.13 1412.73,-231 1415.65,-230.5 1418.61,-229.95 1421.59,-229.36"/>
<polygon fill="midnightblue" stroke="midnightblue" points="800.82,-285.53 790.97,-289.43 801.1,-292.52 800.82,-285.53"/>
</g>
<!-- Node14 -->
<g id="node14" class="node">
<title>Node14</title>
<g id="a_node14"><a xlink:href="_motion_angle_8h.html" target="_top" xlink:title=" ">
<polygon fill="white" stroke="black" points="475.23,-178.5 475.23,-230.5 674.23,-230.5 674.23,-178.5 475.23,-178.5"/>
<text text-anchor="start" x="483.23" y="-218.5" font-family="Helvetica,sans-Serif" font-size="10.00">/home/jenkins/agent</text>
<text text-anchor="start" x="483.23" y="-207.5" font-family="Helvetica,sans-Serif" font-size="10.00">/workspace/ild&#45;documentation</text>
<text text-anchor="start" x="483.23" y="-196.5" font-family="Helvetica,sans-Serif" font-size="10.00">_release_v3.5.x/sdk/c/ifxMotionAngle</text>
<text text-anchor="middle" x="574.73" y="-185.5" font-family="Helvetica,sans-Serif" font-size="10.00">/MotionAngle.h</text>
</a>
</g>
</g>
<!-- Node7&#45;&gt;Node14 -->
<g id="edge16" class="edge">
<title>Node7&#45;&gt;Node14</title>
<path fill="none" stroke="midnightblue" d="M657.24,-266.85C641.84,-255.4 623.77,-241.96 608.47,-230.58"/>
<polygon fill="midnightblue" stroke="midnightblue" points="655.36,-269.82 665.48,-272.98 659.54,-264.2 655.36,-269.82"/>
</g>
<!-- Node15 -->
<g id="node15" class="node">
<title>Node15</title>
<g id="a_node15"><a xlink:href="_angle_capon_8h.html" target="_top" xlink:title="API for the 1&#45;D Angle Capon algorithm.">
<polygon fill="white" stroke="black" points="381.73,-89.5 381.73,-141.5 547.73,-141.5 547.73,-89.5 381.73,-89.5"/>
<text text-anchor="start" x="389.73" y="-129.5" font-family="Helvetica,sans-Serif" font-size="10.00">/home/jenkins/agent</text>
<text text-anchor="start" x="389.73" y="-118.5" font-family="Helvetica,sans-Serif" font-size="10.00">/workspace/ild&#45;documentation</text>
<text text-anchor="start" x="389.73" y="-107.5" font-family="Helvetica,sans-Serif" font-size="10.00">_release_v3.5.x/sdk/c/ifxRadar</text>
<text text-anchor="middle" x="464.73" y="-96.5" font-family="Helvetica,sans-Serif" font-size="10.00">/AngleCapon.h</text>
</a>
</g>
</g>
<!-- Node7&#45;&gt;Node15 -->
<g id="edge17" class="edge">
<title>Node7&#45;&gt;Node15</title>
<path fill="none" stroke="midnightblue" d="M582.51,-275.59C532.41,-265.39 480.81,-250.55 465.73,-231 446.19,-205.66 450.83,-166.9 456.97,-141.63"/>
<polygon fill="midnightblue" stroke="midnightblue" points="582.01,-279.05 592.5,-277.56 583.37,-272.19 582.01,-279.05"/>
</g>
<!-- Node16 -->
<g id="node16" class="node">
<title>Node16</title>
<g id="a_node16"><a xlink:href="_d_b_f_8h.html" target="_top" xlink:title="API for Digital Beamforming (DBF) algorithm.">
<polygon fill="white" stroke="black" points="983.23,-184 983.23,-225 1180.23,-225 1180.23,-184 983.23,-184"/>
<text text-anchor="start" x="991.23" y="-213" font-family="Helvetica,sans-Serif" font-size="10.00">/home/jenkins/agent</text>
<text text-anchor="start" x="991.23" y="-202" font-family="Helvetica,sans-Serif" font-size="10.00">/workspace/ild&#45;documentation</text>
<text text-anchor="middle" x="1081.73" y="-191" font-family="Helvetica,sans-Serif" font-size="10.00">_release_v3.5.x/sdk/c/ifxRadar/DBF.h</text>
</a>
</g>
</g>
<!-- Node7&#45;&gt;Node16 -->
<g id="edge19" class="edge">
<title>Node7&#45;&gt;Node16</title>
<path fill="none" stroke="midnightblue" d="M790.08,-270.75C843.02,-259.02 909.46,-244.27 968.73,-231 977.37,-229.07 986.37,-227.05 995.37,-225.02"/>
<polygon fill="midnightblue" stroke="midnightblue" points="789.02,-267.4 780.01,-272.98 790.53,-274.24 789.02,-267.4"/>
</g>
<!-- Node17 -->
<g id="node17" class="node">
<title>Node17</title>
<g id="a_node17"><a xlink:href="_range_angle_image_8h.html" target="_top" xlink:title="API for Range Angle Image algorithm.">
<polygon fill="white" stroke="black" points="853.73,-89.5 853.73,-141.5 1019.73,-141.5 1019.73,-89.5 853.73,-89.5"/>
<text text-anchor="start" x="861.73" y="-129.5" font-family="Helvetica,sans-Serif" font-size="10.00">/home/jenkins/agent</text>
<text text-anchor="start" x="861.73" y="-118.5" font-family="Helvetica,sans-Serif" font-size="10.00">/workspace/ild&#45;documentation</text>
<text text-anchor="start" x="861.73" y="-107.5" font-family="Helvetica,sans-Serif" font-size="10.00">_release_v3.5.x/sdk/c/ifxRadar</text>
<text text-anchor="middle" x="936.73" y="-96.5" font-family="Helvetica,sans-Serif" font-size="10.00">/RangeAngleImage.h</text>
</a>
</g>
</g>
<!-- Node7&#45;&gt;Node17 -->
<g id="edge23" class="edge">
<title>Node7&#45;&gt;Node17</title>
<path fill="none" stroke="midnightblue" d="M801,-278.19C857.62,-268.31 918.48,-252.95 935.73,-231 955.52,-205.84 950.81,-167.04 944.6,-141.71"/>
<polygon fill="midnightblue" stroke="midnightblue" points="800.14,-274.79 790.86,-279.91 801.31,-281.69 800.14,-274.79"/>
</g>
<!-- Node18 -->
<g id="node18" class="node">
<title>Node18</title>
<g id="a_node18"><a xlink:href="_segmentation_8h.html" target="_top" xlink:title="API for Segmentation and Seamless Tracking algorithm.">
<polygon fill="white" stroke="black" points="692.73,-178.5 692.73,-230.5 926.73,-230.5 926.73,-178.5 692.73,-178.5"/>
<text text-anchor="start" x="700.73" y="-218.5" font-family="Helvetica,sans-Serif" font-size="10.00">/home/jenkins/agent</text>
<text text-anchor="start" x="700.73" y="-207.5" font-family="Helvetica,sans-Serif" font-size="10.00">/workspace/ild&#45;documentation</text>
<text text-anchor="start" x="700.73" y="-196.5" font-family="Helvetica,sans-Serif" font-size="10.00">_release_v3.5.x/sdk/c/ifxRadarSegmentation</text>
<text text-anchor="middle" x="809.73" y="-185.5" font-family="Helvetica,sans-Serif" font-size="10.00">/Segmentation.h</text>
</a>
</g>
</g>
<!-- Node7&#45;&gt;Node18 -->
<g id="edge24" class="edge">
<title>Node7&#45;&gt;Node18</title>
<path fill="none" stroke="midnightblue" d="M726.53,-266.85C742.05,-255.4 760.28,-241.96 775.71,-230.58"/>
<polygon fill="midnightblue" stroke="midnightblue" points="724.19,-264.22 718.21,-272.98 728.34,-269.86 724.19,-264.22"/>
</g>
<!-- Node9 -->
<g id="node9" class="node">
<title>Node9</title>
<g id="a_node9"><a xlink:href="_avian_8h.html" target="_top" xlink:title="Header for ifxAvian.">
<polygon fill="white" stroke="black" points="1468.73,-0.5 1468.73,-52.5 1632.73,-52.5 1632.73,-0.5 1468.73,-0.5"/>
<text text-anchor="start" x="1476.73" y="-40.5" font-family="Helvetica,sans-Serif" font-size="10.00">/home/jenkins/agent</text>
<text text-anchor="start" x="1476.73" y="-29.5" font-family="Helvetica,sans-Serif" font-size="10.00">/workspace/ild&#45;documentation</text>
<text text-anchor="start" x="1476.73" y="-18.5" font-family="Helvetica,sans-Serif" font-size="10.00">_release_v3.5.x/sdk/c/ifxAvian</text>
<text text-anchor="middle" x="1550.73" y="-7.5" font-family="Helvetica,sans-Serif" font-size="10.00">/Avian.h</text>
</a>
</g>
</g>
<!-- Node8&#45;&gt;Node9 -->
<g id="edge9" class="edge">
<title>Node8&#45;&gt;Node9</title>
<path fill="none" stroke="midnightblue" d="M1406.78,-174.94C1436.25,-163.96 1464.87,-151.74 1476.73,-142 1484.74,-135.43 1516.38,-84.34 1535.6,-52.66"/>
<polygon fill="midnightblue" stroke="midnightblue" points="1405.39,-171.72 1397.2,-178.45 1407.8,-178.29 1405.39,-171.72"/>
</g>
<!-- Node10 -->
<g id="node10" class="node">
<title>Node10</title>
<g id="a_node10"><a xlink:href="_metrics_8h.html" target="_top" xlink:title="API for Metrics.">
<polygon fill="white" stroke="black" points="1523.73,-89.5 1523.73,-141.5 1687.73,-141.5 1687.73,-89.5 1523.73,-89.5"/>
<text text-anchor="start" x="1531.73" y="-129.5" font-family="Helvetica,sans-Serif" font-size="10.00">/home/jenkins/agent</text>
<text text-anchor="start" x="1531.73" y="-118.5" font-family="Helvetica,sans-Serif" font-size="10.00">/workspace/ild&#45;documentation</text>
<text text-anchor="start" x="1531.73" y="-107.5" font-family="Helvetica,sans-Serif" font-size="10.00">_release_v3.5.x/sdk/c/ifxAvian</text>
<text text-anchor="middle" x="1605.73" y="-96.5" font-family="Helvetica,sans-Serif" font-size="10.00">/Metrics.h</text>
</a>
</g>
</g>
<!-- Node8&#45;&gt;Node10 -->
<g id="edge10" class="edge">
<title>Node8&#45;&gt;Node10</title>
<path fill="none" stroke="midnightblue" d="M1413.4,-175.42C1449.01,-164.51 1489.47,-152.12 1524.06,-141.52"/>
<polygon fill="midnightblue" stroke="midnightblue" points="1412.03,-172.18 1403.5,-178.45 1414.08,-178.87 1412.03,-172.18"/>
</g>
<!-- Node11 -->
<g id="node11" class="node">
<title>Node11</title>
<g id="a_node11"><a xlink:href="_device_cw_8h.html" target="_top" xlink:title="Header for Continuous Wave Control.">
<polygon fill="white" stroke="black" points="1075.73,-89.5 1075.73,-141.5 1239.73,-141.5 1239.73,-89.5 1075.73,-89.5"/>
<text text-anchor="start" x="1083.73" y="-129.5" font-family="Helvetica,sans-Serif" font-size="10.00">/home/jenkins/agent</text>
<text text-anchor="start" x="1083.73" y="-118.5" font-family="Helvetica,sans-Serif" font-size="10.00">/workspace/ild&#45;documentation</text>
<text text-anchor="start" x="1083.73" y="-107.5" font-family="Helvetica,sans-Serif" font-size="10.00">_release_v3.5.x/sdk/c/ifxCw</text>
<text text-anchor="middle" x="1157.73" y="-96.5" font-family="Helvetica,sans-Serif" font-size="10.00">/DeviceCw.h</text>
</a>
</g>
</g>
<!-- Node8&#45;&gt;Node11 -->
<g id="edge12" class="edge">
<title>Node8&#45;&gt;Node11</title>
<path fill="none" stroke="midnightblue" d="M1265.44,-173.64C1245.77,-163.2 1223.92,-151.61 1205.06,-141.61"/>
<polygon fill="midnightblue" stroke="midnightblue" points="1263.82,-176.74 1274.3,-178.34 1267.1,-170.56 1263.82,-176.74"/>
</g>
<!-- Node12 -->
<g id="node12" class="node">
<title>Node12</title>
<g id="a_node12"><a xlink:href="_presence_sensing_8h.html" target="_top" xlink:title=" ">
<polygon fill="white" stroke="black" points="1257.73,-89.5 1257.73,-141.5 1467.73,-141.5 1467.73,-89.5 1257.73,-89.5"/>
<text text-anchor="start" x="1265.73" y="-129.5" font-family="Helvetica,sans-Serif" font-size="10.00">/home/jenkins/agent</text>
<text text-anchor="start" x="1265.73" y="-118.5" font-family="Helvetica,sans-Serif" font-size="10.00">/workspace/ild&#45;documentation</text>
<text text-anchor="start" x="1265.73" y="-107.5" font-family="Helvetica,sans-Serif" font-size="10.00">_release_v3.5.x/sdk/c/ifxRadarPresence</text>
<text text-anchor="middle" x="1362.73" y="-96.5" font-family="Helvetica,sans-Serif" font-size="10.00">Sensing/PresenceSensing.h</text>
</a>
</g>
</g>
<!-- Node8&#45;&gt;Node12 -->
<g id="edge13" class="edge">
<title>Node8&#45;&gt;Node12</title>
<path fill="none" stroke="midnightblue" d="M1337.96,-169.06C1342.28,-159.9 1346.87,-150.17 1350.9,-141.61"/>
<polygon fill="midnightblue" stroke="midnightblue" points="1334.69,-167.8 1333.59,-178.34 1341.02,-170.78 1334.69,-167.8"/>
</g>
<!-- Node10&#45;&gt;Node9 -->
<g id="edge11" class="edge">
<title>Node10&#45;&gt;Node9</title>
<path fill="none" stroke="midnightblue" d="M1584.33,-80.64C1578.43,-71.31 1572.13,-61.35 1566.61,-52.61"/>
<polygon fill="midnightblue" stroke="midnightblue" points="1581.52,-82.75 1589.83,-89.34 1587.44,-79.01 1581.52,-82.75"/>
</g>
<!-- Node15&#45;&gt;Node5 -->
<g id="edge18" class="edge">
<title>Node15&#45;&gt;Node5</title>
<path fill="none" stroke="midnightblue" d="M542.43,-85.86C571.65,-75.09 604.61,-62.94 632.86,-52.52"/>
<polygon fill="midnightblue" stroke="midnightblue" points="540.85,-82.71 532.68,-89.45 543.27,-89.28 540.85,-82.71"/>
</g>
<!-- Node16&#45;&gt;Node5 -->
<g id="edge20" class="edge">
<title>Node16&#45;&gt;Node5</title>
<path fill="none" stroke="midnightblue" d="M1076.05,-174.02C1069.37,-147.61 1055.59,-109.9 1028.73,-89 991.41,-59.96 868.31,-42.95 784,-34.43"/>
<polygon fill="midnightblue" stroke="midnightblue" points="1072.67,-174.94 1078.35,-183.88 1079.49,-173.35 1072.67,-174.94"/>
</g>
<!-- Node16&#45;&gt;Node17 -->
<g id="edge21" class="edge">
<title>Node16&#45;&gt;Node17</title>
<path fill="none" stroke="midnightblue" d="M1040.56,-178.8C1021.15,-167.15 998.03,-153.28 978.54,-141.58"/>
<polygon fill="midnightblue" stroke="midnightblue" points="1038.82,-181.83 1049.19,-183.98 1042.42,-175.83 1038.82,-181.83"/>
</g>
<!-- Node17&#45;&gt;Node5 -->
<g id="edge22" class="edge">
<title>Node17&#45;&gt;Node5</title>
<path fill="none" stroke="midnightblue" d="M859.04,-85.86C829.82,-75.09 796.86,-62.94 768.61,-52.52"/>
<polygon fill="midnightblue" stroke="midnightblue" points="858.2,-89.28 868.79,-89.45 860.62,-82.71 858.2,-89.28"/>
</g>
<!-- Node19 -->
<g id="node19" class="node">
<title>Node19</title>
<g id="a_node19"><a xlink:href="_radar_segmentation_8h.html" target="_top" xlink:title="Header for ifxRadarSegmentation.">
<polygon fill="white" stroke="black" points="601.73,-89.5 601.73,-141.5 835.73,-141.5 835.73,-89.5 601.73,-89.5"/>
<text text-anchor="start" x="609.73" y="-129.5" font-family="Helvetica,sans-Serif" font-size="10.00">/home/jenkins/agent</text>
<text text-anchor="start" x="609.73" y="-118.5" font-family="Helvetica,sans-Serif" font-size="10.00">/workspace/ild&#45;documentation</text>
<text text-anchor="start" x="609.73" y="-107.5" font-family="Helvetica,sans-Serif" font-size="10.00">_release_v3.5.x/sdk/c/ifxRadarSegmentation</text>
<text text-anchor="middle" x="718.73" y="-96.5" font-family="Helvetica,sans-Serif" font-size="10.00">/RadarSegmentation.h</text>
</a>
</g>
</g>
<!-- Node18&#45;&gt;Node19 -->
<g id="edge25" class="edge">
<title>Node18&#45;&gt;Node19</title>
<path fill="none" stroke="midnightblue" d="M776.12,-171.36C765.85,-161.54 754.7,-150.89 745,-141.61"/>
<polygon fill="midnightblue" stroke="midnightblue" points="773.77,-173.96 783.41,-178.34 778.6,-168.9 773.77,-173.96"/>
</g>
</g>
</svg>
