<?xml version="1.0" encoding="UTF-8" standalone="no"?>
<!DOCTYPE svg PUBLIC "-//W3C//DTD SVG 1.1//EN"
 "http://www.w3.org/Graphics/SVG/1.1/DTD/svg11.dtd">
<!-- Generated by graphviz version 2.43.0 (0)
 -->
<!-- Title: /home/jenkins/agent/workspace/ild&#45;documentation_release_v3.5.x/sdk/c/ifxMimose/DeviceMimose.h Pages: 1 -->
<svg width="498pt" height="464pt"
 viewBox="0.00 0.00 498.00 464.00" xmlns="http://www.w3.org/2000/svg" xmlns:xlink="http://www.w3.org/1999/xlink">
<g id="graph0" class="graph" transform="scale(1 1) rotate(0) translate(4 460)">
<title>/home/jenkins/agent/workspace/ild&#45;documentation_release_v3.5.x/sdk/c/ifxMimose/DeviceMimose.h</title>
<polygon fill="white" stroke="transparent" points="-4,4 -4,-460 494,-460 494,4 -4,4"/>
<!-- Node1 -->
<g id="node1" class="node">
<title>Node1</title>
<g id="a_node1"><a xlink:title="Main header file for ifxMimose.">
<polygon fill="#bfbfbf" stroke="black" points="206,-403.5 206,-455.5 382,-455.5 382,-403.5 206,-403.5"/>
<text text-anchor="start" x="214" y="-443.5" font-family="Helvetica,sans-Serif" font-size="10.00">/home/jenkins/agent</text>
<text text-anchor="start" x="214" y="-432.5" font-family="Helvetica,sans-Serif" font-size="10.00">/workspace/ild&#45;documentation</text>
<text text-anchor="start" x="214" y="-421.5" font-family="Helvetica,sans-Serif" font-size="10.00">_release_v3.5.x/sdk/c/ifxMimose</text>
<text text-anchor="middle" x="294" y="-410.5" font-family="Helvetica,sans-Serif" font-size="10.00">/DeviceMimose.h</text>
</a>
</g>
</g>
<!-- Node2 -->
<g id="node2" class="node">
<title>Node2</title>
<g id="a_node2"><a xlink:href="_device_mimose_types_8h.html" target="_top" xlink:title="Header file for Mimose types.">
<polygon fill="white" stroke="black" points="0,-291.5 0,-310.5 126,-310.5 126,-291.5 0,-291.5"/>
<text text-anchor="middle" x="63" y="-298.5" font-family="Helvetica,sans-Serif" font-size="10.00">DeviceMimoseTypes.h</text>
</a>
</g>
</g>
<!-- Node1&#45;&gt;Node2 -->
<g id="edge1" class="edge">
<title>Node1&#45;&gt;Node2</title>
<path fill="none" stroke="midnightblue" d="M248.09,-403.36C199.81,-376.92 125.68,-336.32 87.54,-315.44"/>
<polygon fill="midnightblue" stroke="midnightblue" points="89.1,-312.31 78.65,-310.57 85.74,-318.44 89.1,-312.31"/>
</g>
<!-- Node7 -->
<g id="node7" class="node">
<title>Node7</title>
<g id="a_node7"><a xlink:href="_cube_8h.html" target="_top" xlink:title="API for operations on Cube data structures.">
<polygon fill="white" stroke="black" points="211,-347.5 211,-366.5 301,-366.5 301,-347.5 211,-347.5"/>
<text text-anchor="middle" x="256" y="-354.5" font-family="Helvetica,sans-Serif" font-size="10.00">ifxBase/Cube.h</text>
</a>
</g>
</g>
<!-- Node1&#45;&gt;Node7 -->
<g id="edge6" class="edge">
<title>Node1&#45;&gt;Node7</title>
<path fill="none" stroke="midnightblue" d="M280.5,-403.45C275.53,-394.23 270.01,-384 265.47,-375.58"/>
<polygon fill="midnightblue" stroke="midnightblue" points="268.51,-373.84 260.69,-366.7 262.35,-377.16 268.51,-373.84"/>
</g>
<!-- Node14 -->
<g id="node14" class="node">
<title>Node14</title>
<g id="a_node14"><a xlink:href="_list_8h.html" target="_top" xlink:title=" ">
<polygon fill="white" stroke="black" points="314.5,-179.5 314.5,-198.5 397.5,-198.5 397.5,-179.5 314.5,-179.5"/>
<text text-anchor="middle" x="356" y="-186.5" font-family="Helvetica,sans-Serif" font-size="10.00">ifxBase/List.h</text>
</a>
</g>
</g>
<!-- Node1&#45;&gt;Node14 -->
<g id="edge20" class="edge">
<title>Node1&#45;&gt;Node14</title>
<path fill="none" stroke="midnightblue" d="M300.54,-403.37C303.44,-392.23 306.89,-378.96 310,-367 325.01,-309.28 342.76,-240.96 351.15,-208.68"/>
<polygon fill="midnightblue" stroke="midnightblue" points="354.58,-209.4 353.7,-198.84 347.8,-207.64 354.58,-209.4"/>
</g>
<!-- Node15 -->
<g id="node15" class="node">
<title>Node15</title>
<g id="a_node15"><a xlink:href="_radar_device_common_8h.html" target="_top" xlink:title="Header for ifxRadarDeviceCommon.">
<polygon fill="white" stroke="black" points="354,-112.5 354,-142.5 490,-142.5 490,-112.5 354,-112.5"/>
<text text-anchor="start" x="362" y="-130.5" font-family="Helvetica,sans-Serif" font-size="10.00">ifxRadarDeviceCommon</text>
<text text-anchor="middle" x="422" y="-119.5" font-family="Helvetica,sans-Serif" font-size="10.00">/RadarDeviceCommon.h</text>
</a>
</g>
</g>
<!-- Node1&#45;&gt;Node15 -->
<g id="edge22" class="edge">
<title>Node1&#45;&gt;Node15</title>
<path fill="none" stroke="midnightblue" d="M347.69,-403.29C384.23,-382.02 426,-347.71 426,-302 426,-302 426,-302 426,-244 426,-212.48 424.49,-176.14 423.33,-152.77"/>
<polygon fill="midnightblue" stroke="midnightblue" points="426.82,-152.53 422.81,-142.72 419.83,-152.89 426.82,-152.53"/>
</g>
<!-- Node3 -->
<g id="node3" class="node">
<title>Node3</title>
<g id="a_node3"><a xlink:href="_types_8h.html" target="_top" xlink:title="Definitions of data types used within the SDK.">
<polygon fill="white" stroke="black" points="142.5,-56.5 142.5,-75.5 235.5,-75.5 235.5,-56.5 142.5,-56.5"/>
<text text-anchor="middle" x="189" y="-63.5" font-family="Helvetica,sans-Serif" font-size="10.00">ifxBase/Types.h</text>
</a>
</g>
</g>
<!-- Node2&#45;&gt;Node3 -->
<g id="edge2" class="edge">
<title>Node2&#45;&gt;Node3</title>
<path fill="none" stroke="midnightblue" d="M64.29,-291.31C68.83,-263.02 86.27,-171.88 130,-112 139.14,-99.48 152.72,-88.79 164.55,-80.97"/>
<polygon fill="midnightblue" stroke="midnightblue" points="166.55,-83.85 173.16,-75.57 162.83,-77.93 166.55,-83.85"/>
</g>
<!-- Node4 -->
<g id="node4" class="node">
<title>Node4</title>
<g id="a_node4"><a xlink:title=" ">
<polygon fill="white" stroke="#bfbfbf" points="81,-0.5 81,-19.5 143,-19.5 143,-0.5 81,-0.5"/>
<text text-anchor="middle" x="112" y="-7.5" font-family="Helvetica,sans-Serif" font-size="10.00">stdbool.h</text>
</a>
</g>
</g>
<!-- Node3&#45;&gt;Node4 -->
<g id="edge3" class="edge">
<title>Node3&#45;&gt;Node4</title>
<path fill="none" stroke="midnightblue" d="M176.63,-56.32C164.84,-48.06 146.87,-35.45 132.86,-25.63"/>
<polygon fill="midnightblue" stroke="midnightblue" points="134.54,-22.53 124.34,-19.65 130.52,-28.26 134.54,-22.53"/>
</g>
<!-- Node5 -->
<g id="node5" class="node">
<title>Node5</title>
<g id="a_node5"><a xlink:title=" ">
<polygon fill="white" stroke="#bfbfbf" points="161,-0.5 161,-19.5 217,-19.5 217,-0.5 161,-0.5"/>
<text text-anchor="middle" x="189" y="-7.5" font-family="Helvetica,sans-Serif" font-size="10.00">stddef.h</text>
</a>
</g>
</g>
<!-- Node3&#45;&gt;Node5 -->
<g id="edge4" class="edge">
<title>Node3&#45;&gt;Node5</title>
<path fill="none" stroke="midnightblue" d="M189,-56.08C189,-49.01 189,-38.86 189,-29.99"/>
<polygon fill="midnightblue" stroke="midnightblue" points="192.5,-29.75 189,-19.75 185.5,-29.75 192.5,-29.75"/>
</g>
<!-- Node6 -->
<g id="node6" class="node">
<title>Node6</title>
<g id="a_node6"><a xlink:title=" ">
<polygon fill="white" stroke="#bfbfbf" points="235.5,-0.5 235.5,-19.5 288.5,-19.5 288.5,-0.5 235.5,-0.5"/>
<text text-anchor="middle" x="262" y="-7.5" font-family="Helvetica,sans-Serif" font-size="10.00">stdint.h</text>
</a>
</g>
</g>
<!-- Node3&#45;&gt;Node6 -->
<g id="edge5" class="edge">
<title>Node3&#45;&gt;Node6</title>
<path fill="none" stroke="midnightblue" d="M200.73,-56.32C211.84,-48.11 228.74,-35.6 241.98,-25.81"/>
<polygon fill="midnightblue" stroke="midnightblue" points="244.1,-28.59 250.06,-19.83 239.94,-22.97 244.1,-28.59"/>
</g>
<!-- Node8 -->
<g id="node8" class="node">
<title>Node8</title>
<g id="a_node8"><a xlink:href="_defines_8h.html" target="_top" xlink:title="Internal definitions used by standard math.h functions as Macros, to use float or double precision.">
<polygon fill="white" stroke="black" points="152,-291.5 152,-310.5 214,-310.5 214,-291.5 152,-291.5"/>
<text text-anchor="middle" x="183" y="-298.5" font-family="Helvetica,sans-Serif" font-size="10.00">Defines.h</text>
</a>
</g>
</g>
<!-- Node7&#45;&gt;Node8 -->
<g id="edge7" class="edge">
<title>Node7&#45;&gt;Node8</title>
<path fill="none" stroke="midnightblue" d="M244.27,-347.32C233.16,-339.11 216.26,-326.6 203.02,-316.81"/>
<polygon fill="midnightblue" stroke="midnightblue" points="205.06,-313.97 194.94,-310.83 200.9,-319.59 205.06,-313.97"/>
</g>
<!-- Node11 -->
<g id="node11" class="node">
<title>Node11</title>
<g id="a_node11"><a xlink:href="_mda_8h.html" target="_top" xlink:title="API for multi&#45;dimensional arrays.">
<polygon fill="white" stroke="black" points="238.5,-118 238.5,-137 285.5,-137 285.5,-118 238.5,-118"/>
<text text-anchor="middle" x="262" y="-125" font-family="Helvetica,sans-Serif" font-size="10.00">Mda.h</text>
</a>
</g>
</g>
<!-- Node7&#45;&gt;Node11 -->
<g id="edge19" class="edge">
<title>Node7&#45;&gt;Node11</title>
<path fill="none" stroke="midnightblue" d="M257.03,-347.37C259.05,-329.95 263.48,-289.29 265,-255 266.7,-216.73 264.69,-171.9 263.24,-147.21"/>
<polygon fill="midnightblue" stroke="midnightblue" points="266.72,-146.86 262.61,-137.09 259.74,-147.29 266.72,-146.86"/>
</g>
<!-- Node13 -->
<g id="node13" class="node">
<title>Node13</title>
<g id="a_node13"><a xlink:href="_matrix_8h.html" target="_top" xlink:title="API for operations on Matrix data structures.">
<polygon fill="white" stroke="black" points="199.5,-235.5 199.5,-254.5 256.5,-254.5 256.5,-235.5 199.5,-235.5"/>
<text text-anchor="middle" x="228" y="-242.5" font-family="Helvetica,sans-Serif" font-size="10.00">Matrix.h</text>
</a>
</g>
</g>
<!-- Node7&#45;&gt;Node13 -->
<g id="edge15" class="edge">
<title>Node7&#45;&gt;Node13</title>
<path fill="none" stroke="midnightblue" d="M253.8,-347.37C249.28,-329.62 238.86,-288.67 232.73,-264.6"/>
<polygon fill="midnightblue" stroke="midnightblue" points="236.05,-263.42 230.19,-254.59 229.26,-265.15 236.05,-263.42"/>
</g>
<!-- Node9 -->
<g id="node9" class="node">
<title>Node9</title>
<g id="a_node9"><a xlink:href="_math_8h.html" target="_top" xlink:title="API for Mathematical operations.">
<polygon fill="white" stroke="black" points="128.5,-235.5 128.5,-254.5 179.5,-254.5 179.5,-235.5 128.5,-235.5"/>
<text text-anchor="middle" x="154" y="-242.5" font-family="Helvetica,sans-Serif" font-size="10.00">math.h</text>
</a>
</g>
</g>
<!-- Node8&#45;&gt;Node9 -->
<g id="edge8" class="edge">
<title>Node8&#45;&gt;Node9</title>
<path fill="none" stroke="midnightblue" d="M178.21,-291.08C174.24,-283.69 168.47,-272.95 163.57,-263.81"/>
<polygon fill="midnightblue" stroke="midnightblue" points="166.51,-261.91 158.7,-254.75 160.35,-265.22 166.51,-261.91"/>
</g>
<!-- Node9&#45;&gt;Node3 -->
<g id="edge9" class="edge">
<title>Node9&#45;&gt;Node3</title>
<path fill="none" stroke="midnightblue" d="M143.56,-235.24C134.58,-226.97 122.25,-213.66 117,-199 114,-190.63 114.5,-187.53 117,-179 128.11,-141.16 156.4,-104.01 174.03,-83.43"/>
<polygon fill="midnightblue" stroke="midnightblue" points="176.87,-85.5 180.85,-75.68 171.61,-80.88 176.87,-85.5"/>
</g>
<!-- Node10 -->
<g id="node10" class="node">
<title>Node10</title>
<g id="a_node10"><a xlink:href="_vector_8h.html" target="_top" xlink:title="API for operations on Vector data structures.">
<polygon fill="white" stroke="black" points="126,-179.5 126,-198.5 182,-198.5 182,-179.5 126,-179.5"/>
<text text-anchor="middle" x="154" y="-186.5" font-family="Helvetica,sans-Serif" font-size="10.00">Vector.h</text>
</a>
</g>
</g>
<!-- Node9&#45;&gt;Node10 -->
<g id="edge10" class="edge">
<title>Node9&#45;&gt;Node10</title>
<path fill="none" stroke="midnightblue" d="M154,-235.08C154,-228.01 154,-217.86 154,-208.99"/>
<polygon fill="midnightblue" stroke="midnightblue" points="157.5,-208.75 154,-198.75 150.5,-208.75 157.5,-208.75"/>
</g>
<!-- Node10&#45;&gt;Node3 -->
<g id="edge14" class="edge">
<title>Node10&#45;&gt;Node3</title>
<path fill="none" stroke="midnightblue" d="M156.52,-179.3C162.17,-159.76 175.96,-112.06 183.64,-85.55"/>
<polygon fill="midnightblue" stroke="midnightblue" points="187.09,-86.2 186.51,-75.62 180.36,-84.26 187.09,-86.2"/>
</g>
<!-- Node10&#45;&gt;Node11 -->
<g id="edge11" class="edge">
<title>Node10&#45;&gt;Node11</title>
<path fill="none" stroke="midnightblue" d="M169.47,-179.48C187.28,-169.67 216.74,-153.43 237.63,-141.92"/>
<polygon fill="midnightblue" stroke="midnightblue" points="239.49,-144.9 246.55,-137.01 236.11,-138.77 239.49,-144.9"/>
</g>
<!-- Node11&#45;&gt;Node3 -->
<g id="edge12" class="edge">
<title>Node11&#45;&gt;Node3</title>
<path fill="none" stroke="midnightblue" d="M251.54,-117.98C240.05,-108.61 221.37,-93.38 207.41,-82.01"/>
<polygon fill="midnightblue" stroke="midnightblue" points="209.4,-79.11 199.44,-75.51 204.98,-84.54 209.4,-79.11"/>
</g>
<!-- Node12 -->
<g id="node12" class="node">
<title>Node12</title>
<g id="a_node12"><a xlink:title=" ">
<polygon fill="white" stroke="#bfbfbf" points="254,-56.5 254,-75.5 310,-75.5 310,-56.5 254,-56.5"/>
<text text-anchor="middle" x="282" y="-63.5" font-family="Helvetica,sans-Serif" font-size="10.00">assert.h</text>
</a>
</g>
</g>
<!-- Node11&#45;&gt;Node12 -->
<g id="edge13" class="edge">
<title>Node11&#45;&gt;Node12</title>
<path fill="none" stroke="midnightblue" d="M264.87,-117.98C267.72,-109.49 272.18,-96.2 275.84,-85.32"/>
<polygon fill="midnightblue" stroke="midnightblue" points="279.27,-86.1 279.14,-75.51 272.64,-83.87 279.27,-86.1"/>
</g>
<!-- Node13&#45;&gt;Node3 -->
<g id="edge17" class="edge">
<title>Node13&#45;&gt;Node3</title>
<path fill="none" stroke="midnightblue" d="M226.12,-235.46C220.16,-208.43 201.61,-124.24 193.21,-86.11"/>
<polygon fill="midnightblue" stroke="midnightblue" points="196.52,-84.88 190.95,-75.87 189.69,-86.39 196.52,-84.88"/>
</g>
<!-- Node13&#45;&gt;Node10 -->
<g id="edge18" class="edge">
<title>Node13&#45;&gt;Node10</title>
<path fill="none" stroke="midnightblue" d="M216.11,-235.32C204.85,-227.11 187.71,-214.6 174.29,-204.81"/>
<polygon fill="midnightblue" stroke="midnightblue" points="176.25,-201.9 166.11,-198.83 172.12,-207.56 176.25,-201.9"/>
</g>
<!-- Node13&#45;&gt;Node11 -->
<g id="edge16" class="edge">
<title>Node13&#45;&gt;Node11</title>
<path fill="none" stroke="midnightblue" d="M230.56,-235.32C236.04,-216.67 249.06,-172.44 256.52,-147.13"/>
<polygon fill="midnightblue" stroke="midnightblue" points="259.95,-147.86 259.41,-137.28 253.23,-145.89 259.95,-147.86"/>
</g>
<!-- Node14&#45;&gt;Node3 -->
<g id="edge21" class="edge">
<title>Node14&#45;&gt;Node3</title>
<path fill="none" stroke="midnightblue" d="M350.91,-179.33C341.48,-163.9 319.84,-131.47 294,-112 274.45,-97.27 249.33,-86.28 228.57,-78.85"/>
<polygon fill="midnightblue" stroke="midnightblue" points="229.67,-75.53 219.07,-75.59 227.39,-82.15 229.67,-75.53"/>
</g>
<!-- Node15&#45;&gt;Node3 -->
<g id="edge23" class="edge">
<title>Node15&#45;&gt;Node3</title>
<path fill="none" stroke="midnightblue" d="M367.08,-112.47C325.83,-101.94 270.12,-87.72 232.07,-78"/>
<polygon fill="midnightblue" stroke="midnightblue" points="232.87,-74.59 222.31,-75.51 231.13,-81.37 232.87,-74.59"/>
</g>
</g>
</svg>
