<?xml version="1.0" encoding="UTF-8" standalone="no"?>
<!DOCTYPE svg PUBLIC "-//W3C//DTD SVG 1.1//EN"
 "http://www.w3.org/Graphics/SVG/1.1/DTD/svg11.dtd">
<!-- Generated by graphviz version 2.43.0 (0)
 -->
<!-- Title: /home/jenkins/agent/workspace/ild&#45;documentation_release_v3.5.x/sdk/c/ifxBase/Matrix.h Pages: 1 -->
<svg width="2284pt" height="417pt"
 viewBox="0.00 0.00 2284.00 417.00" xmlns="http://www.w3.org/2000/svg" xmlns:xlink="http://www.w3.org/1999/xlink">
<g id="graph0" class="graph" transform="scale(1 1) rotate(0) translate(4 413)">
<title>/home/jenkins/agent/workspace/ild&#45;documentation_release_v3.5.x/sdk/c/ifxBase/Matrix.h</title>
<polygon fill="white" stroke="transparent" points="-4,4 -4,-413 2280,-413 2280,4 -4,4"/>
<!-- Node1 -->
<g id="node1" class="node">
<title>Node1</title>
<g id="a_node1"><a xlink:title="API for operations on Matrix data structures.">
<polygon fill="#bfbfbf" stroke="black" points="735,-356.5 735,-408.5 899,-408.5 899,-356.5 735,-356.5"/>
<text text-anchor="start" x="743" y="-396.5" font-family="Helvetica,sans-Serif" font-size="10.00">/home/jenkins/agent</text>
<text text-anchor="start" x="743" y="-385.5" font-family="Helvetica,sans-Serif" font-size="10.00">/workspace/ild&#45;documentation</text>
<text text-anchor="start" x="743" y="-374.5" font-family="Helvetica,sans-Serif" font-size="10.00">_release_v3.5.x/sdk/c/ifxBase</text>
<text text-anchor="middle" x="817" y="-363.5" font-family="Helvetica,sans-Serif" font-size="10.00">/Matrix.h</text>
</a>
</g>
</g>
<!-- Node2 -->
<g id="node2" class="node">
<title>Node2</title>
<g id="a_node2"><a xlink:href="2_d_m_t_i_8h.html" target="_top" xlink:title="API for 2D Moving Target Indicator filter (2DMTI)">
<polygon fill="white" stroke="black" points="0,-267.5 0,-319.5 164,-319.5 164,-267.5 0,-267.5"/>
<text text-anchor="start" x="8" y="-307.5" font-family="Helvetica,sans-Serif" font-size="10.00">/home/jenkins/agent</text>
<text text-anchor="start" x="8" y="-296.5" font-family="Helvetica,sans-Serif" font-size="10.00">/workspace/ild&#45;documentation</text>
<text text-anchor="start" x="8" y="-285.5" font-family="Helvetica,sans-Serif" font-size="10.00">_release_v3.5.x/sdk/c/ifxAlgo</text>
<text text-anchor="middle" x="82" y="-274.5" font-family="Helvetica,sans-Serif" font-size="10.00">/2DMTI.h</text>
</a>
</g>
</g>
<!-- Node1&#45;&gt;Node2 -->
<g id="edge1" class="edge">
<title>Node1&#45;&gt;Node2</title>
<path fill="none" stroke="midnightblue" d="M724.42,-377.84C598.66,-371.69 367.25,-356.19 173,-320 170.1,-319.46 167.15,-318.87 164.19,-318.24"/>
<polygon fill="midnightblue" stroke="midnightblue" points="724.61,-381.35 734.77,-378.33 724.95,-374.36 724.61,-381.35"/>
</g>
<!-- Node4 -->
<g id="node4" class="node">
<title>Node4</title>
<g id="a_node4"><a xlink:href="_o_s_c_f_a_r_8h.html" target="_top" xlink:title="API for 2D ordered statistic constant false alarm rate (OS&#45;CFAR) algorithm.">
<polygon fill="white" stroke="black" points="182,-267.5 182,-319.5 346,-319.5 346,-267.5 182,-267.5"/>
<text text-anchor="start" x="190" y="-307.5" font-family="Helvetica,sans-Serif" font-size="10.00">/home/jenkins/agent</text>
<text text-anchor="start" x="190" y="-296.5" font-family="Helvetica,sans-Serif" font-size="10.00">/workspace/ild&#45;documentation</text>
<text text-anchor="start" x="190" y="-285.5" font-family="Helvetica,sans-Serif" font-size="10.00">_release_v3.5.x/sdk/c/ifxAlgo</text>
<text text-anchor="middle" x="264" y="-274.5" font-family="Helvetica,sans-Serif" font-size="10.00">/OSCFAR.h</text>
</a>
</g>
</g>
<!-- Node1&#45;&gt;Node4 -->
<g id="edge3" class="edge">
<title>Node1&#45;&gt;Node4</title>
<path fill="none" stroke="midnightblue" d="M724.61,-373.07C630.88,-363.61 481.94,-346.1 355,-320 352.11,-319.41 349.17,-318.77 346.21,-318.1"/>
<polygon fill="midnightblue" stroke="midnightblue" points="724.33,-376.56 734.63,-374.07 725.03,-369.59 724.33,-376.56"/>
</g>
<!-- Node5 -->
<g id="node5" class="node">
<title>Node5</title>
<g id="a_node5"><a xlink:href="_signal_8h.html" target="_top" xlink:title="API for digital filtering operations.">
<polygon fill="white" stroke="black" points="364,-267.5 364,-319.5 528,-319.5 528,-267.5 364,-267.5"/>
<text text-anchor="start" x="372" y="-307.5" font-family="Helvetica,sans-Serif" font-size="10.00">/home/jenkins/agent</text>
<text text-anchor="start" x="372" y="-296.5" font-family="Helvetica,sans-Serif" font-size="10.00">/workspace/ild&#45;documentation</text>
<text text-anchor="start" x="372" y="-285.5" font-family="Helvetica,sans-Serif" font-size="10.00">_release_v3.5.x/sdk/c/ifxAlgo</text>
<text text-anchor="middle" x="446" y="-274.5" font-family="Helvetica,sans-Serif" font-size="10.00">/Signal.h</text>
</a>
</g>
</g>
<!-- Node1&#45;&gt;Node5 -->
<g id="edge5" class="edge">
<title>Node1&#45;&gt;Node5</title>
<path fill="none" stroke="midnightblue" d="M725.16,-361.91C671.61,-350.26 602.84,-334.88 542,-320 537.48,-318.89 532.84,-317.74 528.16,-316.55"/>
<polygon fill="midnightblue" stroke="midnightblue" points="724.46,-365.34 734.98,-364.05 725.95,-358.5 724.46,-365.34"/>
</g>
<!-- Node6 -->
<g id="node6" class="node">
<title>Node6</title>
<g id="a_node6"><a xlink:href="_base_8h.html" target="_top" xlink:title="Header for ifxBase.">
<polygon fill="white" stroke="black" points="478.5,-184 478.5,-225 675.5,-225 675.5,-184 478.5,-184"/>
<text text-anchor="start" x="486.5" y="-213" font-family="Helvetica,sans-Serif" font-size="10.00">/home/jenkins/agent</text>
<text text-anchor="start" x="486.5" y="-202" font-family="Helvetica,sans-Serif" font-size="10.00">/workspace/ild&#45;documentation</text>
<text text-anchor="middle" x="577" y="-191" font-family="Helvetica,sans-Serif" font-size="10.00">_release_v3.5.x/sdk/c/ifxBase/Base.h</text>
</a>
</g>
</g>
<!-- Node1&#45;&gt;Node6 -->
<g id="edge7" class="edge">
<title>Node1&#45;&gt;Node6</title>
<path fill="none" stroke="midnightblue" d="M725,-369.91C664.69,-360.2 593.69,-344.03 575,-320 553.89,-292.85 562.22,-250.1 569.85,-225.24"/>
<polygon fill="midnightblue" stroke="midnightblue" points="724.54,-373.38 734.96,-371.47 725.62,-366.46 724.54,-373.38"/>
</g>
<!-- Node7 -->
<g id="node7" class="node">
<title>Node7</title>
<g id="a_node7"><a xlink:href="_cube_8h.html" target="_top" xlink:title="API for operations on Cube data structures.">
<polygon fill="white" stroke="black" points="1081,-273 1081,-314 1279,-314 1279,-273 1081,-273"/>
<text text-anchor="start" x="1089" y="-302" font-family="Helvetica,sans-Serif" font-size="10.00">/home/jenkins/agent</text>
<text text-anchor="start" x="1089" y="-291" font-family="Helvetica,sans-Serif" font-size="10.00">/workspace/ild&#45;documentation</text>
<text text-anchor="middle" x="1180" y="-280" font-family="Helvetica,sans-Serif" font-size="10.00">_release_v3.5.x/sdk/c/ifxBase/Cube.h</text>
</a>
</g>
</g>
<!-- Node1&#45;&gt;Node7 -->
<g id="edge8" class="edge">
<title>Node1&#45;&gt;Node7</title>
<path fill="none" stroke="midnightblue" d="M909.33,-359.37C967.7,-345.38 1042.43,-327.47 1098.58,-314.01"/>
<polygon fill="midnightblue" stroke="midnightblue" points="908.28,-356.02 899.37,-361.76 909.91,-362.83 908.28,-356.02"/>
</g>
<!-- Node12 -->
<g id="node12" class="node">
<title>Node12</title>
<g id="a_node12"><a xlink:href="_presence_sensing_8h.html" target="_top" xlink:title=" ">
<polygon fill="white" stroke="black" points="1733,-89.5 1733,-141.5 1943,-141.5 1943,-89.5 1733,-89.5"/>
<text text-anchor="start" x="1741" y="-129.5" font-family="Helvetica,sans-Serif" font-size="10.00">/home/jenkins/agent</text>
<text text-anchor="start" x="1741" y="-118.5" font-family="Helvetica,sans-Serif" font-size="10.00">/workspace/ild&#45;documentation</text>
<text text-anchor="start" x="1741" y="-107.5" font-family="Helvetica,sans-Serif" font-size="10.00">_release_v3.5.x/sdk/c/ifxRadarPresence</text>
<text text-anchor="middle" x="1838" y="-96.5" font-family="Helvetica,sans-Serif" font-size="10.00">Sensing/PresenceSensing.h</text>
</a>
</g>
</g>
<!-- Node1&#45;&gt;Node12 -->
<g id="edge36" class="edge">
<title>Node1&#45;&gt;Node12</title>
<path fill="none" stroke="midnightblue" d="M909.13,-376.81C1174.42,-362.35 1925.57,-314.33 1995,-231 2010.08,-212.9 2008.28,-197.46 1995,-178 1982.46,-159.62 1963.53,-146.74 1943.11,-137.7"/>
<polygon fill="midnightblue" stroke="midnightblue" points="908.94,-373.32 899.14,-377.35 909.32,-380.31 908.94,-373.32"/>
</g>
<!-- Node19 -->
<g id="node19" class="node">
<title>Node19</title>
<g id="a_node19"><a xlink:href="_segmentation_8h.html" target="_top" xlink:title="API for Segmentation and Seamless Tracking algorithm.">
<polygon fill="white" stroke="black" points="2042,-178.5 2042,-230.5 2276,-230.5 2276,-178.5 2042,-178.5"/>
<text text-anchor="start" x="2050" y="-218.5" font-family="Helvetica,sans-Serif" font-size="10.00">/home/jenkins/agent</text>
<text text-anchor="start" x="2050" y="-207.5" font-family="Helvetica,sans-Serif" font-size="10.00">/workspace/ild&#45;documentation</text>
<text text-anchor="start" x="2050" y="-196.5" font-family="Helvetica,sans-Serif" font-size="10.00">_release_v3.5.x/sdk/c/ifxRadarSegmentation</text>
<text text-anchor="middle" x="2159" y="-185.5" font-family="Helvetica,sans-Serif" font-size="10.00">/Segmentation.h</text>
</a>
</g>
</g>
<!-- Node1&#45;&gt;Node19 -->
<g id="edge37" class="edge">
<title>Node1&#45;&gt;Node19</title>
<path fill="none" stroke="midnightblue" d="M909.6,-380.28C1174.92,-376.31 1925.46,-361.49 2028,-320 2074.76,-301.08 2116.26,-258.12 2139.46,-230.53"/>
<polygon fill="midnightblue" stroke="midnightblue" points="909.17,-376.79 899.23,-380.44 909.28,-383.79 909.17,-376.79"/>
</g>
<!-- Node21 -->
<g id="node21" class="node">
<title>Node21</title>
<g id="a_node21"><a xlink:href="_util_8h.html" target="_top" xlink:title="This file defines some utility functions like printing to, reading from files or printing to console.">
<polygon fill="white" stroke="black" points="1802,-184 1802,-225 1986,-225 1986,-184 1802,-184"/>
<text text-anchor="start" x="1810" y="-213" font-family="Helvetica,sans-Serif" font-size="10.00">/home/jenkins/agent</text>
<text text-anchor="start" x="1810" y="-202" font-family="Helvetica,sans-Serif" font-size="10.00">/workspace/ild&#45;documentation</text>
<text text-anchor="middle" x="1894" y="-191" font-family="Helvetica,sans-Serif" font-size="10.00">_release_v3.5.x/sdk/c/ifxUtil/Util.h</text>
</a>
</g>
</g>
<!-- Node1&#45;&gt;Node21 -->
<g id="edge38" class="edge">
<title>Node1&#45;&gt;Node21</title>
<path fill="none" stroke="midnightblue" d="M909.24,-378.09C1027.84,-372.25 1225.95,-357.14 1288,-320 1312.87,-305.12 1300.74,-281.22 1326,-267 1416.7,-215.93 1690.28,-247.8 1793,-231 1802.82,-229.39 1813.08,-227.3 1823.14,-225.01"/>
<polygon fill="midnightblue" stroke="midnightblue" points="908.89,-374.61 899.07,-378.58 909.23,-381.6 908.89,-374.61"/>
</g>
<!-- Node22 -->
<g id="node22" class="node">
<title>Node22</title>
<g id="a_node22"><a xlink:href="_l_a_8h.html" target="_top" xlink:title="API for Linear Algebra (LA)">
<polygon fill="white" stroke="black" points="584,-273 584,-314 770,-314 770,-273 584,-273"/>
<text text-anchor="start" x="592" y="-302" font-family="Helvetica,sans-Serif" font-size="10.00">/home/jenkins/agent</text>
<text text-anchor="start" x="592" y="-291" font-family="Helvetica,sans-Serif" font-size="10.00">/workspace/ild&#45;documentation</text>
<text text-anchor="middle" x="677" y="-280" font-family="Helvetica,sans-Serif" font-size="10.00">_release_v3.5.x/sdk/c/ifxBase/LA.h</text>
</a>
</g>
</g>
<!-- Node1&#45;&gt;Node22 -->
<g id="edge28" class="edge">
<title>Node1&#45;&gt;Node22</title>
<path fill="none" stroke="midnightblue" d="M767.93,-351.01C748.2,-338.74 726.02,-324.96 708.51,-314.08"/>
<polygon fill="midnightblue" stroke="midnightblue" points="766.17,-354.03 776.51,-356.34 769.86,-348.09 766.17,-354.03"/>
</g>
<!-- Node23 -->
<g id="node23" class="node">
<title>Node23</title>
<g id="a_node23"><a xlink:href="_doppler_spectrogram_8h.html" target="_top" xlink:title=" ">
<polygon fill="white" stroke="black" points="1335,-267.5 1335,-319.5 1501,-319.5 1501,-267.5 1335,-267.5"/>
<text text-anchor="start" x="1343" y="-307.5" font-family="Helvetica,sans-Serif" font-size="10.00">/home/jenkins/agent</text>
<text text-anchor="start" x="1343" y="-296.5" font-family="Helvetica,sans-Serif" font-size="10.00">/workspace/ild&#45;documentation</text>
<text text-anchor="start" x="1343" y="-285.5" font-family="Helvetica,sans-Serif" font-size="10.00">_release_v3.5.x/sdk/c/ifxRadar</text>
<text text-anchor="middle" x="1418" y="-274.5" font-family="Helvetica,sans-Serif" font-size="10.00">/DopplerSpectrogram.h</text>
</a>
</g>
</g>
<!-- Node1&#45;&gt;Node23 -->
<g id="edge30" class="edge">
<title>Node1&#45;&gt;Node23</title>
<path fill="none" stroke="midnightblue" d="M909.37,-374.02C1010.89,-364.91 1178.5,-347.29 1321,-320 1325.53,-319.13 1330.16,-318.17 1334.83,-317.14"/>
<polygon fill="midnightblue" stroke="midnightblue" points="908.8,-370.55 899.15,-374.92 909.42,-377.53 908.8,-370.55"/>
</g>
<!-- Node24 -->
<g id="node24" class="node">
<title>Node24</title>
<g id="a_node24"><a xlink:href="_range_doppler_map_8h.html" target="_top" xlink:title="API for Doppler Spectrogram.">
<polygon fill="white" stroke="black" points="732,-178.5 732,-230.5 898,-230.5 898,-178.5 732,-178.5"/>
<text text-anchor="start" x="740" y="-218.5" font-family="Helvetica,sans-Serif" font-size="10.00">/home/jenkins/agent</text>
<text text-anchor="start" x="740" y="-207.5" font-family="Helvetica,sans-Serif" font-size="10.00">/workspace/ild&#45;documentation</text>
<text text-anchor="start" x="740" y="-196.5" font-family="Helvetica,sans-Serif" font-size="10.00">_release_v3.5.x/sdk/c/ifxRadar</text>
<text text-anchor="middle" x="815" y="-185.5" font-family="Helvetica,sans-Serif" font-size="10.00">/RangeDopplerMap.h</text>
</a>
</g>
</g>
<!-- Node1&#45;&gt;Node24 -->
<g id="edge31" class="edge">
<title>Node1&#45;&gt;Node24</title>
<path fill="none" stroke="midnightblue" d="M816.6,-346.25C816.21,-312.04 815.63,-260.97 815.29,-230.67"/>
<polygon fill="midnightblue" stroke="midnightblue" points="813.1,-346.32 816.71,-356.28 820.1,-346.24 813.1,-346.32"/>
</g>
<!-- Node25 -->
<g id="node25" class="node">
<title>Node25</title>
<g id="a_node25"><a xlink:href="_range_spectrum_8h.html" target="_top" xlink:title="API for Range Spectrum.">
<polygon fill="white" stroke="black" points="621,-89.5 621,-141.5 787,-141.5 787,-89.5 621,-89.5"/>
<text text-anchor="start" x="629" y="-129.5" font-family="Helvetica,sans-Serif" font-size="10.00">/home/jenkins/agent</text>
<text text-anchor="start" x="629" y="-118.5" font-family="Helvetica,sans-Serif" font-size="10.00">/workspace/ild&#45;documentation</text>
<text text-anchor="start" x="629" y="-107.5" font-family="Helvetica,sans-Serif" font-size="10.00">_release_v3.5.x/sdk/c/ifxRadar</text>
<text text-anchor="middle" x="704" y="-96.5" font-family="Helvetica,sans-Serif" font-size="10.00">/RangeSpectrum.h</text>
</a>
</g>
</g>
<!-- Node1&#45;&gt;Node25 -->
<g id="edge34" class="edge">
<title>Node1&#45;&gt;Node25</title>
<path fill="none" stroke="midnightblue" d="M811.74,-346.55C806.66,-322.24 796.98,-290.17 779,-267 760.86,-243.62 739.26,-255.72 723,-231 705.39,-204.23 702.33,-166.55 702.53,-141.83"/>
<polygon fill="midnightblue" stroke="midnightblue" points="808.31,-347.28 813.64,-356.44 815.19,-345.96 808.31,-347.28"/>
</g>
<!-- Node3 -->
<g id="node3" class="node">
<title>Node3</title>
<g id="a_node3"><a xlink:href="_algo_8h.html" target="_top" xlink:title="Header for ifxAlgo.">
<polygon fill="white" stroke="black" points="167.5,-184 167.5,-225 360.5,-225 360.5,-184 167.5,-184"/>
<text text-anchor="start" x="175.5" y="-213" font-family="Helvetica,sans-Serif" font-size="10.00">/home/jenkins/agent</text>
<text text-anchor="start" x="175.5" y="-202" font-family="Helvetica,sans-Serif" font-size="10.00">/workspace/ild&#45;documentation</text>
<text text-anchor="middle" x="264" y="-191" font-family="Helvetica,sans-Serif" font-size="10.00">_release_v3.5.x/sdk/c/ifxAlgo/Algo.h</text>
</a>
</g>
</g>
<!-- Node2&#45;&gt;Node3 -->
<g id="edge2" class="edge">
<title>Node2&#45;&gt;Node3</title>
<path fill="none" stroke="midnightblue" d="M143.73,-262.99C169.89,-250.49 199.66,-236.26 223.04,-225.08"/>
<polygon fill="midnightblue" stroke="midnightblue" points="142.15,-259.87 134.64,-267.34 145.17,-266.18 142.15,-259.87"/>
</g>
<!-- Node4&#45;&gt;Node3 -->
<g id="edge4" class="edge">
<title>Node4&#45;&gt;Node3</title>
<path fill="none" stroke="midnightblue" d="M264,-257.16C264,-246.21 264,-234.55 264,-225.08"/>
<polygon fill="midnightblue" stroke="midnightblue" points="260.5,-257.34 264,-267.34 267.5,-257.34 260.5,-257.34"/>
</g>
<!-- Node5&#45;&gt;Node3 -->
<g id="edge6" class="edge">
<title>Node5&#45;&gt;Node3</title>
<path fill="none" stroke="midnightblue" d="M384.27,-262.99C358.11,-250.49 328.34,-236.26 304.96,-225.08"/>
<polygon fill="midnightblue" stroke="midnightblue" points="382.83,-266.18 393.36,-267.34 385.85,-259.87 382.83,-266.18"/>
</g>
<!-- Node7&#45;&gt;Node6 -->
<g id="edge15" class="edge">
<title>Node7&#45;&gt;Node6</title>
<path fill="none" stroke="midnightblue" d="M1070.93,-279.04C978.24,-267.31 841.7,-249.35 723,-231 707.74,-228.64 691.62,-225.99 675.87,-223.31"/>
<polygon fill="midnightblue" stroke="midnightblue" points="1070.53,-282.52 1080.89,-280.3 1071.4,-275.57 1070.53,-282.52"/>
</g>
<!-- Node8 -->
<g id="node8" class="node">
<title>Node8</title>
<g id="a_node8"><a xlink:href="_device_control_8h.html" target="_top" xlink:title="Header for ifxAvian.">
<polygon fill="white" stroke="black" points="1208,-178.5 1208,-230.5 1372,-230.5 1372,-178.5 1208,-178.5"/>
<text text-anchor="start" x="1216" y="-218.5" font-family="Helvetica,sans-Serif" font-size="10.00">/home/jenkins/agent</text>
<text text-anchor="start" x="1216" y="-207.5" font-family="Helvetica,sans-Serif" font-size="10.00">/workspace/ild&#45;documentation</text>
<text text-anchor="start" x="1216" y="-196.5" font-family="Helvetica,sans-Serif" font-size="10.00">_release_v3.5.x/sdk/c/ifxAvian</text>
<text text-anchor="middle" x="1290" y="-185.5" font-family="Helvetica,sans-Serif" font-size="10.00">/DeviceControl.h</text>
</a>
</g>
</g>
<!-- Node7&#45;&gt;Node8 -->
<g id="edge9" class="edge">
<title>Node7&#45;&gt;Node8</title>
<path fill="none" stroke="midnightblue" d="M1212.84,-266.53C1227.22,-255.15 1244.03,-241.86 1258.28,-230.58"/>
<polygon fill="midnightblue" stroke="midnightblue" points="1210.36,-264.03 1204.69,-272.98 1214.7,-269.52 1210.36,-264.03"/>
</g>
<!-- Node13 -->
<g id="node13" class="node">
<title>Node13</title>
<g id="a_node13"><a xlink:href="_device_mimose_8h.html" target="_top" xlink:title="Main header file for ifxMimose.">
<polygon fill="white" stroke="black" points="1390,-178.5 1390,-230.5 1566,-230.5 1566,-178.5 1390,-178.5"/>
<text text-anchor="start" x="1398" y="-218.5" font-family="Helvetica,sans-Serif" font-size="10.00">/home/jenkins/agent</text>
<text text-anchor="start" x="1398" y="-207.5" font-family="Helvetica,sans-Serif" font-size="10.00">/workspace/ild&#45;documentation</text>
<text text-anchor="start" x="1398" y="-196.5" font-family="Helvetica,sans-Serif" font-size="10.00">_release_v3.5.x/sdk/c/ifxMimose</text>
<text text-anchor="middle" x="1478" y="-185.5" font-family="Helvetica,sans-Serif" font-size="10.00">/DeviceMimose.h</text>
</a>
</g>
</g>
<!-- Node7&#45;&gt;Node13 -->
<g id="edge16" class="edge">
<title>Node7&#45;&gt;Node13</title>
<path fill="none" stroke="midnightblue" d="M1256.66,-270.12C1298.16,-258 1349.54,-243 1392.35,-230.5"/>
<polygon fill="midnightblue" stroke="midnightblue" points="1255.5,-266.81 1246.88,-272.98 1257.46,-273.53 1255.5,-266.81"/>
</g>
<!-- Node14 -->
<g id="node14" class="node">
<title>Node14</title>
<g id="a_node14"><a xlink:href="_motion_angle_8h.html" target="_top" xlink:title=" ">
<polygon fill="white" stroke="black" points="1584.5,-178.5 1584.5,-230.5 1783.5,-230.5 1783.5,-178.5 1584.5,-178.5"/>
<text text-anchor="start" x="1592.5" y="-218.5" font-family="Helvetica,sans-Serif" font-size="10.00">/home/jenkins/agent</text>
<text text-anchor="start" x="1592.5" y="-207.5" font-family="Helvetica,sans-Serif" font-size="10.00">/workspace/ild&#45;documentation</text>
<text text-anchor="start" x="1592.5" y="-196.5" font-family="Helvetica,sans-Serif" font-size="10.00">_release_v3.5.x/sdk/c/ifxMotionAngle</text>
<text text-anchor="middle" x="1684" y="-185.5" font-family="Helvetica,sans-Serif" font-size="10.00">/MotionAngle.h</text>
</a>
</g>
</g>
<!-- Node7&#45;&gt;Node14 -->
<g id="edge17" class="edge">
<title>Node7&#45;&gt;Node14</title>
<path fill="none" stroke="midnightblue" d="M1272.4,-270.9C1279.36,-269.5 1286.28,-268.18 1293,-267 1417.43,-245.07 1450.65,-253.42 1575,-231 1578.06,-230.45 1581.16,-229.87 1584.29,-229.26"/>
<polygon fill="midnightblue" stroke="midnightblue" points="1271.3,-267.55 1262.21,-272.99 1272.71,-274.41 1271.3,-267.55"/>
</g>
<!-- Node15 -->
<g id="node15" class="node">
<title>Node15</title>
<g id="a_node15"><a xlink:href="_angle_capon_8h.html" target="_top" xlink:title="API for the 1&#45;D Angle Capon algorithm.">
<polygon fill="white" stroke="black" points="1065,-89.5 1065,-141.5 1231,-141.5 1231,-89.5 1065,-89.5"/>
<text text-anchor="start" x="1073" y="-129.5" font-family="Helvetica,sans-Serif" font-size="10.00">/home/jenkins/agent</text>
<text text-anchor="start" x="1073" y="-118.5" font-family="Helvetica,sans-Serif" font-size="10.00">/workspace/ild&#45;documentation</text>
<text text-anchor="start" x="1073" y="-107.5" font-family="Helvetica,sans-Serif" font-size="10.00">_release_v3.5.x/sdk/c/ifxRadar</text>
<text text-anchor="middle" x="1148" y="-96.5" font-family="Helvetica,sans-Serif" font-size="10.00">/AngleCapon.h</text>
</a>
</g>
</g>
<!-- Node7&#45;&gt;Node15 -->
<g id="edge18" class="edge">
<title>Node7&#45;&gt;Node15</title>
<path fill="none" stroke="midnightblue" d="M1174.97,-262.73C1171.02,-239.6 1165.31,-206.74 1160,-178 1157.79,-166.02 1155.21,-152.75 1153.02,-141.61"/>
<polygon fill="midnightblue" stroke="midnightblue" points="1171.52,-263.35 1176.65,-272.62 1178.42,-262.18 1171.52,-263.35"/>
</g>
<!-- Node17 -->
<g id="node17" class="node">
<title>Node17</title>
<g id="a_node17"><a xlink:href="_d_b_f_8h.html" target="_top" xlink:title="API for Digital Beamforming (DBF) algorithm.">
<polygon fill="white" stroke="black" points="954.5,-184 954.5,-225 1151.5,-225 1151.5,-184 954.5,-184"/>
<text text-anchor="start" x="962.5" y="-213" font-family="Helvetica,sans-Serif" font-size="10.00">/home/jenkins/agent</text>
<text text-anchor="start" x="962.5" y="-202" font-family="Helvetica,sans-Serif" font-size="10.00">/workspace/ild&#45;documentation</text>
<text text-anchor="middle" x="1053" y="-191" font-family="Helvetica,sans-Serif" font-size="10.00">_release_v3.5.x/sdk/c/ifxRadar/DBF.h</text>
</a>
</g>
</g>
<!-- Node7&#45;&gt;Node17 -->
<g id="edge20" class="edge">
<title>Node7&#45;&gt;Node17</title>
<path fill="none" stroke="midnightblue" d="M1143.14,-267.25C1123.62,-253.88 1100.01,-237.7 1081.85,-225.26"/>
<polygon fill="midnightblue" stroke="midnightblue" points="1141.27,-270.21 1151.5,-272.98 1145.23,-264.44 1141.27,-270.21"/>
</g>
<!-- Node18 -->
<g id="node18" class="node">
<title>Node18</title>
<g id="a_node18"><a xlink:href="_range_angle_image_8h.html" target="_top" xlink:title="API for Range Angle Image algorithm.">
<polygon fill="white" stroke="black" points="843,-89.5 843,-141.5 1009,-141.5 1009,-89.5 843,-89.5"/>
<text text-anchor="start" x="851" y="-129.5" font-family="Helvetica,sans-Serif" font-size="10.00">/home/jenkins/agent</text>
<text text-anchor="start" x="851" y="-118.5" font-family="Helvetica,sans-Serif" font-size="10.00">/workspace/ild&#45;documentation</text>
<text text-anchor="start" x="851" y="-107.5" font-family="Helvetica,sans-Serif" font-size="10.00">_release_v3.5.x/sdk/c/ifxRadar</text>
<text text-anchor="middle" x="926" y="-96.5" font-family="Helvetica,sans-Serif" font-size="10.00">/RangeAngleImage.h</text>
</a>
</g>
</g>
<!-- Node7&#45;&gt;Node18 -->
<g id="edge24" class="edge">
<title>Node7&#45;&gt;Node18</title>
<path fill="none" stroke="midnightblue" d="M1070.76,-275.66C1018.11,-265.29 962.59,-250.28 945,-231 923,-206.89 921.23,-167.44 922.9,-141.72"/>
<polygon fill="midnightblue" stroke="midnightblue" points="1070.41,-279.16 1080.9,-277.6 1071.73,-272.28 1070.41,-279.16"/>
</g>
<!-- Node7&#45;&gt;Node19 -->
<g id="edge25" class="edge">
<title>Node7&#45;&gt;Node19</title>
<path fill="none" stroke="midnightblue" d="M1289.06,-271.99C1301.49,-270.09 1314,-268.37 1326,-267 1621.85,-233.32 1698.85,-261.91 1995,-231 2010.19,-229.41 2026.12,-227.39 2041.83,-225.18"/>
<polygon fill="midnightblue" stroke="midnightblue" points="1288.45,-268.54 1279.12,-273.55 1289.54,-275.46 1288.45,-268.54"/>
</g>
<!-- Node7&#45;&gt;Node21 -->
<g id="edge27" class="edge">
<title>Node7&#45;&gt;Node21</title>
<path fill="none" stroke="midnightblue" d="M1269.63,-270.99C1277.5,-269.49 1285.38,-268.13 1293,-267 1513.4,-234.39 1573.03,-266.41 1793,-231 1802.82,-229.42 1813.08,-227.34 1823.14,-225.05"/>
<polygon fill="midnightblue" stroke="midnightblue" points="1268.8,-267.59 1259.66,-272.96 1270.15,-274.45 1268.8,-267.59"/>
</g>
<!-- Node9 -->
<g id="node9" class="node">
<title>Node9</title>
<g id="a_node9"><a xlink:href="_avian_8h.html" target="_top" xlink:title="Header for ifxAvian.">
<polygon fill="white" stroke="black" points="1323,-0.5 1323,-52.5 1487,-52.5 1487,-0.5 1323,-0.5"/>
<text text-anchor="start" x="1331" y="-40.5" font-family="Helvetica,sans-Serif" font-size="10.00">/home/jenkins/agent</text>
<text text-anchor="start" x="1331" y="-29.5" font-family="Helvetica,sans-Serif" font-size="10.00">/workspace/ild&#45;documentation</text>
<text text-anchor="start" x="1331" y="-18.5" font-family="Helvetica,sans-Serif" font-size="10.00">_release_v3.5.x/sdk/c/ifxAvian</text>
<text text-anchor="middle" x="1405" y="-7.5" font-family="Helvetica,sans-Serif" font-size="10.00">/Avian.h</text>
</a>
</g>
</g>
<!-- Node8&#45;&gt;Node9 -->
<g id="edge10" class="edge">
<title>Node8&#45;&gt;Node9</title>
<path fill="none" stroke="midnightblue" d="M1275.65,-168.75C1268.1,-144.61 1263.17,-112.67 1278,-89 1288.54,-72.19 1305.12,-59.86 1322.87,-50.85"/>
<polygon fill="midnightblue" stroke="midnightblue" points="1272.34,-169.89 1278.87,-178.24 1278.97,-167.64 1272.34,-169.89"/>
</g>
<!-- Node10 -->
<g id="node10" class="node">
<title>Node10</title>
<g id="a_node10"><a xlink:href="_metrics_8h.html" target="_top" xlink:title="API for Metrics.">
<polygon fill="white" stroke="black" points="1469,-89.5 1469,-141.5 1633,-141.5 1633,-89.5 1469,-89.5"/>
<text text-anchor="start" x="1477" y="-129.5" font-family="Helvetica,sans-Serif" font-size="10.00">/home/jenkins/agent</text>
<text text-anchor="start" x="1477" y="-118.5" font-family="Helvetica,sans-Serif" font-size="10.00">/workspace/ild&#45;documentation</text>
<text text-anchor="start" x="1477" y="-107.5" font-family="Helvetica,sans-Serif" font-size="10.00">_release_v3.5.x/sdk/c/ifxAvian</text>
<text text-anchor="middle" x="1551" y="-96.5" font-family="Helvetica,sans-Serif" font-size="10.00">/Metrics.h</text>
</a>
</g>
</g>
<!-- Node8&#45;&gt;Node10 -->
<g id="edge11" class="edge">
<title>Node8&#45;&gt;Node10</title>
<path fill="none" stroke="midnightblue" d="M1374.66,-175.28C1407.29,-164.4 1444.28,-152.07 1475.94,-141.52"/>
<polygon fill="midnightblue" stroke="midnightblue" points="1373.52,-171.97 1365.14,-178.45 1375.74,-178.61 1373.52,-171.97"/>
</g>
<!-- Node11 -->
<g id="node11" class="node">
<title>Node11</title>
<g id="a_node11"><a xlink:href="_device_cw_8h.html" target="_top" xlink:title="Header for Continuous Wave Control.">
<polygon fill="white" stroke="black" points="1287,-89.5 1287,-141.5 1451,-141.5 1451,-89.5 1287,-89.5"/>
<text text-anchor="start" x="1295" y="-129.5" font-family="Helvetica,sans-Serif" font-size="10.00">/home/jenkins/agent</text>
<text text-anchor="start" x="1295" y="-118.5" font-family="Helvetica,sans-Serif" font-size="10.00">/workspace/ild&#45;documentation</text>
<text text-anchor="start" x="1295" y="-107.5" font-family="Helvetica,sans-Serif" font-size="10.00">_release_v3.5.x/sdk/c/ifxCw</text>
<text text-anchor="middle" x="1369" y="-96.5" font-family="Helvetica,sans-Serif" font-size="10.00">/DeviceCw.h</text>
</a>
</g>
</g>
<!-- Node8&#45;&gt;Node11 -->
<g id="edge13" class="edge">
<title>Node8&#45;&gt;Node11</title>
<path fill="none" stroke="midnightblue" d="M1319.7,-170.79C1328.47,-161.13 1337.94,-150.71 1346.2,-141.61"/>
<polygon fill="midnightblue" stroke="midnightblue" points="1316.98,-168.58 1312.85,-178.34 1322.16,-173.29 1316.98,-168.58"/>
</g>
<!-- Node8&#45;&gt;Node12 -->
<g id="edge14" class="edge">
<title>Node8&#45;&gt;Node12</title>
<path fill="none" stroke="midnightblue" d="M1382.37,-178.1C1432.01,-169.98 1614.22,-145.87 1732.9,-130.27"/>
<polygon fill="midnightblue" stroke="midnightblue" points="1381.45,-174.71 1372.21,-179.91 1382.67,-181.6 1381.45,-174.71"/>
</g>
<!-- Node10&#45;&gt;Node9 -->
<g id="edge12" class="edge">
<title>Node10&#45;&gt;Node9</title>
<path fill="none" stroke="midnightblue" d="M1499.93,-84.07C1482.68,-73.79 1463.62,-62.43 1447.13,-52.61"/>
<polygon fill="midnightblue" stroke="midnightblue" points="1498.39,-87.22 1508.77,-89.34 1501.97,-81.21 1498.39,-87.22"/>
</g>
<!-- Node16 -->
<g id="node16" class="node">
<title>Node16</title>
<g id="a_node16"><a xlink:href="_radar_8h.html" target="_top" xlink:title="Header for ifxRadar.">
<polygon fill="white" stroke="black" points="843,-0.5 843,-52.5 1009,-52.5 1009,-0.5 843,-0.5"/>
<text text-anchor="start" x="851" y="-40.5" font-family="Helvetica,sans-Serif" font-size="10.00">/home/jenkins/agent</text>
<text text-anchor="start" x="851" y="-29.5" font-family="Helvetica,sans-Serif" font-size="10.00">/workspace/ild&#45;documentation</text>
<text text-anchor="start" x="851" y="-18.5" font-family="Helvetica,sans-Serif" font-size="10.00">_release_v3.5.x/sdk/c/ifxRadar</text>
<text text-anchor="middle" x="926" y="-7.5" font-family="Helvetica,sans-Serif" font-size="10.00">/Radar.h</text>
</a>
</g>
</g>
<!-- Node15&#45;&gt;Node16 -->
<g id="edge19" class="edge">
<title>Node15&#45;&gt;Node16</title>
<path fill="none" stroke="midnightblue" d="M1074.55,-85.72C1047.16,-74.98 1016.31,-62.89 989.85,-52.52"/>
<polygon fill="midnightblue" stroke="midnightblue" points="1073.5,-89.06 1084.09,-89.45 1076.05,-82.55 1073.5,-89.06"/>
</g>
<!-- Node17&#45;&gt;Node16 -->
<g id="edge21" class="edge">
<title>Node17&#45;&gt;Node16</title>
<path fill="none" stroke="midnightblue" d="M1049.57,-173.98C1045.48,-149.27 1036.66,-114.11 1018,-89 1007.23,-74.5 991.96,-62.36 976.96,-52.8"/>
<polygon fill="midnightblue" stroke="midnightblue" points="1046.11,-174.5 1051.06,-183.88 1053.04,-173.47 1046.11,-174.5"/>
</g>
<!-- Node17&#45;&gt;Node18 -->
<g id="edge22" class="edge">
<title>Node17&#45;&gt;Node18</title>
<path fill="none" stroke="midnightblue" d="M1016.02,-178.17C999.21,-166.65 979.38,-153.07 962.62,-141.58"/>
<polygon fill="midnightblue" stroke="midnightblue" points="1014.27,-181.21 1024.5,-183.98 1018.23,-175.44 1014.27,-181.21"/>
</g>
<!-- Node18&#45;&gt;Node16 -->
<g id="edge23" class="edge">
<title>Node18&#45;&gt;Node16</title>
<path fill="none" stroke="midnightblue" d="M926,-79.19C926,-70.28 926,-60.9 926,-52.61"/>
<polygon fill="midnightblue" stroke="midnightblue" points="922.5,-79.34 926,-89.34 929.5,-79.34 922.5,-79.34"/>
</g>
<!-- Node20 -->
<g id="node20" class="node">
<title>Node20</title>
<g id="a_node20"><a xlink:href="_radar_segmentation_8h.html" target="_top" xlink:title="Header for ifxRadarSegmentation.">
<polygon fill="white" stroke="black" points="2042,-89.5 2042,-141.5 2276,-141.5 2276,-89.5 2042,-89.5"/>
<text text-anchor="start" x="2050" y="-129.5" font-family="Helvetica,sans-Serif" font-size="10.00">/home/jenkins/agent</text>
<text text-anchor="start" x="2050" y="-118.5" font-family="Helvetica,sans-Serif" font-size="10.00">/workspace/ild&#45;documentation</text>
<text text-anchor="start" x="2050" y="-107.5" font-family="Helvetica,sans-Serif" font-size="10.00">_release_v3.5.x/sdk/c/ifxRadarSegmentation</text>
<text text-anchor="middle" x="2159" y="-96.5" font-family="Helvetica,sans-Serif" font-size="10.00">/RadarSegmentation.h</text>
</a>
</g>
</g>
<!-- Node19&#45;&gt;Node20 -->
<g id="edge26" class="edge">
<title>Node19&#45;&gt;Node20</title>
<path fill="none" stroke="midnightblue" d="M2159,-168.19C2159,-159.28 2159,-149.9 2159,-141.61"/>
<polygon fill="midnightblue" stroke="midnightblue" points="2155.5,-168.34 2159,-178.34 2162.5,-168.34 2155.5,-168.34"/>
</g>
<!-- Node22&#45;&gt;Node6 -->
<g id="edge29" class="edge">
<title>Node22&#45;&gt;Node6</title>
<path fill="none" stroke="midnightblue" d="M646.69,-266.13C631.54,-252.95 613.52,-237.27 599.6,-225.16"/>
<polygon fill="midnightblue" stroke="midnightblue" points="644.47,-268.84 654.31,-272.76 649.06,-263.55 644.47,-268.84"/>
</g>
<!-- Node24&#45;&gt;Node16 -->
<g id="edge32" class="edge">
<title>Node24&#45;&gt;Node16</title>
<path fill="none" stroke="midnightblue" d="M813.77,-168.1C814.55,-144.04 818.87,-112.45 834,-89 843.58,-74.15 858.16,-62.03 872.9,-52.59"/>
<polygon fill="midnightblue" stroke="midnightblue" points="810.27,-168.19 813.63,-178.24 817.27,-168.28 810.27,-168.19"/>
</g>
<!-- Node24&#45;&gt;Node18 -->
<g id="edge33" class="edge">
<title>Node24&#45;&gt;Node18</title>
<path fill="none" stroke="midnightblue" d="M855.27,-171.93C868,-161.96 881.89,-151.07 893.97,-141.61"/>
<polygon fill="midnightblue" stroke="midnightblue" points="852.82,-169.41 847.11,-178.34 857.14,-174.92 852.82,-169.41"/>
</g>
<!-- Node25&#45;&gt;Node16 -->
<g id="edge35" class="edge">
<title>Node25&#45;&gt;Node16</title>
<path fill="none" stroke="midnightblue" d="M777.45,-85.72C804.84,-74.98 835.69,-62.89 862.15,-52.52"/>
<polygon fill="midnightblue" stroke="midnightblue" points="775.95,-82.55 767.91,-89.45 778.5,-89.06 775.95,-82.55"/>
</g>
</g>
</svg>
