<?xml version="1.0" encoding="UTF-8" standalone="no"?>
<!DOCTYPE svg PUBLIC "-//W3C//DTD SVG 1.1//EN"
 "http://www.w3.org/Graphics/SVG/1.1/DTD/svg11.dtd">
<!-- Generated by graphviz version 2.43.0 (0)
 -->
<!-- Title: /home/jenkins/agent/workspace/ild&#45;documentation_release_v3.5.x/sdk/c/ifxBase/Math.h Pages: 1 -->
<svg width="2500pt" height="495pt"
 viewBox="0.00 0.00 2500.00 495.00" xmlns="http://www.w3.org/2000/svg" xmlns:xlink="http://www.w3.org/1999/xlink">
<g id="graph0" class="graph" transform="scale(1 1) rotate(0) translate(4 491)">
<title>/home/jenkins/agent/workspace/ild&#45;documentation_release_v3.5.x/sdk/c/ifxBase/Math.h</title>
<polygon fill="white" stroke="transparent" points="-4,4 -4,-491 2496,-491 2496,4 -4,4"/>
<!-- Node1 -->
<g id="node1" class="node">
<title>Node1</title>
<g id="a_node1"><a xlink:title="API for Mathematical operations.">
<polygon fill="#bfbfbf" stroke="black" points="640,-445.5 640,-486.5 838,-486.5 838,-445.5 640,-445.5"/>
<text text-anchor="start" x="648" y="-474.5" font-family="Helvetica,sans-Serif" font-size="10.00">/home/jenkins/agent</text>
<text text-anchor="start" x="648" y="-463.5" font-family="Helvetica,sans-Serif" font-size="10.00">/workspace/ild&#45;documentation</text>
<text text-anchor="middle" x="739" y="-452.5" font-family="Helvetica,sans-Serif" font-size="10.00">_release_v3.5.x/sdk/c/ifxBase/Math.h</text>
</a>
</g>
</g>
<!-- Node2 -->
<g id="node2" class="node">
<title>Node2</title>
<g id="a_node2"><a xlink:href="_preprocessed_f_f_t_8h.html" target="_top" xlink:title="API for Pre&#45;processed FFT.">
<polygon fill="white" stroke="black" points="324,-267.5 324,-319.5 488,-319.5 488,-267.5 324,-267.5"/>
<text text-anchor="start" x="332" y="-307.5" font-family="Helvetica,sans-Serif" font-size="10.00">/home/jenkins/agent</text>
<text text-anchor="start" x="332" y="-296.5" font-family="Helvetica,sans-Serif" font-size="10.00">/workspace/ild&#45;documentation</text>
<text text-anchor="start" x="332" y="-285.5" font-family="Helvetica,sans-Serif" font-size="10.00">_release_v3.5.x/sdk/c/ifxAlgo</text>
<text text-anchor="middle" x="406" y="-274.5" font-family="Helvetica,sans-Serif" font-size="10.00">/PreprocessedFFT.h</text>
</a>
</g>
</g>
<!-- Node1&#45;&gt;Node2 -->
<g id="edge1" class="edge">
<title>Node1&#45;&gt;Node2</title>
<path fill="none" stroke="midnightblue" d="M630.08,-444.62C598.59,-436.2 564.93,-424.64 536,-409 492.88,-385.69 451.96,-345.64 427.93,-319.62"/>
<polygon fill="midnightblue" stroke="midnightblue" points="629.22,-448.01 639.78,-447.13 630.98,-441.24 629.22,-448.01"/>
</g>
<!-- Node9 -->
<g id="node9" class="node">
<title>Node9</title>
<g id="a_node9"><a xlink:href="_device_control_8h.html" target="_top" xlink:title="Header for ifxAvian.">
<polygon fill="white" stroke="black" points="2068,-178.5 2068,-230.5 2232,-230.5 2232,-178.5 2068,-178.5"/>
<text text-anchor="start" x="2076" y="-218.5" font-family="Helvetica,sans-Serif" font-size="10.00">/home/jenkins/agent</text>
<text text-anchor="start" x="2076" y="-207.5" font-family="Helvetica,sans-Serif" font-size="10.00">/workspace/ild&#45;documentation</text>
<text text-anchor="start" x="2076" y="-196.5" font-family="Helvetica,sans-Serif" font-size="10.00">_release_v3.5.x/sdk/c/ifxAvian</text>
<text text-anchor="middle" x="2150" y="-185.5" font-family="Helvetica,sans-Serif" font-size="10.00">/DeviceControl.h</text>
</a>
</g>
</g>
<!-- Node1&#45;&gt;Node9 -->
<g id="edge10" class="edge">
<title>Node1&#45;&gt;Node9</title>
<path fill="none" stroke="midnightblue" d="M848.42,-449.13C1016.96,-424.25 1350.04,-373.37 1631,-320 1786.01,-290.56 1965.51,-249.36 2067.61,-225.25"/>
<polygon fill="midnightblue" stroke="midnightblue" points="847.68,-445.7 838.3,-450.62 848.7,-452.62 847.68,-445.7"/>
</g>
<!-- Node14 -->
<g id="node14" class="node">
<title>Node14</title>
<g id="a_node14"><a xlink:href="_base_8h.html" target="_top" xlink:title="Header for ifxBase.">
<polygon fill="white" stroke="black" points="656.5,-184 656.5,-225 853.5,-225 853.5,-184 656.5,-184"/>
<text text-anchor="start" x="664.5" y="-213" font-family="Helvetica,sans-Serif" font-size="10.00">/home/jenkins/agent</text>
<text text-anchor="start" x="664.5" y="-202" font-family="Helvetica,sans-Serif" font-size="10.00">/workspace/ild&#45;documentation</text>
<text text-anchor="middle" x="755" y="-191" font-family="Helvetica,sans-Serif" font-size="10.00">_release_v3.5.x/sdk/c/ifxBase/Base.h</text>
</a>
</g>
</g>
<!-- Node1&#45;&gt;Node14 -->
<g id="edge16" class="edge">
<title>Node1&#45;&gt;Node14</title>
<path fill="none" stroke="midnightblue" d="M740.83,-435.29C744.13,-381.75 751,-270.44 753.78,-225.23"/>
<polygon fill="midnightblue" stroke="midnightblue" points="737.32,-435.3 740.2,-445.5 744.31,-435.73 737.32,-435.3"/>
</g>
<!-- Node15 -->
<g id="node15" class="node">
<title>Node15</title>
<g id="a_node15"><a xlink:href="_defines_8h.html" target="_top" xlink:title="Internal definitions used by standard math.h functions as Macros, to use float or double precision.">
<polygon fill="white" stroke="black" points="786,-356.5 786,-408.5 950,-408.5 950,-356.5 786,-356.5"/>
<text text-anchor="start" x="794" y="-396.5" font-family="Helvetica,sans-Serif" font-size="10.00">/home/jenkins/agent</text>
<text text-anchor="start" x="794" y="-385.5" font-family="Helvetica,sans-Serif" font-size="10.00">/workspace/ild&#45;documentation</text>
<text text-anchor="start" x="794" y="-374.5" font-family="Helvetica,sans-Serif" font-size="10.00">_release_v3.5.x/sdk/c/ifxBase</text>
<text text-anchor="middle" x="868" y="-363.5" font-family="Helvetica,sans-Serif" font-size="10.00">/Defines.h</text>
</a>
</g>
</g>
<!-- Node1&#45;&gt;Node15 -->
<g id="edge17" class="edge">
<title>Node1&#45;&gt;Node15</title>
<path fill="none" stroke="midnightblue" d="M778.38,-440.12C794.13,-430.17 812.26,-418.72 828.07,-408.73"/>
<polygon fill="midnightblue" stroke="midnightblue" points="776.48,-437.18 769.9,-445.48 780.22,-443.1 776.48,-437.18"/>
</g>
<!-- Node26 -->
<g id="node26" class="node">
<title>Node26</title>
<g id="a_node26"><a xlink:href="_spectrum_axis_8h.html" target="_top" xlink:title="API for Spectrum Axis used by Range spectrum, Range Doppler and Range Angle Map modules.">
<polygon fill="white" stroke="black" points="545,-356.5 545,-408.5 711,-408.5 711,-356.5 545,-356.5"/>
<text text-anchor="start" x="553" y="-396.5" font-family="Helvetica,sans-Serif" font-size="10.00">/home/jenkins/agent</text>
<text text-anchor="start" x="553" y="-385.5" font-family="Helvetica,sans-Serif" font-size="10.00">/workspace/ild&#45;documentation</text>
<text text-anchor="start" x="553" y="-374.5" font-family="Helvetica,sans-Serif" font-size="10.00">_release_v3.5.x/sdk/c/ifxRadar</text>
<text text-anchor="middle" x="628" y="-363.5" font-family="Helvetica,sans-Serif" font-size="10.00">/SpectrumAxis.h</text>
</a>
</g>
</g>
<!-- Node1&#45;&gt;Node26 -->
<g id="edge38" class="edge">
<title>Node1&#45;&gt;Node26</title>
<path fill="none" stroke="midnightblue" d="M703.98,-439.29C690.69,-429.53 675.59,-418.44 662.36,-408.73"/>
<polygon fill="midnightblue" stroke="midnightblue" points="702.28,-442.38 712.41,-445.48 706.42,-436.74 702.28,-442.38"/>
</g>
<!-- Node3 -->
<g id="node3" class="node">
<title>Node3</title>
<g id="a_node3"><a xlink:href="_algo_8h.html" target="_top" xlink:title="Header for ifxAlgo.">
<polygon fill="white" stroke="black" points="184.5,-184 184.5,-225 377.5,-225 377.5,-184 184.5,-184"/>
<text text-anchor="start" x="192.5" y="-213" font-family="Helvetica,sans-Serif" font-size="10.00">/home/jenkins/agent</text>
<text text-anchor="start" x="192.5" y="-202" font-family="Helvetica,sans-Serif" font-size="10.00">/workspace/ild&#45;documentation</text>
<text text-anchor="middle" x="281" y="-191" font-family="Helvetica,sans-Serif" font-size="10.00">_release_v3.5.x/sdk/c/ifxAlgo/Algo.h</text>
</a>
</g>
</g>
<!-- Node2&#45;&gt;Node3 -->
<g id="edge2" class="edge">
<title>Node2&#45;&gt;Node3</title>
<path fill="none" stroke="midnightblue" d="M361.48,-261.51C344.04,-249.37 324.56,-235.82 309.14,-225.08"/>
<polygon fill="midnightblue" stroke="midnightblue" points="359.64,-264.5 369.84,-267.34 363.64,-258.75 359.64,-264.5"/>
</g>
<!-- Node4 -->
<g id="node4" class="node">
<title>Node4</title>
<g id="a_node4"><a xlink:href="_doppler_spectrogram_8h.html" target="_top" xlink:title=" ">
<polygon fill="white" stroke="black" points="434,-178.5 434,-230.5 600,-230.5 600,-178.5 434,-178.5"/>
<text text-anchor="start" x="442" y="-218.5" font-family="Helvetica,sans-Serif" font-size="10.00">/home/jenkins/agent</text>
<text text-anchor="start" x="442" y="-207.5" font-family="Helvetica,sans-Serif" font-size="10.00">/workspace/ild&#45;documentation</text>
<text text-anchor="start" x="442" y="-196.5" font-family="Helvetica,sans-Serif" font-size="10.00">_release_v3.5.x/sdk/c/ifxRadar</text>
<text text-anchor="middle" x="517" y="-185.5" font-family="Helvetica,sans-Serif" font-size="10.00">/DopplerSpectrogram.h</text>
</a>
</g>
</g>
<!-- Node2&#45;&gt;Node4 -->
<g id="edge3" class="edge">
<title>Node2&#45;&gt;Node4</title>
<path fill="none" stroke="midnightblue" d="M446.27,-260.93C459,-250.96 472.89,-240.07 484.97,-230.61"/>
<polygon fill="midnightblue" stroke="midnightblue" points="443.82,-258.41 438.11,-267.34 448.14,-263.92 443.82,-258.41"/>
</g>
<!-- Node5 -->
<g id="node5" class="node">
<title>Node5</title>
<g id="a_node5"><a xlink:href="_range_doppler_map_8h.html" target="_top" xlink:title="API for Doppler Spectrogram.">
<polygon fill="white" stroke="black" points="0,-178.5 0,-230.5 166,-230.5 166,-178.5 0,-178.5"/>
<text text-anchor="start" x="8" y="-218.5" font-family="Helvetica,sans-Serif" font-size="10.00">/home/jenkins/agent</text>
<text text-anchor="start" x="8" y="-207.5" font-family="Helvetica,sans-Serif" font-size="10.00">/workspace/ild&#45;documentation</text>
<text text-anchor="start" x="8" y="-196.5" font-family="Helvetica,sans-Serif" font-size="10.00">_release_v3.5.x/sdk/c/ifxRadar</text>
<text text-anchor="middle" x="83" y="-185.5" font-family="Helvetica,sans-Serif" font-size="10.00">/RangeDopplerMap.h</text>
</a>
</g>
</g>
<!-- Node2&#45;&gt;Node5 -->
<g id="edge4" class="edge">
<title>Node2&#45;&gt;Node5</title>
<path fill="none" stroke="midnightblue" d="M314.15,-268.28C271.76,-257.04 220.79,-243.44 175,-231 172.12,-230.22 169.19,-229.42 166.23,-228.61"/>
<polygon fill="midnightblue" stroke="midnightblue" points="313.33,-271.68 323.89,-270.86 315.12,-264.91 313.33,-271.68"/>
</g>
<!-- Node8 -->
<g id="node8" class="node">
<title>Node8</title>
<g id="a_node8"><a xlink:href="_range_spectrum_8h.html" target="_top" xlink:title="API for Range Spectrum.">
<polygon fill="white" stroke="black" points="379,-89.5 379,-141.5 545,-141.5 545,-89.5 379,-89.5"/>
<text text-anchor="start" x="387" y="-129.5" font-family="Helvetica,sans-Serif" font-size="10.00">/home/jenkins/agent</text>
<text text-anchor="start" x="387" y="-118.5" font-family="Helvetica,sans-Serif" font-size="10.00">/workspace/ild&#45;documentation</text>
<text text-anchor="start" x="387" y="-107.5" font-family="Helvetica,sans-Serif" font-size="10.00">_release_v3.5.x/sdk/c/ifxRadar</text>
<text text-anchor="middle" x="462" y="-96.5" font-family="Helvetica,sans-Serif" font-size="10.00">/RangeSpectrum.h</text>
</a>
</g>
</g>
<!-- Node2&#45;&gt;Node8 -->
<g id="edge8" class="edge">
<title>Node2&#45;&gt;Node8</title>
<path fill="none" stroke="midnightblue" d="M408.4,-257.19C410.81,-234.1 415.58,-203.58 425,-178 429.65,-165.37 436.96,-152.45 443.86,-141.74"/>
<polygon fill="midnightblue" stroke="midnightblue" points="404.91,-256.95 407.46,-267.24 411.88,-257.61 404.91,-256.95"/>
</g>
<!-- Node6 -->
<g id="node6" class="node">
<title>Node6</title>
<g id="a_node6"><a xlink:href="_radar_8h.html" target="_top" xlink:title="Header for ifxRadar.">
<polygon fill="white" stroke="black" points="799,-0.5 799,-52.5 965,-52.5 965,-0.5 799,-0.5"/>
<text text-anchor="start" x="807" y="-40.5" font-family="Helvetica,sans-Serif" font-size="10.00">/home/jenkins/agent</text>
<text text-anchor="start" x="807" y="-29.5" font-family="Helvetica,sans-Serif" font-size="10.00">/workspace/ild&#45;documentation</text>
<text text-anchor="start" x="807" y="-18.5" font-family="Helvetica,sans-Serif" font-size="10.00">_release_v3.5.x/sdk/c/ifxRadar</text>
<text text-anchor="middle" x="882" y="-7.5" font-family="Helvetica,sans-Serif" font-size="10.00">/Radar.h</text>
</a>
</g>
</g>
<!-- Node5&#45;&gt;Node6 -->
<g id="edge5" class="edge">
<title>Node5&#45;&gt;Node6</title>
<path fill="none" stroke="midnightblue" d="M143.24,-174.11C200.27,-147.58 289,-109.65 370,-89 518.13,-51.24 696.44,-36.49 798.76,-30.86"/>
<polygon fill="midnightblue" stroke="midnightblue" points="141.58,-171.02 134.01,-178.43 144.55,-177.36 141.58,-171.02"/>
</g>
<!-- Node7 -->
<g id="node7" class="node">
<title>Node7</title>
<g id="a_node7"><a xlink:href="_range_angle_image_8h.html" target="_top" xlink:title="API for Range Angle Image algorithm.">
<polygon fill="white" stroke="black" points="1457,-89.5 1457,-141.5 1623,-141.5 1623,-89.5 1457,-89.5"/>
<text text-anchor="start" x="1465" y="-129.5" font-family="Helvetica,sans-Serif" font-size="10.00">/home/jenkins/agent</text>
<text text-anchor="start" x="1465" y="-118.5" font-family="Helvetica,sans-Serif" font-size="10.00">/workspace/ild&#45;documentation</text>
<text text-anchor="start" x="1465" y="-107.5" font-family="Helvetica,sans-Serif" font-size="10.00">_release_v3.5.x/sdk/c/ifxRadar</text>
<text text-anchor="middle" x="1540" y="-96.5" font-family="Helvetica,sans-Serif" font-size="10.00">/RangeAngleImage.h</text>
</a>
</g>
</g>
<!-- Node5&#45;&gt;Node7 -->
<g id="edge6" class="edge">
<title>Node5&#45;&gt;Node7</title>
<path fill="none" stroke="midnightblue" d="M176,-178.03C736.52,-95.34 891.57,-225.71 1448,-142 1450.95,-141.56 1453.94,-141.05 1456.95,-140.49"/>
<polygon fill="midnightblue" stroke="midnightblue" points="175.42,-174.57 166.05,-179.51 176.46,-181.5 175.42,-174.57"/>
</g>
<!-- Node7&#45;&gt;Node6 -->
<g id="edge7" class="edge">
<title>Node7&#45;&gt;Node6</title>
<path fill="none" stroke="midnightblue" d="M1446.92,-88.92C1270.65,-55.83 1073.95,-39.53 965.11,-32.3"/>
<polygon fill="midnightblue" stroke="midnightblue" points="1446.42,-92.39 1456.9,-90.82 1447.73,-85.51 1446.42,-92.39"/>
</g>
<!-- Node8&#45;&gt;Node6 -->
<g id="edge9" class="edge">
<title>Node8&#45;&gt;Node6</title>
<path fill="none" stroke="midnightblue" d="M555.33,-95.17C628.28,-80.06 728.75,-59.24 798.94,-44.71"/>
<polygon fill="midnightblue" stroke="midnightblue" points="554.31,-91.8 545.23,-97.26 555.73,-98.66 554.31,-91.8"/>
</g>
<!-- Node10 -->
<g id="node10" class="node">
<title>Node10</title>
<g id="a_node10"><a xlink:href="_avian_8h.html" target="_top" xlink:title="Header for ifxAvian.">
<polygon fill="white" stroke="black" points="2328,-0.5 2328,-52.5 2492,-52.5 2492,-0.5 2328,-0.5"/>
<text text-anchor="start" x="2336" y="-40.5" font-family="Helvetica,sans-Serif" font-size="10.00">/home/jenkins/agent</text>
<text text-anchor="start" x="2336" y="-29.5" font-family="Helvetica,sans-Serif" font-size="10.00">/workspace/ild&#45;documentation</text>
<text text-anchor="start" x="2336" y="-18.5" font-family="Helvetica,sans-Serif" font-size="10.00">_release_v3.5.x/sdk/c/ifxAvian</text>
<text text-anchor="middle" x="2410" y="-7.5" font-family="Helvetica,sans-Serif" font-size="10.00">/Avian.h</text>
</a>
</g>
</g>
<!-- Node9&#45;&gt;Node10 -->
<g id="edge11" class="edge">
<title>Node9&#45;&gt;Node10</title>
<path fill="none" stroke="midnightblue" d="M2242.34,-196.83C2319.4,-189.11 2420.6,-173.22 2446,-142 2467.04,-116.14 2447.72,-77.88 2430.27,-52.82"/>
<polygon fill="midnightblue" stroke="midnightblue" points="2241.73,-193.37 2232.11,-197.82 2242.4,-200.34 2241.73,-193.37"/>
</g>
<!-- Node11 -->
<g id="node11" class="node">
<title>Node11</title>
<g id="a_node11"><a xlink:href="_metrics_8h.html" target="_top" xlink:title="API for Metrics.">
<polygon fill="white" stroke="black" points="2273,-89.5 2273,-141.5 2437,-141.5 2437,-89.5 2273,-89.5"/>
<text text-anchor="start" x="2281" y="-129.5" font-family="Helvetica,sans-Serif" font-size="10.00">/home/jenkins/agent</text>
<text text-anchor="start" x="2281" y="-118.5" font-family="Helvetica,sans-Serif" font-size="10.00">/workspace/ild&#45;documentation</text>
<text text-anchor="start" x="2281" y="-107.5" font-family="Helvetica,sans-Serif" font-size="10.00">_release_v3.5.x/sdk/c/ifxAvian</text>
<text text-anchor="middle" x="2355" y="-96.5" font-family="Helvetica,sans-Serif" font-size="10.00">/Metrics.h</text>
</a>
</g>
</g>
<!-- Node9&#45;&gt;Node11 -->
<g id="edge12" class="edge">
<title>Node9&#45;&gt;Node11</title>
<path fill="none" stroke="midnightblue" d="M2218.49,-174.44C2243.61,-163.77 2271.82,-151.8 2296.04,-141.52"/>
<polygon fill="midnightblue" stroke="midnightblue" points="2216.86,-171.32 2209.02,-178.45 2219.59,-177.77 2216.86,-171.32"/>
</g>
<!-- Node12 -->
<g id="node12" class="node">
<title>Node12</title>
<g id="a_node12"><a xlink:href="_device_cw_8h.html" target="_top" xlink:title="Header for Continuous Wave Control.">
<polygon fill="white" stroke="black" points="1863,-89.5 1863,-141.5 2027,-141.5 2027,-89.5 1863,-89.5"/>
<text text-anchor="start" x="1871" y="-129.5" font-family="Helvetica,sans-Serif" font-size="10.00">/home/jenkins/agent</text>
<text text-anchor="start" x="1871" y="-118.5" font-family="Helvetica,sans-Serif" font-size="10.00">/workspace/ild&#45;documentation</text>
<text text-anchor="start" x="1871" y="-107.5" font-family="Helvetica,sans-Serif" font-size="10.00">_release_v3.5.x/sdk/c/ifxCw</text>
<text text-anchor="middle" x="1945" y="-96.5" font-family="Helvetica,sans-Serif" font-size="10.00">/DeviceCw.h</text>
</a>
</g>
</g>
<!-- Node9&#45;&gt;Node12 -->
<g id="edge14" class="edge">
<title>Node9&#45;&gt;Node12</title>
<path fill="none" stroke="midnightblue" d="M2081.51,-174.44C2056.39,-163.77 2028.18,-151.8 2003.96,-141.52"/>
<polygon fill="midnightblue" stroke="midnightblue" points="2080.41,-177.77 2090.98,-178.45 2083.14,-171.32 2080.41,-177.77"/>
</g>
<!-- Node13 -->
<g id="node13" class="node">
<title>Node13</title>
<g id="a_node13"><a xlink:href="_presence_sensing_8h.html" target="_top" xlink:title=" ">
<polygon fill="white" stroke="black" points="2045,-89.5 2045,-141.5 2255,-141.5 2255,-89.5 2045,-89.5"/>
<text text-anchor="start" x="2053" y="-129.5" font-family="Helvetica,sans-Serif" font-size="10.00">/home/jenkins/agent</text>
<text text-anchor="start" x="2053" y="-118.5" font-family="Helvetica,sans-Serif" font-size="10.00">/workspace/ild&#45;documentation</text>
<text text-anchor="start" x="2053" y="-107.5" font-family="Helvetica,sans-Serif" font-size="10.00">_release_v3.5.x/sdk/c/ifxRadarPresence</text>
<text text-anchor="middle" x="2150" y="-96.5" font-family="Helvetica,sans-Serif" font-size="10.00">Sensing/PresenceSensing.h</text>
</a>
</g>
</g>
<!-- Node9&#45;&gt;Node13 -->
<g id="edge15" class="edge">
<title>Node9&#45;&gt;Node13</title>
<path fill="none" stroke="midnightblue" d="M2150,-168.19C2150,-159.28 2150,-149.9 2150,-141.61"/>
<polygon fill="midnightblue" stroke="midnightblue" points="2146.5,-168.34 2150,-178.34 2153.5,-168.34 2146.5,-168.34"/>
</g>
<!-- Node11&#45;&gt;Node10 -->
<g id="edge13" class="edge">
<title>Node11&#45;&gt;Node10</title>
<path fill="none" stroke="midnightblue" d="M2376.41,-80.64C2382.31,-71.31 2388.6,-61.35 2394.13,-52.61"/>
<polygon fill="midnightblue" stroke="midnightblue" points="2373.29,-79.01 2370.91,-89.34 2379.21,-82.75 2373.29,-79.01"/>
</g>
<!-- Node15&#45;&gt;Node14 -->
<g id="edge18" class="edge">
<title>Node15&#45;&gt;Node14</title>
<path fill="none" stroke="midnightblue" d="M823.77,-350.03C813.62,-341.21 803.59,-331 796,-320 775.5,-290.28 764.09,-249.18 758.78,-225.16"/>
<polygon fill="midnightblue" stroke="midnightblue" points="821.6,-352.78 831.52,-356.49 826.08,-347.4 821.6,-352.78"/>
</g>
<!-- Node16 -->
<g id="node16" class="node">
<title>Node16</title>
<g id="a_node16"><a xlink:href="_complex_8h.html" target="_top" xlink:title="API for operations on complex numbers.">
<polygon fill="white" stroke="black" points="805,-267.5 805,-319.5 969,-319.5 969,-267.5 805,-267.5"/>
<text text-anchor="start" x="813" y="-307.5" font-family="Helvetica,sans-Serif" font-size="10.00">/home/jenkins/agent</text>
<text text-anchor="start" x="813" y="-296.5" font-family="Helvetica,sans-Serif" font-size="10.00">/workspace/ild&#45;documentation</text>
<text text-anchor="start" x="813" y="-285.5" font-family="Helvetica,sans-Serif" font-size="10.00">_release_v3.5.x/sdk/c/ifxBase</text>
<text text-anchor="middle" x="887" y="-274.5" font-family="Helvetica,sans-Serif" font-size="10.00">/Complex.h</text>
</a>
</g>
</g>
<!-- Node15&#45;&gt;Node16 -->
<g id="edge19" class="edge">
<title>Node15&#45;&gt;Node16</title>
<path fill="none" stroke="midnightblue" d="M875.65,-346.48C877.61,-337.49 879.69,-327.99 881.52,-319.61"/>
<polygon fill="midnightblue" stroke="midnightblue" points="872.21,-345.82 873.5,-356.34 879.05,-347.31 872.21,-345.82"/>
</g>
<!-- Node19 -->
<g id="node19" class="node">
<title>Node19</title>
<g id="a_node19"><a xlink:href="_cube_8h.html" target="_top" xlink:title="API for operations on Cube data structures.">
<polygon fill="white" stroke="black" points="1424,-273 1424,-314 1622,-314 1622,-273 1424,-273"/>
<text text-anchor="start" x="1432" y="-302" font-family="Helvetica,sans-Serif" font-size="10.00">/home/jenkins/agent</text>
<text text-anchor="start" x="1432" y="-291" font-family="Helvetica,sans-Serif" font-size="10.00">/workspace/ild&#45;documentation</text>
<text text-anchor="middle" x="1523" y="-280" font-family="Helvetica,sans-Serif" font-size="10.00">_release_v3.5.x/sdk/c/ifxBase/Cube.h</text>
</a>
</g>
</g>
<!-- Node15&#45;&gt;Node19 -->
<g id="edge24" class="edge">
<title>Node15&#45;&gt;Node19</title>
<path fill="none" stroke="midnightblue" d="M960.4,-369.23C1082.9,-352.96 1298.19,-324.36 1423.95,-307.66"/>
<polygon fill="midnightblue" stroke="midnightblue" points="959.75,-365.78 950.29,-370.57 960.67,-372.72 959.75,-365.78"/>
</g>
<!-- Node16&#45;&gt;Node14 -->
<g id="edge20" class="edge">
<title>Node16&#45;&gt;Node14</title>
<path fill="none" stroke="midnightblue" d="M840.23,-261.68C821.76,-249.5 801.07,-235.87 784.71,-225.08"/>
<polygon fill="midnightblue" stroke="midnightblue" points="838.54,-264.76 848.82,-267.34 842.4,-258.91 838.54,-264.76"/>
</g>
<!-- Node17 -->
<g id="node17" class="node">
<title>Node17</title>
<g id="a_node17"><a xlink:href="_angle_monopulse_8h.html" target="_top" xlink:title="API for Phase Monopulse algorithm.">
<polygon fill="white" stroke="black" points="799,-89.5 799,-141.5 965,-141.5 965,-89.5 799,-89.5"/>
<text text-anchor="start" x="807" y="-129.5" font-family="Helvetica,sans-Serif" font-size="10.00">/home/jenkins/agent</text>
<text text-anchor="start" x="807" y="-118.5" font-family="Helvetica,sans-Serif" font-size="10.00">/workspace/ild&#45;documentation</text>
<text text-anchor="start" x="807" y="-107.5" font-family="Helvetica,sans-Serif" font-size="10.00">_release_v3.5.x/sdk/c/ifxRadar</text>
<text text-anchor="middle" x="882" y="-96.5" font-family="Helvetica,sans-Serif" font-size="10.00">/AngleMonopulse.h</text>
</a>
</g>
</g>
<!-- Node16&#45;&gt;Node17 -->
<g id="edge21" class="edge">
<title>Node16&#45;&gt;Node17</title>
<path fill="none" stroke="midnightblue" d="M886,-257.25C885.03,-223.04 883.58,-171.97 882.72,-141.67"/>
<polygon fill="midnightblue" stroke="midnightblue" points="882.5,-257.39 886.28,-267.28 889.5,-257.19 882.5,-257.39"/>
</g>
<!-- Node18 -->
<g id="node18" class="node">
<title>Node18</title>
<g id="a_node18"><a xlink:href="_util_8h.html" target="_top" xlink:title="This file defines some utility functions like printing to, reading from files or printing to console.">
<polygon fill="white" stroke="black" points="910,-184 910,-225 1094,-225 1094,-184 910,-184"/>
<text text-anchor="start" x="918" y="-213" font-family="Helvetica,sans-Serif" font-size="10.00">/home/jenkins/agent</text>
<text text-anchor="start" x="918" y="-202" font-family="Helvetica,sans-Serif" font-size="10.00">/workspace/ild&#45;documentation</text>
<text text-anchor="middle" x="1002" y="-191" font-family="Helvetica,sans-Serif" font-size="10.00">_release_v3.5.x/sdk/c/ifxUtil/Util.h</text>
</a>
</g>
</g>
<!-- Node16&#45;&gt;Node18 -->
<g id="edge23" class="edge">
<title>Node16&#45;&gt;Node18</title>
<path fill="none" stroke="midnightblue" d="M928.4,-261.18C944.33,-249.13 962.05,-235.72 976.12,-225.08"/>
<polygon fill="midnightblue" stroke="midnightblue" points="926.13,-258.51 920.26,-267.34 930.35,-264.09 926.13,-258.51"/>
</g>
<!-- Node17&#45;&gt;Node6 -->
<g id="edge22" class="edge">
<title>Node17&#45;&gt;Node6</title>
<path fill="none" stroke="midnightblue" d="M882,-79.19C882,-70.28 882,-60.9 882,-52.61"/>
<polygon fill="midnightblue" stroke="midnightblue" points="878.5,-79.34 882,-89.34 885.5,-79.34 878.5,-79.34"/>
</g>
<!-- Node19&#45;&gt;Node7 -->
<g id="edge34" class="edge">
<title>Node19&#45;&gt;Node7</title>
<path fill="none" stroke="midnightblue" d="M1632.34,-278.25C1688.98,-268.39 1749.84,-253.02 1767,-231 1781.48,-212.42 1781.31,-196.71 1767,-178 1765.83,-176.47 1687.58,-155.49 1623.29,-138.45"/>
<polygon fill="midnightblue" stroke="midnightblue" points="1631.47,-274.85 1622.2,-279.97 1632.64,-281.75 1631.47,-274.85"/>
</g>
<!-- Node19&#45;&gt;Node9 -->
<g id="edge25" class="edge">
<title>Node19&#45;&gt;Node9</title>
<path fill="none" stroke="midnightblue" d="M1632.74,-284.44C1740.6,-275.43 1909.58,-258.4 2054,-231 2058.57,-230.13 2063.25,-229.16 2067.96,-228.13"/>
<polygon fill="midnightblue" stroke="midnightblue" points="1632.17,-280.98 1622.49,-285.29 1632.75,-287.95 1632.17,-280.98"/>
</g>
<!-- Node19&#45;&gt;Node14 -->
<g id="edge26" class="edge">
<title>Node19&#45;&gt;Node14</title>
<path fill="none" stroke="midnightblue" d="M1413.6,-284.16C1289.14,-274.1 1079.95,-255.44 901,-231 885.7,-228.91 869.56,-226.4 853.8,-223.78"/>
<polygon fill="midnightblue" stroke="midnightblue" points="1413.65,-287.67 1423.89,-284.99 1414.21,-280.7 1413.65,-287.67"/>
</g>
<!-- Node19&#45;&gt;Node18 -->
<g id="edge37" class="edge">
<title>Node19&#45;&gt;Node18</title>
<path fill="none" stroke="midnightblue" d="M1413.72,-279.6C1328.64,-268.81 1207.81,-251.85 1103,-231 1094.13,-229.24 1084.87,-227.19 1075.72,-225.03"/>
<polygon fill="midnightblue" stroke="midnightblue" points="1413.29,-283.07 1423.65,-280.85 1414.17,-276.13 1413.29,-283.07"/>
</g>
<!-- Node20 -->
<g id="node20" class="node">
<title>Node20</title>
<g id="a_node20"><a xlink:href="_device_mimose_8h.html" target="_top" xlink:title="Main header file for ifxMimose.">
<polygon fill="white" stroke="black" points="1112,-178.5 1112,-230.5 1288,-230.5 1288,-178.5 1112,-178.5"/>
<text text-anchor="start" x="1120" y="-218.5" font-family="Helvetica,sans-Serif" font-size="10.00">/home/jenkins/agent</text>
<text text-anchor="start" x="1120" y="-207.5" font-family="Helvetica,sans-Serif" font-size="10.00">/workspace/ild&#45;documentation</text>
<text text-anchor="start" x="1120" y="-196.5" font-family="Helvetica,sans-Serif" font-size="10.00">_release_v3.5.x/sdk/c/ifxMimose</text>
<text text-anchor="middle" x="1200" y="-185.5" font-family="Helvetica,sans-Serif" font-size="10.00">/DeviceMimose.h</text>
</a>
</g>
</g>
<!-- Node19&#45;&gt;Node20 -->
<g id="edge27" class="edge">
<title>Node19&#45;&gt;Node20</title>
<path fill="none" stroke="midnightblue" d="M1440.74,-270.34C1394.07,-257.77 1335.66,-242.04 1288.06,-229.22"/>
<polygon fill="midnightblue" stroke="midnightblue" points="1439.95,-273.75 1450.51,-272.98 1441.77,-267 1439.95,-273.75"/>
</g>
<!-- Node21 -->
<g id="node21" class="node">
<title>Node21</title>
<g id="a_node21"><a xlink:href="_motion_angle_8h.html" target="_top" xlink:title=" ">
<polygon fill="white" stroke="black" points="1306.5,-178.5 1306.5,-230.5 1505.5,-230.5 1505.5,-178.5 1306.5,-178.5"/>
<text text-anchor="start" x="1314.5" y="-218.5" font-family="Helvetica,sans-Serif" font-size="10.00">/home/jenkins/agent</text>
<text text-anchor="start" x="1314.5" y="-207.5" font-family="Helvetica,sans-Serif" font-size="10.00">/workspace/ild&#45;documentation</text>
<text text-anchor="start" x="1314.5" y="-196.5" font-family="Helvetica,sans-Serif" font-size="10.00">_release_v3.5.x/sdk/c/ifxMotionAngle</text>
<text text-anchor="middle" x="1406" y="-185.5" font-family="Helvetica,sans-Serif" font-size="10.00">/MotionAngle.h</text>
</a>
</g>
</g>
<!-- Node19&#45;&gt;Node21 -->
<g id="edge28" class="edge">
<title>Node19&#45;&gt;Node21</title>
<path fill="none" stroke="midnightblue" d="M1488.5,-266.85C1473.11,-255.4 1455.04,-241.96 1439.73,-230.58"/>
<polygon fill="midnightblue" stroke="midnightblue" points="1486.63,-269.82 1496.74,-272.98 1490.81,-264.2 1486.63,-269.82"/>
</g>
<!-- Node22 -->
<g id="node22" class="node">
<title>Node22</title>
<g id="a_node22"><a xlink:href="_angle_capon_8h.html" target="_top" xlink:title="API for the 1&#45;D Angle Capon algorithm.">
<polygon fill="white" stroke="black" points="1679,-89.5 1679,-141.5 1845,-141.5 1845,-89.5 1679,-89.5"/>
<text text-anchor="start" x="1687" y="-129.5" font-family="Helvetica,sans-Serif" font-size="10.00">/home/jenkins/agent</text>
<text text-anchor="start" x="1687" y="-118.5" font-family="Helvetica,sans-Serif" font-size="10.00">/workspace/ild&#45;documentation</text>
<text text-anchor="start" x="1687" y="-107.5" font-family="Helvetica,sans-Serif" font-size="10.00">_release_v3.5.x/sdk/c/ifxRadar</text>
<text text-anchor="middle" x="1762" y="-96.5" font-family="Helvetica,sans-Serif" font-size="10.00">/AngleCapon.h</text>
</a>
</g>
</g>
<!-- Node19&#45;&gt;Node22 -->
<g id="edge29" class="edge">
<title>Node19&#45;&gt;Node22</title>
<path fill="none" stroke="midnightblue" d="M1632.29,-286.57C1771.07,-277.91 1995.69,-259.63 2021,-231 2036.6,-213.35 2035.8,-196.33 2021,-178 1973.3,-118.92 1927.73,-160.15 1854,-142 1851.1,-141.29 1848.16,-140.55 1845.19,-139.79"/>
<polygon fill="midnightblue" stroke="midnightblue" points="1631.8,-283.1 1622.03,-287.21 1632.23,-290.08 1631.8,-283.1"/>
</g>
<!-- Node23 -->
<g id="node23" class="node">
<title>Node23</title>
<g id="a_node23"><a xlink:href="_d_b_f_8h.html" target="_top" xlink:title="API for Digital Beamforming (DBF) algorithm.">
<polygon fill="white" stroke="black" points="1814.5,-184 1814.5,-225 2011.5,-225 2011.5,-184 1814.5,-184"/>
<text text-anchor="start" x="1822.5" y="-213" font-family="Helvetica,sans-Serif" font-size="10.00">/home/jenkins/agent</text>
<text text-anchor="start" x="1822.5" y="-202" font-family="Helvetica,sans-Serif" font-size="10.00">/workspace/ild&#45;documentation</text>
<text text-anchor="middle" x="1913" y="-191" font-family="Helvetica,sans-Serif" font-size="10.00">_release_v3.5.x/sdk/c/ifxRadar/DBF.h</text>
</a>
</g>
</g>
<!-- Node19&#45;&gt;Node23 -->
<g id="edge31" class="edge">
<title>Node19&#45;&gt;Node23</title>
<path fill="none" stroke="midnightblue" d="M1621.34,-270.75C1674.29,-259.02 1740.73,-244.27 1800,-231 1808.64,-229.07 1817.64,-227.05 1826.63,-225.02"/>
<polygon fill="midnightblue" stroke="midnightblue" points="1620.28,-267.4 1611.28,-272.98 1621.8,-274.24 1620.28,-267.4"/>
</g>
<!-- Node24 -->
<g id="node24" class="node">
<title>Node24</title>
<g id="a_node24"><a xlink:href="_segmentation_8h.html" target="_top" xlink:title="API for Segmentation and Seamless Tracking algorithm.">
<polygon fill="white" stroke="black" points="1524,-178.5 1524,-230.5 1758,-230.5 1758,-178.5 1524,-178.5"/>
<text text-anchor="start" x="1532" y="-218.5" font-family="Helvetica,sans-Serif" font-size="10.00">/home/jenkins/agent</text>
<text text-anchor="start" x="1532" y="-207.5" font-family="Helvetica,sans-Serif" font-size="10.00">/workspace/ild&#45;documentation</text>
<text text-anchor="start" x="1532" y="-196.5" font-family="Helvetica,sans-Serif" font-size="10.00">_release_v3.5.x/sdk/c/ifxRadarSegmentation</text>
<text text-anchor="middle" x="1641" y="-185.5" font-family="Helvetica,sans-Serif" font-size="10.00">/Segmentation.h</text>
</a>
</g>
</g>
<!-- Node19&#45;&gt;Node24 -->
<g id="edge35" class="edge">
<title>Node19&#45;&gt;Node24</title>
<path fill="none" stroke="midnightblue" d="M1557.79,-266.85C1573.32,-255.4 1591.54,-241.96 1606.98,-230.58"/>
<polygon fill="midnightblue" stroke="midnightblue" points="1555.45,-264.22 1549.48,-272.98 1559.61,-269.86 1555.45,-264.22"/>
</g>
<!-- Node22&#45;&gt;Node6 -->
<g id="edge30" class="edge">
<title>Node22&#45;&gt;Node6</title>
<path fill="none" stroke="midnightblue" d="M1668.86,-89.68C1667.57,-89.44 1666.28,-89.22 1665,-89 1412.42,-46.23 1108.85,-33.12 965.17,-29.16"/>
<polygon fill="midnightblue" stroke="midnightblue" points="1668.39,-93.15 1678.87,-91.62 1669.72,-86.28 1668.39,-93.15"/>
</g>
<!-- Node23&#45;&gt;Node6 -->
<g id="edge32" class="edge">
<title>Node23&#45;&gt;Node6</title>
<path fill="none" stroke="midnightblue" d="M1813.45,-181.7C1751.92,-167.64 1682.39,-150.45 1670,-142 1646.05,-125.67 1657.22,-103.28 1632,-89 1575.09,-56.77 1148.3,-37.33 965.12,-30.39"/>
<polygon fill="midnightblue" stroke="midnightblue" points="1812.72,-185.12 1823.24,-183.93 1814.27,-178.3 1812.72,-185.12"/>
</g>
<!-- Node23&#45;&gt;Node7 -->
<g id="edge33" class="edge">
<title>Node23&#45;&gt;Node7</title>
<path fill="none" stroke="midnightblue" d="M1816.53,-181.7C1810.94,-180.45 1805.4,-179.21 1800,-178 1727.59,-161.83 1709.11,-159.43 1637,-142 1632.43,-140.9 1627.75,-139.74 1623.02,-138.56"/>
<polygon fill="midnightblue" stroke="midnightblue" points="1816.11,-185.19 1826.64,-183.97 1817.64,-178.36 1816.11,-185.19"/>
</g>
<!-- Node25 -->
<g id="node25" class="node">
<title>Node25</title>
<g id="a_node25"><a xlink:href="_radar_segmentation_8h.html" target="_top" xlink:title="Header for ifxRadarSegmentation.">
<polygon fill="white" stroke="black" points="1205,-89.5 1205,-141.5 1439,-141.5 1439,-89.5 1205,-89.5"/>
<text text-anchor="start" x="1213" y="-129.5" font-family="Helvetica,sans-Serif" font-size="10.00">/home/jenkins/agent</text>
<text text-anchor="start" x="1213" y="-118.5" font-family="Helvetica,sans-Serif" font-size="10.00">/workspace/ild&#45;documentation</text>
<text text-anchor="start" x="1213" y="-107.5" font-family="Helvetica,sans-Serif" font-size="10.00">_release_v3.5.x/sdk/c/ifxRadarSegmentation</text>
<text text-anchor="middle" x="1322" y="-96.5" font-family="Helvetica,sans-Serif" font-size="10.00">/RadarSegmentation.h</text>
</a>
</g>
</g>
<!-- Node24&#45;&gt;Node25 -->
<g id="edge36" class="edge">
<title>Node24&#45;&gt;Node25</title>
<path fill="none" stroke="midnightblue" d="M1539.31,-175.77C1499.01,-164.78 1453.01,-152.23 1413.74,-141.52"/>
<polygon fill="midnightblue" stroke="midnightblue" points="1538.59,-179.2 1549.16,-178.45 1540.43,-172.44 1538.59,-179.2"/>
</g>
<!-- Node26&#45;&gt;Node6 -->
<g id="edge39" class="edge">
<title>Node26&#45;&gt;Node6</title>
<path fill="none" stroke="midnightblue" d="M622.71,-346.5C618.06,-303.51 616.27,-229.91 648,-178 685.34,-116.9 757.91,-76.1 812.38,-52.57"/>
<polygon fill="midnightblue" stroke="midnightblue" points="619.24,-346.97 623.9,-356.48 626.19,-346.14 619.24,-346.97"/>
</g>
</g>
</svg>
