<?xml version="1.0" encoding="UTF-8" standalone="no"?>
<!DOCTYPE svg PUBLIC "-//W3C//DTD SVG 1.1//EN"
 "http://www.w3.org/Graphics/SVG/1.1/DTD/svg11.dtd">
<!-- Generated by graphviz version 2.43.0 (0)
 -->
<!-- Title: /home/jenkins/agent/workspace/ild&#45;documentation_release_v3.5.x/sdk/c/ifxComPort Pages: 1 -->
<svg width="112pt" height="167pt"
 viewBox="0.00 0.00 112.00 167.00" xmlns="http://www.w3.org/2000/svg" xmlns:xlink="http://www.w3.org/1999/xlink">
<g id="graph0" class="graph" transform="scale(1 1) rotate(0) translate(4 163)">
<title>/home/jenkins/agent/workspace/ild&#45;documentation_release_v3.5.x/sdk/c/ifxComPort</title>
<polygon fill="white" stroke="transparent" points="-4,4 -4,-163 108,-163 108,4 -4,4"/>
<g id="clust1" class="cluster">
<title>clusterdir_cb1b8b20a863d3b4f720b5073297472d</title>
<g id="a_clust1"><a xlink:href="dir_cb1b8b20a863d3b4f720b5073297472d.html" target="_top" xlink:title="c">
<polygon fill="#ddddee" stroke="black" points="8,-8 8,-151 96,-151 96,-8 8,-8"/>
<text text-anchor="middle" x="52" y="-139" font-family="Helvetica,sans-Serif" font-size="10.00">c</text>
</a>
</g>
</g>
<!-- dir_567fd94d20573b82fae4b73e87e5ca9b -->
<g id="node1" class="node">
<title>dir_567fd94d20573b82fae4b73e87e5ca9b</title>
<g id="a_node1"><a xlink:href="dir_567fd94d20573b82fae4b73e87e5ca9b.html" target="_top" xlink:title="ifxBase">
<polygon fill="none" stroke="black" points="79,-52 25,-52 25,-16 79,-16 79,-52"/>
<text text-anchor="middle" x="52" y="-31.5" font-family="Helvetica,sans-Serif" font-size="10.00">ifxBase</text>
</a>
</g>
</g>
<!-- dir_6a1d92fbd1ce60a5304dee8b52262438 -->
<g id="node2" class="node">
<title>dir_6a1d92fbd1ce60a5304dee8b52262438</title>
<g id="a_node2"><a xlink:href="dir_6a1d92fbd1ce60a5304dee8b52262438.html" target="_top" xlink:title="ifxComPort">
<polygon fill="#eeeeff" stroke="black" points="87.5,-124 16.5,-124 16.5,-88 87.5,-88 87.5,-124"/>
<text text-anchor="middle" x="52" y="-103.5" font-family="Helvetica,sans-Serif" font-size="10.00">ifxComPort</text>
</a>
</g>
</g>
<!-- dir_6a1d92fbd1ce60a5304dee8b52262438&#45;&gt;dir_567fd94d20573b82fae4b73e87e5ca9b -->
<g id="edge1" class="edge">
<title>dir_6a1d92fbd1ce60a5304dee8b52262438&#45;&gt;dir_567fd94d20573b82fae4b73e87e5ca9b</title>
<path fill="none" stroke="black" d="M52,-87.7C52,-79.98 52,-70.71 52,-62.11"/>
<polygon fill="black" stroke="black" points="55.5,-62.1 52,-52.1 48.5,-62.1 55.5,-62.1"/>
<g id="a_edge1&#45;headlabel"><a xlink:href="dir_000008_000007.html" target="_top" xlink:title="1">
<text text-anchor="middle" x="58.34" y="-63.2" font-family="Helvetica,sans-Serif" font-size="10.00">1</text>
</a>
</g>
</g>
</g>
</svg>
