<?xml version="1.0" encoding="UTF-8" standalone="no"?>
<!DOCTYPE svg PUBLIC "-//W3C//DTD SVG 1.1//EN"
 "http://www.w3.org/Graphics/SVG/1.1/DTD/svg11.dtd">
<!-- Generated by graphviz version 2.43.0 (0)
 -->
<!-- Title: /home/jenkins/agent/workspace/ild&#45;documentation_release_v3.5.x/sdk/c Pages: 1 -->
<svg width="772pt" height="399pt"
 viewBox="0.00 0.00 772.00 399.00" xmlns="http://www.w3.org/2000/svg" xmlns:xlink="http://www.w3.org/1999/xlink">
<g id="graph0" class="graph" transform="scale(1 1) rotate(0) translate(4 395)">
<title>/home/jenkins/agent/workspace/ild&#45;documentation_release_v3.5.x/sdk/c</title>
<polygon fill="white" stroke="transparent" points="-4,4 -4,-395 768,-395 768,4 -4,4"/>
<g id="clust1" class="cluster">
<title>clusterdir_243a4ba6b4f893d71afbb5a3e90552fa</title>
<g id="a_clust1"><a xlink:href="dir_243a4ba6b4f893d71afbb5a3e90552fa.html" target="_top" xlink:title="sdk">
<polygon fill="#ddddee" stroke="black" points="8,-8 8,-383 756,-383 756,-8 8,-8"/>
<text text-anchor="middle" x="382" y="-371" font-family="Helvetica,sans-Serif" font-size="10.00">sdk</text>
</a>
</g>
</g>
<g id="clust2" class="cluster">
<title>clusterdir_cb1b8b20a863d3b4f720b5073297472d</title>
<g id="a_clust2"><a xlink:href="dir_cb1b8b20a863d3b4f720b5073297472d.html" target="_top">
<polygon fill="#eeeeff" stroke="black" points="16,-16 16,-356 748,-356 748,-16 16,-16"/>
</a>
</g>
</g>
<!-- dir_cb1b8b20a863d3b4f720b5073297472d -->
<g id="node1" class="node">
<title>dir_cb1b8b20a863d3b4f720b5073297472d</title>
<text text-anchor="middle" x="624" y="-327.5" font-family="Helvetica,sans-Serif" font-size="10.00">c</text>
</g>
<!-- dir_f3c50492aca301091183f2e22e50c2c8 -->
<g id="node2" class="node">
<title>dir_f3c50492aca301091183f2e22e50c2c8</title>
<g id="a_node2"><a xlink:href="dir_f3c50492aca301091183f2e22e50c2c8.html" target="_top" xlink:title="ifxAdvancedMotionSensing">
<polygon fill="white" stroke="black" points="740.5,-132 591.5,-132 591.5,-96 740.5,-96 740.5,-132"/>
<text text-anchor="middle" x="666" y="-111.5" font-family="Helvetica,sans-Serif" font-size="10.00">ifxAdvancedMotionSensing</text>
</a>
</g>
</g>
<!-- dir_567fd94d20573b82fae4b73e87e5ca9b -->
<g id="node5" class="node">
<title>dir_567fd94d20573b82fae4b73e87e5ca9b</title>
<g id="a_node5"><a xlink:href="dir_567fd94d20573b82fae4b73e87e5ca9b.html" target="_top" xlink:title="ifxBase">
<polygon fill="white" stroke="black" points="286,-60 232,-60 232,-24 286,-24 286,-60"/>
<text text-anchor="middle" x="259" y="-39.5" font-family="Helvetica,sans-Serif" font-size="10.00">ifxBase</text>
</a>
</g>
</g>
<!-- dir_f3c50492aca301091183f2e22e50c2c8&#45;&gt;dir_567fd94d20573b82fae4b73e87e5ca9b -->
<g id="edge4" class="edge">
<title>dir_f3c50492aca301091183f2e22e50c2c8&#45;&gt;dir_567fd94d20573b82fae4b73e87e5ca9b</title>
<path fill="none" stroke="black" d="M591.37,-97.57C588.55,-97.03 585.75,-96.51 583,-96 479.62,-76.97 357.04,-57.85 296.57,-48.65"/>
<polygon fill="black" stroke="black" points="296.78,-45.14 286.37,-47.1 295.73,-52.06 296.78,-45.14"/>
<g id="a_edge4&#45;headlabel"><a xlink:href="dir_000004_000007.html" target="_top" xlink:title="2">
<text text-anchor="middle" x="300.76" y="-40.37" font-family="Helvetica,sans-Serif" font-size="10.00">2</text>
</a>
</g>
</g>
<!-- dir_4697e86ad33e45c91248444b464b6119 -->
<g id="node3" class="node">
<title>dir_4697e86ad33e45c91248444b464b6119</title>
<g id="a_node3"><a xlink:href="dir_4697e86ad33e45c91248444b464b6119.html" target="_top" xlink:title="ifxAlgo">
<polygon fill="white" stroke="black" points="210,-132 156,-132 156,-96 210,-96 210,-132"/>
<text text-anchor="middle" x="183" y="-111.5" font-family="Helvetica,sans-Serif" font-size="10.00">ifxAlgo</text>
</a>
</g>
</g>
<!-- dir_4697e86ad33e45c91248444b464b6119&#45;&gt;dir_567fd94d20573b82fae4b73e87e5ca9b -->
<g id="edge3" class="edge">
<title>dir_4697e86ad33e45c91248444b464b6119&#45;&gt;dir_567fd94d20573b82fae4b73e87e5ca9b</title>
<path fill="none" stroke="black" d="M201.79,-95.7C211.17,-87.05 222.68,-76.45 232.91,-67.03"/>
<polygon fill="black" stroke="black" points="235.45,-69.45 240.43,-60.1 230.7,-64.3 235.45,-69.45"/>
<g id="a_edge3&#45;headlabel"><a xlink:href="dir_000005_000007.html" target="_top" xlink:title="16">
<text text-anchor="middle" x="234.72" y="-71.48" font-family="Helvetica,sans-Serif" font-size="10.00">16</text>
</a>
</g>
</g>
<!-- dir_1346ff5bb9c7843a219db733dcd633fb -->
<g id="node4" class="node">
<title>dir_1346ff5bb9c7843a219db733dcd633fb</title>
<g id="a_node4"><a xlink:href="dir_1346ff5bb9c7843a219db733dcd633fb.html" target="_top" xlink:title="ifxAvian">
<polygon fill="white" stroke="black" points="326,-276 270,-276 270,-240 326,-240 326,-276"/>
<text text-anchor="middle" x="298" y="-255.5" font-family="Helvetica,sans-Serif" font-size="10.00">ifxAvian</text>
</a>
</g>
</g>
<!-- dir_1346ff5bb9c7843a219db733dcd633fb&#45;&gt;dir_567fd94d20573b82fae4b73e87e5ca9b -->
<g id="edge9" class="edge">
<title>dir_1346ff5bb9c7843a219db733dcd633fb&#45;&gt;dir_567fd94d20573b82fae4b73e87e5ca9b</title>
<path fill="none" stroke="black" d="M281.57,-239.91C273.39,-230.2 264.34,-217.35 260,-204 245.41,-159.1 249.64,-103.36 254.2,-70.63"/>
<polygon fill="black" stroke="black" points="257.71,-70.88 255.74,-60.47 250.78,-69.83 257.71,-70.88"/>
<g id="a_edge9&#45;headlabel"><a xlink:href="dir_000006_000007.html" target="_top" xlink:title="3">
<text text-anchor="middle" x="259.98" y="-72.35" font-family="Helvetica,sans-Serif" font-size="10.00">3</text>
</a>
</g>
</g>
<!-- dir_a1a4028ebd46eb1c08c7120d66dddfdb -->
<g id="node8" class="node">
<title>dir_a1a4028ebd46eb1c08c7120d66dddfdb</title>
<g id="a_node8"><a xlink:href="dir_a1a4028ebd46eb1c08c7120d66dddfdb.html" target="_top" xlink:title="ifxFmcw">
<polygon fill="white" stroke="red" points="327.5,-204 268.5,-204 268.5,-168 327.5,-168 327.5,-204"/>
<text text-anchor="middle" x="298" y="-183.5" font-family="Helvetica,sans-Serif" font-size="10.00">ifxFmcw</text>
</a>
</g>
</g>
<!-- dir_1346ff5bb9c7843a219db733dcd633fb&#45;&gt;dir_a1a4028ebd46eb1c08c7120d66dddfdb -->
<g id="edge10" class="edge">
<title>dir_1346ff5bb9c7843a219db733dcd633fb&#45;&gt;dir_a1a4028ebd46eb1c08c7120d66dddfdb</title>
<path fill="none" stroke="black" d="M298,-239.7C298,-231.98 298,-222.71 298,-214.11"/>
<polygon fill="black" stroke="black" points="301.5,-214.1 298,-204.1 294.5,-214.1 301.5,-214.1"/>
<g id="a_edge10&#45;headlabel"><a xlink:href="dir_000006_000010.html" target="_top" xlink:title="3">
<text text-anchor="middle" x="304.34" y="-215.2" font-family="Helvetica,sans-Serif" font-size="10.00">3</text>
</a>
</g>
</g>
<!-- dir_c4ebba6b7f8869d2f5ecfd530fb1e966 -->
<g id="node13" class="node">
<title>dir_c4ebba6b7f8869d2f5ecfd530fb1e966</title>
<g id="a_node13"><a xlink:href="dir_c4ebba6b7f8869d2f5ecfd530fb1e966.html" target="_top" xlink:title="ifxRadarDeviceCommon">
<polygon fill="white" stroke="black" points="424,-132 288,-132 288,-96 424,-96 424,-132"/>
<text text-anchor="middle" x="356" y="-111.5" font-family="Helvetica,sans-Serif" font-size="10.00">ifxRadarDeviceCommon</text>
</a>
</g>
</g>
<!-- dir_1346ff5bb9c7843a219db733dcd633fb&#45;&gt;dir_c4ebba6b7f8869d2f5ecfd530fb1e966 -->
<g id="edge11" class="edge">
<title>dir_1346ff5bb9c7843a219db733dcd633fb&#45;&gt;dir_c4ebba6b7f8869d2f5ecfd530fb1e966</title>
<path fill="none" stroke="black" d="M313.78,-239.56C321.86,-229.76 331.19,-216.92 337,-204 345.84,-184.34 350.65,-160.35 353.22,-142.23"/>
<polygon fill="black" stroke="black" points="356.72,-142.43 354.52,-132.06 349.78,-141.54 356.72,-142.43"/>
<g id="a_edge11&#45;headlabel"><a xlink:href="dir_000006_000016.html" target="_top" xlink:title="1">
<text text-anchor="middle" x="359.09" y="-143.85" font-family="Helvetica,sans-Serif" font-size="10.00">1</text>
</a>
</g>
</g>
<!-- dir_6a1d92fbd1ce60a5304dee8b52262438 -->
<g id="node6" class="node">
<title>dir_6a1d92fbd1ce60a5304dee8b52262438</title>
<g id="a_node6"><a xlink:href="dir_6a1d92fbd1ce60a5304dee8b52262438.html" target="_top" xlink:title="ifxComPort">
<polygon fill="white" stroke="black" points="573.5,-132 502.5,-132 502.5,-96 573.5,-96 573.5,-132"/>
<text text-anchor="middle" x="538" y="-111.5" font-family="Helvetica,sans-Serif" font-size="10.00">ifxComPort</text>
</a>
</g>
</g>
<!-- dir_6a1d92fbd1ce60a5304dee8b52262438&#45;&gt;dir_567fd94d20573b82fae4b73e87e5ca9b -->
<g id="edge21" class="edge">
<title>dir_6a1d92fbd1ce60a5304dee8b52262438&#45;&gt;dir_567fd94d20573b82fae4b73e87e5ca9b</title>
<path fill="none" stroke="black" d="M502.36,-100.4C497.55,-98.84 492.67,-97.33 488,-96 421.01,-76.91 341.54,-59.71 296.01,-50.37"/>
<polygon fill="black" stroke="black" points="296.51,-46.9 286.02,-48.34 295.12,-53.76 296.51,-46.9"/>
<g id="a_edge21&#45;headlabel"><a xlink:href="dir_000008_000007.html" target="_top" xlink:title="1">
<text text-anchor="middle" x="300.6" y="-42.34" font-family="Helvetica,sans-Serif" font-size="10.00">1</text>
</a>
</g>
</g>
<!-- dir_f5349bc518afb18747dd3fc30abc484d -->
<g id="node7" class="node">
<title>dir_f5349bc518afb18747dd3fc30abc484d</title>
<g id="a_node7"><a xlink:href="dir_f5349bc518afb18747dd3fc30abc484d.html" target="_top" xlink:title="ifxCw">
<polygon fill="white" stroke="black" points="490,-348 436,-348 436,-312 490,-312 490,-348"/>
<text text-anchor="middle" x="463" y="-327.5" font-family="Helvetica,sans-Serif" font-size="10.00">ifxCw</text>
</a>
</g>
</g>
<!-- dir_f5349bc518afb18747dd3fc30abc484d&#45;&gt;dir_1346ff5bb9c7843a219db733dcd633fb -->
<g id="edge15" class="edge">
<title>dir_f5349bc518afb18747dd3fc30abc484d&#45;&gt;dir_1346ff5bb9c7843a219db733dcd633fb</title>
<path fill="none" stroke="black" d="M435.94,-316.04C432.93,-314.65 429.91,-313.28 427,-312 396.46,-298.52 361.39,-284.19 335.54,-273.83"/>
<polygon fill="black" stroke="black" points="336.69,-270.52 326.11,-270.06 334.1,-277.02 336.69,-270.52"/>
<g id="a_edge15&#45;headlabel"><a xlink:href="dir_000009_000006.html" target="_top" xlink:title="1">
<text text-anchor="middle" x="341.08" y="-266.72" font-family="Helvetica,sans-Serif" font-size="10.00">1</text>
</a>
</g>
</g>
<!-- dir_f5349bc518afb18747dd3fc30abc484d&#45;&gt;dir_567fd94d20573b82fae4b73e87e5ca9b -->
<g id="edge16" class="edge">
<title>dir_f5349bc518afb18747dd3fc30abc484d&#45;&gt;dir_567fd94d20573b82fae4b73e87e5ca9b</title>
<path fill="none" stroke="black" d="M475.95,-311.98C496.71,-282.49 533.37,-220.08 515,-168 508.17,-148.62 474.22,-107.21 457,-96 407.24,-63.6 338.23,-50.92 296.2,-46.02"/>
<polygon fill="black" stroke="black" points="296.44,-42.53 286.13,-44.93 295.69,-49.48 296.44,-42.53"/>
<g id="a_edge16&#45;headlabel"><a xlink:href="dir_000009_000007.html" target="_top" xlink:title="1">
<text text-anchor="middle" x="300.32" y="-37.59" font-family="Helvetica,sans-Serif" font-size="10.00">1</text>
</a>
</g>
</g>
<!-- dir_f5349bc518afb18747dd3fc30abc484d&#45;&gt;dir_a1a4028ebd46eb1c08c7120d66dddfdb -->
<g id="edge17" class="edge">
<title>dir_f5349bc518afb18747dd3fc30abc484d&#45;&gt;dir_a1a4028ebd46eb1c08c7120d66dddfdb</title>
<path fill="none" stroke="black" d="M443.1,-311.87C413.86,-286.71 359.18,-239.65 325.94,-211.04"/>
<polygon fill="black" stroke="black" points="327.84,-208.06 317.97,-204.19 323.27,-213.37 327.84,-208.06"/>
<g id="a_edge17&#45;headlabel"><a xlink:href="dir_000009_000010.html" target="_top" xlink:title="1">
<text text-anchor="middle" x="332.41" y="-205.75" font-family="Helvetica,sans-Serif" font-size="10.00">1</text>
</a>
</g>
</g>
<!-- dir_a1a4028ebd46eb1c08c7120d66dddfdb&#45;&gt;dir_567fd94d20573b82fae4b73e87e5ca9b -->
<g id="edge19" class="edge">
<title>dir_a1a4028ebd46eb1c08c7120d66dddfdb&#45;&gt;dir_567fd94d20573b82fae4b73e87e5ca9b</title>
<path fill="none" stroke="black" d="M291.3,-167.99C287.39,-157.68 282.54,-144.2 279,-132 273.07,-111.6 267.87,-88.14 264.25,-70.43"/>
<polygon fill="black" stroke="black" points="267.61,-69.34 262.22,-60.22 260.74,-70.71 267.61,-69.34"/>
<g id="a_edge19&#45;headlabel"><a xlink:href="dir_000010_000007.html" target="_top" xlink:title="6">
<text text-anchor="middle" x="271.09" y="-69.81" font-family="Helvetica,sans-Serif" font-size="10.00">6</text>
</a>
</g>
</g>
<!-- dir_a1a4028ebd46eb1c08c7120d66dddfdb&#45;&gt;dir_c4ebba6b7f8869d2f5ecfd530fb1e966 -->
<g id="edge20" class="edge">
<title>dir_a1a4028ebd46eb1c08c7120d66dddfdb&#45;&gt;dir_c4ebba6b7f8869d2f5ecfd530fb1e966</title>
<path fill="none" stroke="black" d="M312.34,-167.7C319.29,-159.3 327.77,-149.07 335.4,-139.86"/>
<polygon fill="black" stroke="black" points="338.14,-142.04 341.83,-132.1 332.75,-137.57 338.14,-142.04"/>
<g id="a_edge20&#45;headlabel"><a xlink:href="dir_000010_000016.html" target="_top" xlink:title="1">
<text text-anchor="middle" x="338.04" y="-144.12" font-family="Helvetica,sans-Serif" font-size="10.00">1</text>
</a>
</g>
</g>
<!-- dir_76b86b11bf29005c7d83eb3c36ae4545 -->
<g id="node9" class="node">
<title>dir_76b86b11bf29005c7d83eb3c36ae4545</title>
<g id="a_node9"><a xlink:href="dir_76b86b11bf29005c7d83eb3c36ae4545.html" target="_top" xlink:title="ifxLtr11">
<polygon fill="white" stroke="black" points="506,-204 452,-204 452,-168 506,-168 506,-204"/>
<text text-anchor="middle" x="479" y="-183.5" font-family="Helvetica,sans-Serif" font-size="10.00">ifxLtr11</text>
</a>
</g>
</g>
<!-- dir_76b86b11bf29005c7d83eb3c36ae4545&#45;&gt;dir_567fd94d20573b82fae4b73e87e5ca9b -->
<g id="edge5" class="edge">
<title>dir_76b86b11bf29005c7d83eb3c36ae4545&#45;&gt;dir_567fd94d20573b82fae4b73e87e5ca9b</title>
<path fill="none" stroke="black" d="M476.18,-167.68C472,-147.59 462.25,-114.84 441,-96 400.42,-60.03 336.68,-48.41 296.4,-44.69"/>
<polygon fill="black" stroke="black" points="296.45,-41.18 286.2,-43.87 295.89,-48.16 296.45,-41.18"/>
<g id="a_edge5&#45;headlabel"><a xlink:href="dir_000012_000007.html" target="_top" xlink:title="5">
<text text-anchor="middle" x="300.26" y="-36.14" font-family="Helvetica,sans-Serif" font-size="10.00">5</text>
</a>
</g>
</g>
<!-- dir_76b86b11bf29005c7d83eb3c36ae4545&#45;&gt;dir_c4ebba6b7f8869d2f5ecfd530fb1e966 -->
<g id="edge6" class="edge">
<title>dir_76b86b11bf29005c7d83eb3c36ae4545&#45;&gt;dir_c4ebba6b7f8869d2f5ecfd530fb1e966</title>
<path fill="none" stroke="black" d="M451.7,-169.46C435.04,-159.98 413.46,-147.7 395.01,-137.2"/>
<polygon fill="black" stroke="black" points="396.66,-134.12 386.24,-132.21 393.2,-140.2 396.66,-134.12"/>
<g id="a_edge6&#45;headlabel"><a xlink:href="dir_000012_000016.html" target="_top" xlink:title="1">
<text text-anchor="middle" x="401.19" y="-130.93" font-family="Helvetica,sans-Serif" font-size="10.00">1</text>
</a>
</g>
</g>
<!-- dir_8c97a70ee96cf0b36082df892b31e964 -->
<g id="node10" class="node">
<title>dir_8c97a70ee96cf0b36082df892b31e964</title>
<g id="a_node10"><a xlink:href="dir_8c97a70ee96cf0b36082df892b31e964.html" target="_top" xlink:title="ifxMimose">
<polygon fill="white" stroke="black" points="434,-204 366,-204 366,-168 434,-168 434,-204"/>
<text text-anchor="middle" x="400" y="-183.5" font-family="Helvetica,sans-Serif" font-size="10.00">ifxMimose</text>
</a>
</g>
</g>
<!-- dir_8c97a70ee96cf0b36082df892b31e964&#45;&gt;dir_567fd94d20573b82fae4b73e87e5ca9b -->
<g id="edge12" class="edge">
<title>dir_8c97a70ee96cf0b36082df892b31e964&#45;&gt;dir_567fd94d20573b82fae4b73e87e5ca9b</title>
<path fill="none" stroke="black" d="M415.41,-167.88C430.57,-148.88 449.28,-117.98 433,-96 401.7,-53.75 337.51,-44.04 296.45,-42.41"/>
<polygon fill="black" stroke="black" points="296.38,-38.91 286.29,-42.16 296.2,-45.91 296.38,-38.91"/>
<g id="a_edge12&#45;headlabel"><a xlink:href="dir_000013_000007.html" target="_top" xlink:title="3">
<text text-anchor="middle" x="300.04" y="-33.66" font-family="Helvetica,sans-Serif" font-size="10.00">3</text>
</a>
</g>
</g>
<!-- dir_8c97a70ee96cf0b36082df892b31e964&#45;&gt;dir_c4ebba6b7f8869d2f5ecfd530fb1e966 -->
<g id="edge13" class="edge">
<title>dir_8c97a70ee96cf0b36082df892b31e964&#45;&gt;dir_c4ebba6b7f8869d2f5ecfd530fb1e966</title>
<path fill="none" stroke="black" d="M389.12,-167.7C384.01,-159.56 377.8,-149.69 372.16,-140.7"/>
<polygon fill="black" stroke="black" points="375.04,-138.71 366.75,-132.1 369.11,-142.43 375.04,-138.71"/>
<g id="a_edge13&#45;headlabel"><a xlink:href="dir_000013_000016.html" target="_top" xlink:title="1">
<text text-anchor="middle" x="379.35" y="-137.74" font-family="Helvetica,sans-Serif" font-size="10.00">1</text>
</a>
</g>
</g>
<!-- dir_b52bee1fca023028b1ddc7682ae2149b -->
<g id="node11" class="node">
<title>dir_b52bee1fca023028b1ddc7682ae2149b</title>
<g id="a_node11"><a xlink:href="dir_b52bee1fca023028b1ddc7682ae2149b.html" target="_top" xlink:title="ifxMotionAngle">
<polygon fill="white" stroke="black" points="417.5,-348 326.5,-348 326.5,-312 417.5,-312 417.5,-348"/>
<text text-anchor="middle" x="372" y="-327.5" font-family="Helvetica,sans-Serif" font-size="10.00">ifxMotionAngle</text>
</a>
</g>
</g>
<!-- dir_b52bee1fca023028b1ddc7682ae2149b&#45;&gt;dir_1346ff5bb9c7843a219db733dcd633fb -->
<g id="edge1" class="edge">
<title>dir_b52bee1fca023028b1ddc7682ae2149b&#45;&gt;dir_1346ff5bb9c7843a219db733dcd633fb</title>
<path fill="none" stroke="black" d="M353.71,-311.7C344.57,-303.05 333.36,-292.45 323.4,-283.03"/>
<polygon fill="black" stroke="black" points="325.75,-280.43 316.08,-276.1 320.94,-285.52 325.75,-280.43"/>
<g id="a_edge1&#45;headlabel"><a xlink:href="dir_000014_000006.html" target="_top" xlink:title="1">
<text text-anchor="middle" x="330.31" y="-278.34" font-family="Helvetica,sans-Serif" font-size="10.00">1</text>
</a>
</g>
</g>
<!-- dir_b52bee1fca023028b1ddc7682ae2149b&#45;&gt;dir_567fd94d20573b82fae4b73e87e5ca9b -->
<g id="edge2" class="edge">
<title>dir_b52bee1fca023028b1ddc7682ae2149b&#45;&gt;dir_567fd94d20573b82fae4b73e87e5ca9b</title>
<path fill="none" stroke="black" d="M326.31,-312.11C299.69,-301.36 269.68,-287.37 261,-276 214.56,-215.16 235.67,-116.99 249.85,-69.89"/>
<polygon fill="black" stroke="black" points="253.26,-70.71 252.92,-60.12 246.58,-68.62 253.26,-70.71"/>
<g id="a_edge2&#45;headlabel"><a xlink:href="dir_000014_000007.html" target="_top" xlink:title="2">
<text text-anchor="middle" x="254.89" y="-72.49" font-family="Helvetica,sans-Serif" font-size="10.00">2</text>
</a>
</g>
</g>
<!-- dir_dab4b19e452ad33ce9758a674c7abd78 -->
<g id="node12" class="node">
<title>dir_dab4b19e452ad33ce9758a674c7abd78</title>
<g id="a_node12"><a xlink:href="dir_dab4b19e452ad33ce9758a674c7abd78.html" target="_top" xlink:title="ifxRadar">
<polygon fill="white" stroke="black" points="202,-204 144,-204 144,-168 202,-168 202,-204"/>
<text text-anchor="middle" x="173" y="-183.5" font-family="Helvetica,sans-Serif" font-size="10.00">ifxRadar</text>
</a>
</g>
</g>
<!-- dir_dab4b19e452ad33ce9758a674c7abd78&#45;&gt;dir_4697e86ad33e45c91248444b464b6119 -->
<g id="edge24" class="edge">
<title>dir_dab4b19e452ad33ce9758a674c7abd78&#45;&gt;dir_4697e86ad33e45c91248444b464b6119</title>
<path fill="none" stroke="black" d="M175.47,-167.7C176.57,-159.98 177.9,-150.71 179.13,-142.11"/>
<polygon fill="black" stroke="black" points="182.61,-142.5 180.56,-132.1 175.68,-141.51 182.61,-142.5"/>
<g id="a_edge24&#45;headlabel"><a xlink:href="dir_000015_000005.html" target="_top" xlink:title="5">
<text text-anchor="middle" x="184.91" y="-143.96" font-family="Helvetica,sans-Serif" font-size="10.00">5</text>
</a>
</g>
</g>
<!-- dir_dab4b19e452ad33ce9758a674c7abd78&#45;&gt;dir_567fd94d20573b82fae4b73e87e5ca9b -->
<g id="edge25" class="edge">
<title>dir_dab4b19e452ad33ce9758a674c7abd78&#45;&gt;dir_567fd94d20573b82fae4b73e87e5ca9b</title>
<path fill="none" stroke="black" d="M160.09,-167.76C147.7,-148.93 132.79,-118.44 147,-96 163.35,-70.17 196.07,-56.68 221.94,-49.8"/>
<polygon fill="black" stroke="black" points="222.94,-53.16 231.83,-47.39 221.29,-46.35 222.94,-53.16"/>
<g id="a_edge25&#45;headlabel"><a xlink:href="dir_000015_000007.html" target="_top" xlink:title="20">
<text text-anchor="middle" x="220.12" y="-54.26" font-family="Helvetica,sans-Serif" font-size="10.00">20</text>
</a>
</g>
</g>
<!-- dir_c4ebba6b7f8869d2f5ecfd530fb1e966&#45;&gt;dir_567fd94d20573b82fae4b73e87e5ca9b -->
<g id="edge14" class="edge">
<title>dir_c4ebba6b7f8869d2f5ecfd530fb1e966&#45;&gt;dir_567fd94d20573b82fae4b73e87e5ca9b</title>
<path fill="none" stroke="black" d="M332.02,-95.7C319.69,-86.8 304.48,-75.82 291.15,-66.2"/>
<polygon fill="black" stroke="black" points="292.86,-63.12 282.7,-60.1 288.76,-68.79 292.86,-63.12"/>
<g id="a_edge14&#45;headlabel"><a xlink:href="dir_000016_000007.html" target="_top" xlink:title="1">
<text text-anchor="middle" x="297.44" y="-60.42" font-family="Helvetica,sans-Serif" font-size="10.00">1</text>
</a>
</g>
</g>
<!-- dir_2946b6fdb410a6c9ded9431103fcb66a -->
<g id="node14" class="node">
<title>dir_2946b6fdb410a6c9ded9431103fcb66a</title>
<g id="a_node14"><a xlink:href="dir_2946b6fdb410a6c9ded9431103fcb66a.html" target="_top" xlink:title="ifxRadarPresenceSensing">
<polygon fill="white" stroke="black" points="308,-348 168,-348 168,-312 308,-312 308,-348"/>
<text text-anchor="middle" x="238" y="-327.5" font-family="Helvetica,sans-Serif" font-size="10.00">ifxRadarPresenceSensing</text>
</a>
</g>
</g>
<!-- dir_2946b6fdb410a6c9ded9431103fcb66a&#45;&gt;dir_1346ff5bb9c7843a219db733dcd633fb -->
<g id="edge7" class="edge">
<title>dir_2946b6fdb410a6c9ded9431103fcb66a&#45;&gt;dir_1346ff5bb9c7843a219db733dcd633fb</title>
<path fill="none" stroke="black" d="M252.83,-311.7C260.02,-303.3 268.8,-293.07 276.69,-283.86"/>
<polygon fill="black" stroke="black" points="279.49,-285.97 283.34,-276.1 274.17,-281.42 279.49,-285.97"/>
<g id="a_edge7&#45;headlabel"><a xlink:href="dir_000017_000006.html" target="_top" xlink:title="2">
<text text-anchor="middle" x="279.31" y="-288.05" font-family="Helvetica,sans-Serif" font-size="10.00">2</text>
</a>
</g>
</g>
<!-- dir_2946b6fdb410a6c9ded9431103fcb66a&#45;&gt;dir_567fd94d20573b82fae4b73e87e5ca9b -->
<g id="edge8" class="edge">
<title>dir_2946b6fdb410a6c9ded9431103fcb66a&#45;&gt;dir_567fd94d20573b82fae4b73e87e5ca9b</title>
<path fill="none" stroke="black" d="M216.85,-311.78C191.74,-289.83 151.24,-249.26 135,-204 128.83,-186.8 127.76,-109.67 137,-96 156,-67.88 193.39,-54.58 221.79,-48.35"/>
<polygon fill="black" stroke="black" points="222.68,-51.75 231.8,-46.36 221.31,-44.88 222.68,-51.75"/>
<g id="a_edge8&#45;headlabel"><a xlink:href="dir_000017_000007.html" target="_top" xlink:title="2">
<text text-anchor="middle" x="219.7" y="-52.73" font-family="Helvetica,sans-Serif" font-size="10.00">2</text>
</a>
</g>
</g>
<!-- dir_029b6408fc75c8aa18949ca0afd8f1c3 -->
<g id="node15" class="node">
<title>dir_029b6408fc75c8aa18949ca0afd8f1c3</title>
<g id="a_node15"><a xlink:href="dir_029b6408fc75c8aa18949ca0afd8f1c3.html" target="_top" xlink:title="ifxRadarSegmentation">
<polygon fill="white" stroke="black" points="150,-348 24,-348 24,-312 150,-312 150,-348"/>
<text text-anchor="middle" x="87" y="-327.5" font-family="Helvetica,sans-Serif" font-size="10.00">ifxRadarSegmentation</text>
</a>
</g>
</g>
<!-- dir_029b6408fc75c8aa18949ca0afd8f1c3&#45;&gt;dir_1346ff5bb9c7843a219db733dcd633fb -->
<g id="edge22" class="edge">
<title>dir_029b6408fc75c8aa18949ca0afd8f1c3&#45;&gt;dir_1346ff5bb9c7843a219db733dcd633fb</title>
<path fill="none" stroke="black" d="M138.35,-311.97C175.98,-299.48 226.24,-282.81 260.23,-271.53"/>
<polygon fill="black" stroke="black" points="261.41,-274.83 269.8,-268.36 259.21,-268.18 261.41,-274.83"/>
<g id="a_edge22&#45;headlabel"><a xlink:href="dir_000018_000006.html" target="_top" xlink:title="1">
<text text-anchor="middle" x="258.89" y="-276.15" font-family="Helvetica,sans-Serif" font-size="10.00">1</text>
</a>
</g>
</g>
<!-- dir_029b6408fc75c8aa18949ca0afd8f1c3&#45;&gt;dir_567fd94d20573b82fae4b73e87e5ca9b -->
<g id="edge23" class="edge">
<title>dir_029b6408fc75c8aa18949ca0afd8f1c3&#45;&gt;dir_567fd94d20573b82fae4b73e87e5ca9b</title>
<path fill="none" stroke="black" d="M84.64,-311.82C79.86,-269.88 73.6,-160.97 126,-96 149.55,-66.8 191.57,-53.61 222.08,-47.7"/>
<polygon fill="black" stroke="black" points="222.71,-51.14 231.95,-45.96 221.49,-44.25 222.71,-51.14"/>
<g id="a_edge23&#45;headlabel"><a xlink:href="dir_000018_000007.html" target="_top" xlink:title="5">
<text text-anchor="middle" x="219.66" y="-52.06" font-family="Helvetica,sans-Serif" font-size="10.00">5</text>
</a>
</g>
</g>
<!-- dir_3e15448443e7fb09bbd22f63da6e466f -->
<g id="node16" class="node">
<title>dir_3e15448443e7fb09bbd22f63da6e466f</title>
<g id="a_node16"><a xlink:href="dir_3e15448443e7fb09bbd22f63da6e466f.html" target="_top" xlink:title="ifxUtil">
<polygon fill="white" stroke="black" points="78,-132 24,-132 24,-96 78,-96 78,-132"/>
<text text-anchor="middle" x="51" y="-111.5" font-family="Helvetica,sans-Serif" font-size="10.00">ifxUtil</text>
</a>
</g>
</g>
<!-- dir_3e15448443e7fb09bbd22f63da6e466f&#45;&gt;dir_567fd94d20573b82fae4b73e87e5ca9b -->
<g id="edge18" class="edge">
<title>dir_3e15448443e7fb09bbd22f63da6e466f&#45;&gt;dir_567fd94d20573b82fae4b73e87e5ca9b</title>
<path fill="none" stroke="black" d="M78.22,-101.33C82.79,-99.48 87.51,-97.64 92,-96 136.15,-79.88 187.84,-63.91 221.89,-53.78"/>
<polygon fill="black" stroke="black" points="223.26,-57.02 231.86,-50.83 221.28,-50.31 223.26,-57.02"/>
<g id="a_edge18&#45;headlabel"><a xlink:href="dir_000019_000007.html" target="_top" xlink:title="6">
<text text-anchor="middle" x="220.62" y="-58.27" font-family="Helvetica,sans-Serif" font-size="10.00">6</text>
</a>
</g>
</g>
</g>
</svg>
