<?xml version="1.0" encoding="UTF-8" standalone="no"?>
<!DOCTYPE svg PUBLIC "-//W3C//DTD SVG 1.1//EN"
 "http://www.w3.org/Graphics/SVG/1.1/DTD/svg11.dtd">
<!-- Generated by graphviz version 2.43.0 (0)
 -->
<!-- Title: Radar (ifxRadar) Pages: 1 -->
<svg width="254pt" height="323pt"
 viewBox="0.00 0.00 254.00 323.00" xmlns="http://www.w3.org/2000/svg" xmlns:xlink="http://www.w3.org/1999/xlink">
<g id="graph0" class="graph" transform="scale(1 1) rotate(0) translate(4 319)">
<title>Radar (ifxRadar)</title>
<polygon fill="white" stroke="transparent" points="-4,4 -4,-319 250,-319 250,4 -4,4"/>
<!-- Node5 -->
<g id="node1" class="node">
<title>Node5</title>
<g id="a_node1"><a xlink:href="group__gr__doppler__spect.html" target="_top" xlink:title="API for Doppler Spectrogram.">
<polygon fill="white" stroke="black" points="246,-315 133,-315 133,-296 246,-296 246,-315"/>
<text text-anchor="middle" x="189.5" y="-303" font-family="Helvetica,sans-Serif" font-size="10.00">Range Doppler Map</text>
</a>
</g>
</g>
<!-- Node4 -->
<g id="node2" class="node">
<title>Node4</title>
<g id="a_node2"><a xlink:href="group__gr__dbf.html" target="_top" xlink:title="API for Digital Beamforming (DBF) algorithm.">
<polygon fill="white" stroke="black" points="208,-278 171,-278 171,-259 208,-259 208,-278"/>
<text text-anchor="middle" x="189.5" y="-266" font-family="Helvetica,sans-Serif" font-size="10.00">DBF</text>
</a>
</g>
</g>
<!-- Node1 -->
<g id="node3" class="node">
<title>Node1</title>
<g id="a_node3"><a xlink:title=" ">
<polygon fill="#bfbfbf" stroke="black" points="97,-167 0,-167 0,-148 97,-148 97,-167"/>
<text text-anchor="middle" x="48.5" y="-155" font-family="Helvetica,sans-Serif" font-size="10.00">Radar (ifxRadar)</text>
</a>
</g>
</g>
<!-- Node1&#45;&gt;Node5 -->
<g id="edge4" class="edge">
<title>Node1&#45;&gt;Node5</title>
<path fill="none" stroke="black" d="M56.92,-176.85C68.76,-205.21 94.57,-257.88 133,-287.5 137.41,-290.9 142.49,-293.67 147.74,-295.93"/>
<polygon fill="black" stroke="black" points="60.05,-175.25 53.07,-167.28 53.55,-177.86 60.05,-175.25"/>
</g>
<!-- Node1&#45;&gt;Node4 -->
<g id="edge3" class="edge">
<title>Node1&#45;&gt;Node4</title>
<path fill="none" stroke="black" d="M61.23,-175.5C75.71,-196.39 102.26,-230.52 133,-250.5 144.55,-258.01 159.49,-262.62 170.96,-265.29"/>
<polygon fill="black" stroke="black" points="64.11,-173.51 55.61,-167.19 58.31,-177.43 64.11,-173.51"/>
</g>
<!-- Node6 -->
<g id="node4" class="node">
<title>Node6</title>
<g id="a_node4"><a xlink:href="group__gr__peaksearch.html" target="_top" xlink:title="API for Peak Search preprocessing.">
<polygon fill="white" stroke="black" points="228,-241 151,-241 151,-222 228,-222 228,-241"/>
<text text-anchor="middle" x="189.5" y="-229" font-family="Helvetica,sans-Serif" font-size="10.00">Peak Search</text>
</a>
</g>
</g>
<!-- Node1&#45;&gt;Node6 -->
<g id="edge5" class="edge">
<title>Node1&#45;&gt;Node6</title>
<path fill="none" stroke="black" d="M69.82,-173.47C86.15,-185.72 110.08,-202.37 133,-213.5 139.56,-216.69 146.82,-219.5 153.87,-221.91"/>
<polygon fill="black" stroke="black" points="71.65,-170.47 61.57,-167.18 67.4,-176.03 71.65,-170.47"/>
</g>
<!-- Node3 -->
<g id="node5" class="node">
<title>Node3</title>
<g id="a_node5"><a xlink:href="group__gr__anglemonopulse.html" target="_top" xlink:title="API for Phase Monopulse algorithm.">
<polygon fill="white" stroke="black" points="240,-204 139,-204 139,-185 240,-185 240,-204"/>
<text text-anchor="middle" x="189.5" y="-192" font-family="Helvetica,sans-Serif" font-size="10.00">Angle Monopulse</text>
</a>
</g>
</g>
<!-- Node1&#45;&gt;Node3 -->
<g id="edge2" class="edge">
<title>Node1&#45;&gt;Node3</title>
<path fill="none" stroke="black" d="M95.03,-169.62C113.63,-174.57 134.84,-180.22 152.34,-184.88"/>
<polygon fill="black" stroke="black" points="95.86,-166.22 85.3,-167.03 94.06,-172.98 95.86,-166.22"/>
</g>
<!-- Node7 -->
<g id="node6" class="node">
<title>Node7</title>
<g id="a_node6"><a xlink:href="group__gr__rai.html" target="_top" xlink:title="API for Range Angle Image algorithm.">
<polygon fill="white" stroke="black" points="245.5,-167 133.5,-167 133.5,-148 245.5,-148 245.5,-167"/>
<text text-anchor="middle" x="189.5" y="-155" font-family="Helvetica,sans-Serif" font-size="10.00">Range Angle Image</text>
</a>
</g>
</g>
<!-- Node1&#45;&gt;Node7 -->
<g id="edge6" class="edge">
<title>Node1&#45;&gt;Node7</title>
<path fill="none" stroke="black" d="M107.6,-157.5C116.15,-157.5 124.93,-157.5 133.41,-157.5"/>
<polygon fill="black" stroke="black" points="107.34,-154 97.34,-157.5 107.34,-161 107.34,-154"/>
</g>
<!-- Node8 -->
<g id="node7" class="node">
<title>Node8</title>
<g id="a_node7"><a xlink:href="group__gr__rdm.html" target="_top" xlink:title="API for Range Doppler Map.">
<polygon fill="white" stroke="black" points="246,-130 133,-130 133,-111 246,-111 246,-130"/>
<text text-anchor="middle" x="189.5" y="-118" font-family="Helvetica,sans-Serif" font-size="10.00">Range Doppler Map</text>
</a>
</g>
</g>
<!-- Node1&#45;&gt;Node8 -->
<g id="edge7" class="edge">
<title>Node1&#45;&gt;Node8</title>
<path fill="none" stroke="black" d="M95.03,-145.38C113.63,-140.43 134.84,-134.78 152.34,-130.12"/>
<polygon fill="black" stroke="black" points="94.06,-142.02 85.3,-147.97 95.86,-148.78 94.06,-142.02"/>
</g>
<!-- Node10 -->
<g id="node8" class="node">
<title>Node10</title>
<g id="a_node8"><a xlink:href="group__gr__sa.html" target="_top" xlink:title="API for Spectrum Axis used by Range spectrum, Range Doppler and Range Angle Map modules.">
<polygon fill="white" stroke="black" points="233,-93 146,-93 146,-74 233,-74 233,-93"/>
<text text-anchor="middle" x="189.5" y="-81" font-family="Helvetica,sans-Serif" font-size="10.00">Spectrum Axis</text>
</a>
</g>
</g>
<!-- Node1&#45;&gt;Node10 -->
<g id="edge9" class="edge">
<title>Node1&#45;&gt;Node10</title>
<path fill="none" stroke="black" d="M70.19,-141.73C86.58,-129.79 110.38,-113.6 133,-102.5 140.31,-98.91 148.48,-95.71 156.24,-93"/>
<polygon fill="black" stroke="black" points="67.86,-139.1 61.91,-147.87 72.03,-144.73 67.86,-139.1"/>
</g>
<!-- Node9 -->
<g id="node9" class="node">
<title>Node9</title>
<g id="a_node9"><a xlink:href="group__gr__rs.html" target="_top" xlink:title="API for Range Spectrum.">
<polygon fill="white" stroke="black" points="238,-56 141,-56 141,-37 238,-37 238,-56"/>
<text text-anchor="middle" x="189.5" y="-44" font-family="Helvetica,sans-Serif" font-size="10.00">Range Spectrum</text>
</a>
</g>
</g>
<!-- Node1&#45;&gt;Node9 -->
<g id="edge8" class="edge">
<title>Node1&#45;&gt;Node9</title>
<path fill="none" stroke="black" d="M61.52,-139.51C76.15,-118.91 102.68,-85.44 133,-65.5 138.79,-61.69 145.41,-58.57 152.03,-56.03"/>
<polygon fill="black" stroke="black" points="58.48,-137.76 55.67,-147.97 64.24,-141.74 58.48,-137.76"/>
</g>
<!-- Node2 -->
<g id="node10" class="node">
<title>Node2</title>
<g id="a_node10"><a xlink:href="group__gr__anglecapon.html" target="_top" xlink:title="API for the 1&#45;D Angle Capon algorithm.">
<polygon fill="white" stroke="black" points="228.5,-19 150.5,-19 150.5,0 228.5,0 228.5,-19"/>
<text text-anchor="middle" x="189.5" y="-7" font-family="Helvetica,sans-Serif" font-size="10.00">Angle Capon</text>
</a>
</g>
</g>
<!-- Node1&#45;&gt;Node2 -->
<g id="edge1" class="edge">
<title>Node1&#45;&gt;Node2</title>
<path fill="none" stroke="black" d="M57.02,-138.37C68.99,-110.34 94.97,-58.21 133,-28.5 138.14,-24.49 144.17,-21.29 150.34,-18.76"/>
<polygon fill="black" stroke="black" points="53.7,-137.26 53.13,-147.84 60.17,-139.93 53.7,-137.26"/>
</g>
</g>
</svg>
