<?xml version="1.0" encoding="UTF-8" standalone="no"?>
<!DOCTYPE svg PUBLIC "-//W3C//DTD SVG 1.1//EN"
 "http://www.w3.org/Graphics/SVG/1.1/DTD/svg11.dtd">
<!-- Generated by graphviz version 2.43.0 (0)
 -->
<!-- Title: Device Mimose (ifxMimose) Pages: 1 -->
<svg width="330pt" height="76pt"
 viewBox="0.00 0.00 330.00 75.50" xmlns="http://www.w3.org/2000/svg" xmlns:xlink="http://www.w3.org/1999/xlink">
<g id="graph0" class="graph" transform="scale(1 1) rotate(0) translate(4 71.5)">
<title>Device Mimose (ifxMimose)</title>
<polygon fill="white" stroke="transparent" points="-4,4 -4,-71.5 326,-71.5 326,4 -4,4"/>
<!-- Node3 -->
<g id="node1" class="node">
<title>Node3</title>
<g id="a_node1"><a xlink:href="group__gr__device__mimose__types.html" target="_top" xlink:title="Header file for Mimose types.">
<polygon fill="white" stroke="black" points="299.5,-67.5 213.5,-67.5 213.5,-48.5 299.5,-48.5 299.5,-67.5"/>
<text text-anchor="middle" x="256.5" y="-55.5" font-family="Helvetica,sans-Serif" font-size="10.00">Mimose Types</text>
</a>
</g>
</g>
<!-- Node1 -->
<g id="node2" class="node">
<title>Node1</title>
<g id="a_node2"><a xlink:title=" ">
<polygon fill="#bfbfbf" stroke="black" points="155,-45.5 0,-45.5 0,-26.5 155,-26.5 155,-45.5"/>
<text text-anchor="middle" x="77.5" y="-33.5" font-family="Helvetica,sans-Serif" font-size="10.00">Device Mimose (ifxMimose)</text>
</a>
</g>
</g>
<!-- Node1&#45;&gt;Node3 -->
<g id="edge2" class="edge">
<title>Node1&#45;&gt;Node3</title>
<path fill="none" stroke="black" d="M165.47,-46.81C182.16,-48.88 198.92,-50.97 213.38,-52.76"/>
<polygon fill="black" stroke="black" points="165.46,-43.28 155.11,-45.52 164.6,-50.23 165.46,-43.28"/>
</g>
<!-- Node2 -->
<g id="node3" class="node">
<title>Node2</title>
<g id="a_node3"><a xlink:href="group__gr__device__mimose__control.html" target="_top" xlink:title="API for 24GHz Radar Device Mimose to configure and get raw data.">
<polygon fill="white" stroke="black" points="322,-30 191,-30 191,0 322,0 322,-30"/>
<text text-anchor="start" x="199" y="-18" font-family="Helvetica,sans-Serif" font-size="10.00">Device Mimose Control</text>
<text text-anchor="middle" x="256.5" y="-7" font-family="Helvetica,sans-Serif" font-size="10.00"> (24GHz)</text>
</a>
</g>
</g>
<!-- Node1&#45;&gt;Node2 -->
<g id="edge1" class="edge">
<title>Node1&#45;&gt;Node2</title>
<path fill="none" stroke="black" d="M165.25,-25.71C173.91,-24.68 182.6,-23.65 190.97,-22.66"/>
<polygon fill="black" stroke="black" points="164.62,-22.26 155.11,-26.91 165.45,-29.21 164.62,-22.26"/>
</g>
</g>
</svg>
