<?xml version="1.0" encoding="UTF-8" standalone="no"?>
<!DOCTYPE svg PUBLIC "-//W3C//DTD SVG 1.1//EN"
 "http://www.w3.org/Graphics/SVG/1.1/DTD/svg11.dtd">
<!-- Generated by graphviz version 2.43.0 (0)
 -->
<!-- Title: ifx_Mimose_Config_t Pages: 1 -->
<svg width="385pt" height="142pt"
 viewBox="0.00 0.00 385.00 142.00" xmlns="http://www.w3.org/2000/svg" xmlns:xlink="http://www.w3.org/1999/xlink">
<g id="graph0" class="graph" transform="scale(1 1) rotate(0) translate(4 138)">
<title>ifx_Mimose_Config_t</title>
<polygon fill="white" stroke="transparent" points="-4,4 -4,-138 381,-138 381,4 -4,4"/>
<!-- Node1 -->
<g id="node1" class="node">
<title>Node1</title>
<g id="a_node1"><a xlink:title=" ">
<polygon fill="#bfbfbf" stroke="black" points="258,-57.5 258,-76.5 377,-76.5 377,-57.5 258,-57.5"/>
<text text-anchor="middle" x="317.5" y="-64.5" font-family="Helvetica,sans-Serif" font-size="10.00">ifx_Mimose_Config_t</text>
</a>
</g>
</g>
<!-- Node2 -->
<g id="node2" class="node">
<title>Node2</title>
<g id="a_node2"><a xlink:href="structifx___mimose___clock___config__t.html" target="_top" xlink:title=" ">
<polygon fill="white" stroke="black" points="2,-114.5 2,-133.5 153,-133.5 153,-114.5 2,-114.5"/>
<text text-anchor="middle" x="77.5" y="-121.5" font-family="Helvetica,sans-Serif" font-size="10.00">ifx_Mimose_Clock_Config_t</text>
</a>
</g>
</g>
<!-- Node2&#45;&gt;Node1 -->
<g id="edge1" class="edge">
<title>Node2&#45;&gt;Node1</title>
<path fill="none" stroke="#9a32cd" stroke-dasharray="5,2" d="M148.66,-112.71C177.2,-107.55 210.37,-100.84 240,-93 257.36,-88.41 276.48,-81.91 291.27,-76.56"/>
<polygon fill="#9a32cd" stroke="#9a32cd" points="148,-109.27 138.77,-114.47 149.23,-116.16 148,-109.27"/>
<text text-anchor="middle" x="206.5" y="-110" font-family="Helvetica,sans-Serif" font-size="10.00"> clock_config</text>
</g>
<!-- Node3 -->
<g id="node3" class="node">
<title>Node3</title>
<g id="a_node3"><a xlink:href="structifx___mimose___frame___config__t.html" target="_top" xlink:title=" ">
<polygon fill="white" stroke="black" points="0,-76.5 0,-95.5 155,-95.5 155,-76.5 0,-76.5"/>
<text text-anchor="middle" x="77.5" y="-83.5" font-family="Helvetica,sans-Serif" font-size="10.00">ifx_Mimose_Frame_Config_t</text>
</a>
</g>
</g>
<!-- Node3&#45;&gt;Node1 -->
<g id="edge2" class="edge">
<title>Node3&#45;&gt;Node1</title>
<path fill="none" stroke="#9a32cd" stroke-dasharray="5,2" d="M165.4,-79.06C196.13,-76.61 229.94,-73.91 257.77,-71.69"/>
<polygon fill="#9a32cd" stroke="#9a32cd" points="164.8,-75.6 155.11,-79.88 165.36,-82.58 164.8,-75.6"/>
<text text-anchor="middle" x="206.5" y="-81" font-family="Helvetica,sans-Serif" font-size="10.00"> frame_config</text>
</g>
<!-- Node4 -->
<g id="node4" class="node">
<title>Node4</title>
<g id="a_node4"><a xlink:href="structifx___mimose___a_f_c___control__t.html" target="_top" xlink:title=" ">
<polygon fill="white" stroke="black" points="3.5,-38.5 3.5,-57.5 151.5,-57.5 151.5,-38.5 3.5,-38.5"/>
<text text-anchor="middle" x="77.5" y="-45.5" font-family="Helvetica,sans-Serif" font-size="10.00">ifx_Mimose_AFC_Control_t</text>
</a>
</g>
</g>
<!-- Node4&#45;&gt;Node1 -->
<g id="edge3" class="edge">
<title>Node4&#45;&gt;Node1</title>
<path fill="none" stroke="#9a32cd" stroke-dasharray="5,2" d="M161.95,-52.28C187.06,-53.81 214.67,-55.73 240,-58 245.73,-58.51 251.69,-59.11 257.64,-59.74"/>
<polygon fill="#9a32cd" stroke="#9a32cd" points="161.92,-48.78 151.72,-51.68 161.5,-55.76 161.92,-48.78"/>
<text text-anchor="middle" x="206.5" y="-61" font-family="Helvetica,sans-Serif" font-size="10.00"> afc_config</text>
</g>
<!-- Node5 -->
<g id="node5" class="node">
<title>Node5</title>
<g id="a_node5"><a xlink:href="structifx___mimose___pulse___config__t.html" target="_top" xlink:title=" ">
<polygon fill="white" stroke="black" points="2.5,-0.5 2.5,-19.5 152.5,-19.5 152.5,-0.5 2.5,-0.5"/>
<text text-anchor="middle" x="77.5" y="-7.5" font-family="Helvetica,sans-Serif" font-size="10.00">ifx_Mimose_Pulse_Config_t</text>
</a>
</g>
</g>
<!-- Node5&#45;&gt;Node1 -->
<g id="edge4" class="edge">
<title>Node5&#45;&gt;Node1</title>
<path fill="none" stroke="#9a32cd" stroke-dasharray="5,2" d="M160.75,-21.15C186.36,-25.45 214.56,-31.04 240,-38 258.91,-43.17 279.66,-51.19 294.77,-57.49"/>
<polygon fill="#9a32cd" stroke="#9a32cd" points="161.13,-17.67 150.7,-19.5 160,-24.57 161.13,-17.67"/>
<text text-anchor="middle" x="206.5" y="-41" font-family="Helvetica,sans-Serif" font-size="10.00"> pulse_config</text>
</g>
</g>
</svg>
